Pretension[wght].glyphspackage
{
glyphname = exclam;
layers = (
{
layerId = "1EC723AD-C41F-43E3-B68D-B2A779A308DC";
shapes = (
{
closed = 1;
nodes = (
(156,470,l),
(121,1490,l),
(545,1490,l),
(511,470,l)
);
},
{
closed = 1;
nodes = (
(272,-21,o),
(222,-2,o),
(182,36,cs),
(142,74,o),
(122,123,o),
(122,183,cs),
(122,242,o),
(142,290,o),
(182,329,cs),
(222,367,o),
(272,386,o),
(333,386,cs),
(395,386,o),
(446,367,o),
(486,329,cs),
(525,290,o),
(545,242,o),
(545,183,cs),
(545,123,o),
(525,74,o),
(486,36,cs),
(446,-2,o),
(395,-21,o),
(333,-21,cs)
);
}
);
width = 667;
},
{
layerId = "2F0A8C87-DA84-48CB-8FDB-683796859A95";
shapes = (
{
closed = 1;
nodes = (
(165,456,l),
(141,1490,l),
(455,1490,l),
(431,456,l)
);
},
{
closed = 1;
nodes = (
(249,-18,o),
(208,-2,o),
(175,30,cs),
(142,62,o),
(126,102,o),
(126,150,cs),
(126,198,o),
(142,238,o),
(175,270,cs),
(208,302,o),
(249,318,o),
(298,318,cs),
(348,318,o),
(389,302,o),
(422,270,cs),
(454,238,o),
(471,198,o),
(471,150,cs),
(471,102,o),
(454,62,o),
(422,30,cs),
(389,-2,o),
(348,-18,o),
(298,-18,cs)
);
}
);
width = 596;
},
{
layerId = "545E045A-B28D-42BD-AE6C-2FB63E8B3292";
shapes = (
{
closed = 1;
nodes = (
(175,440,l),
(162,1490,l),
(357,1490,l),
(344,440,l)
);
},
{
closed = 1;
nodes = (
(224,-15,o),
(193,-2,o),
(168,23,cs),
(143,48,o),
(130,79,o),
(130,115,cs),
(130,151,o),
(143,182,o),
(168,207,cs),
(193,232,o),
(224,245,o),
(260,245,cs),
(297,245,o),
(328,232,o),
(353,207,cs),
(378,182,o),
(390,151,o),
(390,115,cs),
(390,79,o),
(378,48,o),
(353,23,cs),
(328,-2,o),
(297,-15,o),
(260,-15,cs)
);
}
);
width = 520;
},
{
layerId = "9DE19B50-AF62-41B5-96CD-C828EA777CBB";
shapes = (
{
closed = 1;
nodes = (
(216,395,l),
(216,1490,l),
(262,1490,l),
(262,395,l)
);
},
{
closed = 1;
nodes = (
(224,-10,o),
(212,-5,o),
(201,6,cs),
(190,16,o),
(185,29,o),
(185,44,cs),
(185,59,o),
(190,71,o),
(201,82,cs),
(212,92,o),
(224,97,o),
(239,97,cs),
(254,97,o),
(267,92,o),
(278,81,cs),
(288,70,o),
(293,58,o),
(293,43,cs),
(293,28,o),
(288,16,o),
(278,6,cs),
(267,-5,o),
(254,-10,o),
(239,-10,cs)
);
}
);
width = 478;
}
);
unicode = 33;
}
{
glyphname = numbersign;
layers = (
{
layerId = "30DB1A31-A6FD-462E-A165-656579CC7601";
shapes = (
{
closed = 1;
nodes = (
(665,0,l),
(909,1490,l),
(1200,1490,l),
(954,0,l)
);
},
{
closed = 1;
nodes = (
(4,341,l),
(55,633,l),
(1253,633,l),
(1202,341,l)
);
},
{
closed = 1;
nodes = (
(141,0,l),
(385,1490,l),
(676,1490,l),
(432,0,l)
);
},
{
closed = 1;
nodes = (
(88,859,l),
(139,1151,l),
(1337,1151,l),
(1286,859,l)
);
}
);
width = 1341;
},
{
layerId = "9958C6BA-7FC1-41C8-B3E0-9B3AF71AFF69";
shapes = (
{
closed = 1;
nodes = (
(680,0,l),
(925,1490,l),
(1147,1490,l),
(902,0,l)
);
},
{
closed = 1;
nodes = (
(11,376,l),
(49,598,l),
(1207,598,l),
(1168,376,l)
);
},
{
closed = 1;
nodes = (
(157,0,l),
(401,1490,l),
(623,1490,l),
(379,0,l)
);
},
{
closed = 1;
nodes = (
(97,893,l),
(135,1116,l),
(1292,1116,l),
(1254,893,l)
);
}
);
width = 1304;
},
{
layerId = "1B8D64CA-D7DF-4852-939C-A0B9329902C0";
shapes = (
{
closed = 1;
nodes = (
(696,0,l),
(942,1490,l),
(1089,1490,l),
(845,0,l)
);
},
{
closed = 1;
nodes = (
(18,413,l),
(43,560,l),
(1157,560,l),
(1132,413,l)
);
},
{
closed = 1;
nodes = (
(174,0,l),
(418,1490,l),
(565,1490,l),
(321,0,l)
);
},
{
closed = 1;
nodes = (
(106,929,l),
(131,1078,l),
(1243,1078,l),
(1220,929,l)
);
}
);
width = 1263;
},
{
layerId = "B109C6DD-98CC-498D-964F-904F22F997F9";
shapes = (
{
closed = 1;
nodes = (
(735,0,l),
(979,1490,l),
(1024,1490,l),
(780,0,l)
);
},
{
closed = 1;
nodes = (
(14,463,l),
(25,511,l),
(1135,511,l),
(1126,463,l)
);
},
{
closed = 1;
nodes = (
(211,0,l),
(455,1490,l),
(500,1490,l),
(256,0,l)
);
},
{
closed = 1;
nodes = (
(98,981,l),
(109,1027,l),
(1219,1027,l),
(1210,981,l)
);
}
);
width = 1235;
}
);
unicode = 35;
}
{
glyphname = percent;
layers = (
{
layerId = "30DB1A31-A6FD-462E-A165-656579CC7601";
shapes = (
{
closed = 1;
nodes = (
(426,719,o),
(362,735,o),
(308,767,cs),
(199,830,o),
(136,947,o),
(136,1088,cs),
(136,1142,ls),
(136,1215,o),
(151,1279,o),
(182,1335,cs),
(242,1446,o),
(354,1514,o),
(501,1514,cs),
(576,1514,o),
(640,1498,o),
(695,1466,cs),
(803,1402,o),
(866,1287,o),
(866,1142,cs),
(866,1088,ls),
(866,1017,o),
(851,953,o),
(821,898,cs),
(761,786,o),
(649,719,o),
(501,719,cs)
);
},
{
closed = 1;
nodes = (
(538,946,o),
(565,959,o),
(582,985,cs),
(599,1011,o),
(607,1045,o),
(607,1088,cs),
(607,1142,ls),
(607,1185,o),
(599,1221,o),
(582,1248,cs),
(565,1275,o),
(538,1288,o),
(501,1288,cs),
(465,1288,o),
(439,1274,o),
(422,1247,cs),
(405,1220,o),
(397,1185,o),
(397,1142,cs),
(397,1088,ls),
(397,1045,o),
(406,1011,o),
(423,985,cs),
(440,959,o),
(466,946,o),
(501,946,cs)
);
},
{
closed = 1;
nodes = (
(1536,-23,o),
(1472,-7,o),
(1417,25,cs),
(1308,88,o),
(1246,205,o),
(1246,346,cs),
(1246,400,ls),
(1246,473,o),
(1261,537,o),
(1291,593,cs),
(1351,704,o),
(1464,772,o),
(1609,772,cs),
(1684,772,o),
(1749,756,o),
(1804,724,cs),
(1912,660,o),
(1976,545,o),
(1976,400,cs),
(1976,346,ls),
(1976,275,o),
(1961,211,o),
(1931,156,cs),
(1870,44,o),
(1758,-23,o),
(1609,-23,cs)
);
},
{
closed = 1;
nodes = (
(1646,204,o),
(1673,217,o),
(1690,243,cs),
(1707,269,o),
(1715,303,o),
(1715,346,cs),
(1715,400,ls),
(1715,443,o),
(1707,479,o),
(1691,506,cs),
(1674,533,o),
(1647,546,o),
(1609,546,cs),
(1573,546,o),
(1547,532,o),
(1530,505,cs),
(1513,478,o),
(1505,443,o),
(1505,400,cs),
(1505,346,ls),
(1505,303,o),
(1514,269,o),
(1531,243,cs),
(1548,217,o),
(1574,204,o),
(1609,204,cs)
);
},
{
closed = 1;
nodes = (
(417,0,l),
(1441,1490,l),
(1690,1490,l),
(666,0,l)
);
}
);
width = 2112;
},
{
layerId = "9958C6BA-7FC1-41C8-B3E0-9B3AF71AFF69";
shapes = (
{
closed = 1;
nodes = (
(423,767,o),
(364,782,o),
(314,812,cs),
(214,872,o),
(158,982,o),
(158,1112,cs),
(158,1166,ls),
(158,1233,o),
(171,1292,o),
(199,1345,cs),
(254,1449,o),
(356,1514,o),
(492,1514,cs),
(562,1514,o),
(621,1499,o),
(671,1468,cs),
(769,1408,o),
(826,1299,o),
(826,1166,cs),
(826,1112,ls),
(826,1047,o),
(812,988,o),
(785,936,cs),
(731,831,o),
(629,767,o),
(492,767,cs)
);
},
{
closed = 1;
nodes = (
(535,947,o),
(567,962,o),
(588,994,cs),
(608,1024,o),
(618,1064,o),
(618,1112,cs),
(618,1166,ls),
(618,1215,o),
(608,1256,o),
(588,1287,cs),
(567,1319,o),
(536,1334,o),
(492,1334,cs),
(450,1334,o),
(419,1318,o),
(398,1287,cs),
(377,1255,o),
(367,1215,o),
(367,1166,cs),
(367,1112,ls),
(367,1064,o),
(377,1024,o),
(398,994,cs),
(419,962,o),
(450,947,o),
(492,947,cs)
);
},
{
closed = 1;
nodes = (
(1435,-24,o),
(1376,-9,o),
(1326,21,cs),
(1226,81,o),
(1170,191,o),
(1170,322,cs),
(1170,376,ls),
(1170,442,o),
(1184,501,o),
(1211,554,cs),
(1265,658,o),
(1368,723,o),
(1503,723,cs),
(1573,723,o),
(1632,708,o),
(1683,677,cs),
(1781,617,o),
(1838,509,o),
(1838,376,cs),
(1838,322,ls),
(1838,256,o),
(1825,197,o),
(1798,145,cs),
(1743,40,o),
(1642,-24,o),
(1503,-24,cs)
);
},
{
closed = 1;
nodes = (
(1546,156,o),
(1578,171,o),
(1599,203,cs),
(1619,233,o),
(1629,273,o),
(1629,322,cs),
(1629,376,ls),
(1629,424,o),
(1619,465,o),
(1599,496,cs),
(1579,528,o),
(1547,543,o),
(1503,543,cs),
(1461,543,o),
(1430,527,o),
(1409,496,cs),
(1388,464,o),
(1378,424,o),
(1378,376,cs),
(1378,322,ls),
(1378,273,o),
(1388,233,o),
(1409,203,cs),
(1430,171,o),
(1461,156,o),
(1503,156,cs)
);
},
{
closed = 1;
nodes = (
(377,0,l),
(1401,1490,l),
(1613,1490,l),
(589,0,l)
);
}
);
width = 1996;
},
{
layerId = "1B8D64CA-D7DF-4852-939C-A0B9329902C0";
shapes = (
{
closed = 1;
nodes = (
(420,818,o),
(366,832,o),
(321,861,cs),
(231,918,o),
(181,1020,o),
(181,1139,cs),
(181,1193,ls),
(181,1253,o),
(193,1307,o),
(218,1356,cs),
(266,1452,o),
(358,1514,o),
(483,1514,cs),
(546,1514,o),
(600,1500,o),
(645,1471,cs),
(733,1414,o),
(782,1313,o),
(782,1193,cs),
(782,1139,ls),
(782,1080,o),
(770,1026,o),
(747,977,cs),
(699,880,o),
(608,818,o),
(483,818,cs)
);
},
{
closed = 1;
nodes = (
(532,948,o),
(569,966,o),
(594,1003,cs),
(618,1039,o),
(630,1084,o),
(630,1139,cs),
(630,1193,ls),
(630,1248,o),
(618,1293,o),
(594,1330,cs),
(570,1366,o),
(533,1384,o),
(483,1384,cs),
(434,1384,o),
(397,1366,o),
(372,1330,cs),
(347,1293,o),
(334,1248,o),
(334,1193,cs),
(334,1139,ls),
(334,1084,o),
(346,1039,o),
(371,1003,cs),
(396,966,o),
(433,948,o),
(483,948,cs)
);
},
{
closed = 1;
nodes = (
(1326,-26,o),
(1273,-12,o),
(1228,17,cs),
(1138,74,o),
(1088,176,o),
(1088,295,cs),
(1088,349,ls),
(1088,409,o),
(1100,463,o),
(1124,512,cs),
(1172,608,o),
(1264,670,o),
(1389,670,cs),
(1452,670,o),
(1506,656,o),
(1551,627,cs),
(1640,570,o),
(1689,469,o),
(1689,349,cs),
(1689,295,ls),
(1689,236,o),
(1677,182,o),
(1653,133,cs),
(1605,36,o),
(1516,-26,o),
(1389,-26,cs)
);
},
{
closed = 1;
nodes = (
(1438,104,o),
(1475,122,o),
(1500,159,cs),
(1524,195,o),
(1536,240,o),
(1536,295,cs),
(1536,349,ls),
(1536,404,o),
(1524,449,o),
(1500,486,cs),
(1476,522,o),
(1439,540,o),
(1389,540,cs),
(1340,540,o),
(1303,522,o),
(1278,486,cs),
(1253,449,o),
(1240,404,o),
(1240,349,cs),
(1240,295,ls),
(1240,240,o),
(1252,195,o),
(1277,159,cs),
(1302,122,o),
(1339,104,o),
(1389,104,cs)
);
},
{
closed = 1;
nodes = (
(333,0,l),
(1357,1490,l),
(1529,1490,l),
(505,0,l)
);
}
);
width = 1870;
},
{
layerId = "B109C6DD-98CC-498D-964F-904F22F997F9";
shapes = (
{
closed = 1;
nodes = (
(381,879,o),
(336,892,o),
(297,917,cs),
(218,968,o),
(170,1061,o),
(170,1180,cs),
(170,1204,ls),
(170,1264,o),
(182,1317,o),
(205,1362,cs),
(251,1453,o),
(332,1506,o),
(432,1506,cs),
(482,1506,o),
(527,1493,o),
(566,1468,cs),
(644,1417,o),
(691,1324,o),
(691,1204,cs),
(691,1180,ls),
(691,1121,o),
(680,1068,o),
(658,1023,cs),
(613,932,o),
(531,879,o),
(432,879,cs)
);
},
{
closed = 1;
nodes = (
(493,924,o),
(544,948,o),
(585,995,cs),
(626,1042,o),
(646,1104,o),
(646,1180,cs),
(646,1204,ls),
(646,1281,o),
(626,1343,o),
(585,1390,cs),
(544,1437,o),
(493,1460,o),
(432,1460,cs),
(369,1460,o),
(318,1437,o),
(278,1390,cs),
(237,1343,o),
(217,1281,o),
(217,1204,cs),
(217,1180,ls),
(217,1104,o),
(237,1042,o),
(278,995,cs),
(318,948,o),
(369,924,o),
(432,924,cs)
);
},
{
closed = 1;
nodes = (
(1199,-15,o),
(1154,-2,o),
(1115,23,cs),
(1036,74,o),
(988,167,o),
(988,286,cs),
(988,310,ls),
(988,370,o),
(999,423,o),
(1022,468,cs),
(1066,559,o),
(1148,612,o),
(1248,612,cs),
(1298,612,o),
(1343,599,o),
(1382,574,cs),
(1460,523,o),
(1509,430,o),
(1509,310,cs),
(1509,286,ls),
(1509,227,o),
(1498,174,o),
(1475,129,cs),
(1429,38,o),
(1349,-15,o),
(1248,-15,cs)
);
},
{
closed = 1;
nodes = (
(1310,30,o),
(1361,54,o),
(1402,101,cs),
(1442,148,o),
(1462,210,o),
(1462,286,cs),
(1462,310,ls),
(1462,387,o),
(1442,449,o),
(1402,496,cs),
(1361,543,o),
(1310,566,o),
(1248,566,cs),
(1186,566,o),
(1135,543,o),
(1094,496,cs),
(1053,449,o),
(1033,387,o),
(1033,310,cs),
(1033,286,ls),
(1033,210,o),
(1053,148,o),
(1094,101,cs),
(1135,54,o),
(1186,30,o),
(1248,30,cs)
);
},
{
closed = 1;
nodes = (
(301,0,l),
(1321,1490,l),
(1378,1490,l),
(356,0,l)
);
}
);
width = 1679;
}
);
unicode = 37;
}
{
glyphname = ampersand;
layers = (
{
layerId = "1EC723AD-C41F-43E3-B68D-B2A779A308DC";
shapes = (
{
closed = 1;
nodes = (
(463,-24,o),
(372,-5,o),
(295,33,cs),
(218,71,o),
(158,122,o),
(117,186,cs),
(75,249,o),
(54,320,o),
(54,397,cs),
(54,452,o),
(65,502,o),
(86,546,cs),
(128,633,o),
(205,704,o),
(310,769,cs),
(648,979,ls),
(671,993,o),
(689,1007,o),
(702,1022,cs),
(727,1051,o),
(737,1082,o),
(737,1107,cs),
(737,1130,o),
(728,1150,o),
(711,1169,cs),
(693,1188,o),
(665,1197,o),
(628,1197,cs),
(606,1197,o),
(587,1193,o),
(571,1185,cs),
(538,1168,o),
(519,1135,o),
(519,1095,cs),
(519,1066,o),
(527,1037,o),
(543,1006,cs),
(574,944,o),
(631,877,o),
(707,794,cs),
(1429,0,l),
(1026,0,l),
(423,640,ls),
(393,673,o),
(360,712,o),
(325,757,cs),
(289,802,o),
(258,854,o),
(232,912,cs),
(205,970,o),
(192,1033,o),
(192,1101,cs),
(192,1176,o),
(210,1245,o),
(247,1308,cs),
(319,1433,o),
(454,1512,o),
(629,1512,cs),
(712,1512,o),
(783,1495,o),
(844,1461,cs),
(964,1392,o),
(1032,1272,o),
(1032,1135,cs),
(1032,1088,o),
(1025,1044,o),
(1010,1002,cs),
(980,917,o),
(921,845,o),
(834,782,cs),
(526,565,ls),
(503,548,o),
(482,529,o),
(465,508,cs),
(448,487,o),
(439,459,o),
(439,425,cs),
(439,396,o),
(446,372,o),
(459,353,cs),
(485,313,o),
(535,291,o),
(599,291,cs),
(698,291,o),
(803,341,o),
(884,428,cs),
(965,515,o),
(1020,637,o),
(1020,776,c),
(1339,776,l),
(1339,691,o),
(1330,608,o),
(1312,528,cs),
(1275,367,o),
(1198,231,o),
(1069,140,c),
(957,88,l),
(898,49,o),
(834,20,o),
(766,3,cs),
(698,-15,o),
(633,-24,o),
(570,-24,cs)
);
}
);
width = 1409;
},
{
layerId = "2F0A8C87-DA84-48CB-8FDB-683796859A95";
shapes = (
{
closed = 1;
nodes = (
(465,-22,o),
(378,-4,o),
(304,33,cs),
(230,70,o),
(171,120,o),
(131,183,cs),
(91,246,o),
(70,317,o),
(70,395,cs),
(70,451,o),
(81,502,o),
(103,546,cs),
(147,633,o),
(231,709,o),
(353,793,cs),
(638,983,ls),
(661,999,o),
(680,1015,o),
(696,1032,cs),
(728,1066,o),
(746,1105,o),
(746,1145,cs),
(746,1180,o),
(733,1209,o),
(708,1234,cs),
(683,1260,o),
(647,1272,o),
(602,1272,cs),
(573,1272,o),
(548,1266,o),
(526,1255,c),
(481,1230,o),
(455,1185,o),
(455,1130,cs),
(455,1099,o),
(462,1069,o),
(478,1038,c),
(507,976,o),
(565,908,o),
(647,813,cs),
(1351,0,l),
(1039,0,l),
(455,659,l),
(408,714,o),
(366,766,o),
(328,815,cs),
(289,863,o),
(258,914,o),
(235,966,cs),
(211,1018,o),
(199,1073,o),
(199,1133,cs),
(199,1204,o),
(216,1268,o),
(250,1325,cs),
(316,1439,o),
(441,1508,o),
(602,1508,cs),
(680,1508,o),
(747,1493,o),
(805,1462,cs),
(919,1399,o),
(984,1289,o),
(984,1160,cs),
(984,1115,o),
(977,1073,o),
(962,1033,cs),
(931,952,o),
(872,882,o),
(786,819,cs),
(483,601,ls),
(442,570,o),
(410,540,o),
(390,511,cs),
(368,481,o),
(357,447,o),
(357,408,cs),
(357,370,o),
(367,336,o),
(386,308,cs),
(424,251,o),
(494,216,o),
(579,216,cs),
(687,216,o),
(795,269,o),
(878,359,cs),
(961,449,o),
(1015,575,o),
(1015,718,c),
(1262,718,l),
(1262,635,o),
(1253,558,o),
(1235,488,cs),
(1198,346,o),
(1130,235,o),
(1034,161,c),
(960,112,l),
(907,68,o),
(845,33,o),
(775,12,cs),
(705,-11,o),
(635,-22,o),
(567,-22,cs)
);
}
);
width = 1349;
},
{
layerId = "545E045A-B28D-42BD-AE6C-2FB63E8B3292";
shapes = (
{
closed = 1;
nodes = (
(467,-20,o),
(384,-2,o),
(313,34,cs),
(242,69,o),
(186,118,o),
(147,180,cs),
(108,242,o),
(88,313,o),
(88,393,cs),
(88,450,o),
(99,501,o),
(122,546,cs),
(167,634,o),
(259,715,o),
(399,819,cs),
(627,988,ls),
(650,1005,o),
(671,1023,o),
(690,1043,cs),
(729,1082,o),
(755,1130,o),
(755,1187,cs),
(755,1234,o),
(738,1273,o),
(705,1305,cs),
(672,1337,o),
(628,1353,o),
(574,1353,cs),
(538,1353,o),
(506,1345,o),
(477,1330,c),
(420,1298,o),
(385,1240,o),
(385,1167,cs),
(385,1134,o),
(392,1103,o),
(407,1072,cs),
(435,1011,o),
(493,941,o),
(582,833,cs),
(1267,0,l),
(1054,0,l),
(490,679,ls),
(425,758,o),
(372,824,o),
(331,877,cs),
(289,930,o),
(258,980,o),
(238,1025,cs),
(217,1070,o),
(207,1117,o),
(207,1168,cs),
(207,1235,o),
(222,1293,o),
(253,1344,cs),
(313,1445,o),
(427,1504,o),
(572,1504,cs),
(645,1504,o),
(708,1490,o),
(762,1463,cs),
(870,1407,o),
(933,1308,o),
(933,1188,cs),
(933,1145,o),
(925,1104,o),
(910,1066,cs),
(878,989,o),
(819,923,o),
(735,860,cs),
(437,639,ls),
(376,594,o),
(333,552,o),
(308,514,cs),
(282,475,o),
(269,434,o),
(269,389,cs),
(269,341,o),
(282,298,o),
(307,260,cs),
(357,183,o),
(449,134,o),
(558,134,cs),
(675,134,o),
(787,190,o),
(872,284,cs),
(956,378,o),
(1009,507,o),
(1009,655,c),
(1179,655,l),
(1179,574,o),
(1170,504,o),
(1152,444,cs),
(1115,323,o),
(1056,240,o),
(997,183,c),
(963,139,l),
(916,88,o),
(857,48,o),
(785,21,cs),
(712,-6,o),
(638,-20,o),
(563,-20,cs)
);
}
);
width = 1283;
},
{
layerId = "9DE19B50-AF62-41B5-96CD-C828EA777CBB";
shapes = (
{
closed = 1;
nodes = (
(441,-18,o),
(369,-1,o),
(306,34,cs),
(243,69,o),
(192,115,o),
(155,174,cs),
(117,233,o),
(98,298,o),
(98,371,cs),
(98,420,o),
(108,465,o),
(128,506,cs),
(167,588,o),
(243,662,o),
(360,750,cs),
(575,912,ls),
(612,940,o),
(645,969,o),
(675,998,cs),
(734,1057,o),
(771,1125,o),
(771,1210,cs),
(771,1283,o),
(747,1344,o),
(699,1392,cs),
(650,1439,o),
(590,1463,o),
(517,1463,cs),
(468,1463,o),
(423,1452,o),
(383,1429,cs),
(303,1384,o),
(252,1302,o),
(252,1203,cs),
(252,1163,o),
(260,1126,o),
(277,1092,cs),
(310,1023,o),
(373,953,o),
(454,850,cs),
(1126,0,l),
(1067,0,l),
(417,822,ls),
(377,873,o),
(341,919,o),
(310,959,c),
(278,998,o),
(253,1037,o),
(234,1076,cs),
(215,1114,o),
(206,1156,o),
(206,1203,cs),
(206,1261,o),
(220,1313,o),
(248,1360,cs),
(303,1452,o),
(401,1508,o),
(517,1508,cs),
(574,1508,o),
(626,1495,o),
(671,1470,cs),
(761,1418,o),
(817,1325,o),
(817,1209,cs),
(817,1160,o),
(807,1116,o),
(788,1077,cs),
(749,998,o),
(681,935,o),
(602,875,cs),
(388,714,ls),
(304,650,o),
(243,593,o),
(204,544,cs),
(165,494,o),
(145,436,o),
(145,371,cs),
(145,306,o),
(162,248,o),
(195,197,cs),
(261,94,o),
(379,29,o),
(520,29,cs),
(664,29,o),
(787,89,o),
(876,190,cs),
(965,291,o),
(1022,432,o),
(1034,595,c),
(1081,592,l),
(1078,543,o),
(1070,496,o),
(1058,449,cs),
(1034,356,o),
(996,272,o),
(947,203,cs),
(932,183,ls),
(888,126,o),
(831,79,o),
(761,40,cs),
(691,1,o),
(611,-18,o),
(520,-18,cs)
);
}
);
width = 1146;
}
);
unicode = 38;
}
{
glyphname = quotesingle;
layers = (
{
layerId = "30DB1A31-A6FD-462E-A165-656579CC7601";
shapes = (
{
closed = 1;
nodes = (
(192,853,l),
(156,1490,l),
(518,1490,l),
(482,853,l)
);
}
);
width = 674;
},
{
layerId = "9958C6BA-7FC1-41C8-B3E0-9B3AF71AFF69";
shapes = (
{
closed = 1;
nodes = (
(203,901,l),
(174,1490,l),
(449,1490,l),
(420,901,l)
);
}
);
width = 623;
},
{
layerId = "1B8D64CA-D7DF-4852-939C-A0B9329902C0";
shapes = (
{
closed = 1;
nodes = (
(214,954,l),
(193,1490,l),
(374,1490,l),
(353,954,l)
);
}
);
width = 567;
},
{
layerId = "B109C6DD-98CC-498D-964F-904F22F997F9";
shapes = (
{
closed = 1;
nodes = (
(183,1049,l),
(178,1490,l),
(228,1490,l),
(223,1049,l)
);
}
);
width = 406;
}
);
leftKerningGroup = quotedbl2;
rightKerningGroup = quotedbl;
unicode = 39;
}
{
glyphname = slash;
layers = (
{
layerId = "30DB1A31-A6FD-462E-A165-656579CC7601";
shapes = (
{
closed = 1;
nodes = (
(824,1560,l),
(344,-224,l),
(4,-224,l),
(484,1560,l)
);
}
);
width = 828;
},
{
layerId = "9958C6BA-7FC1-41C8-B3E0-9B3AF71AFF69";
shapes = (
{
closed = 1;
nodes = (
(751,1560,l),
(271,-224,l),
(16,-224,l),
(496,1560,l)
);
}
);
width = 768;
},
{
layerId = "1B8D64CA-D7DF-4852-939C-A0B9329902C0";
shapes = (
{
closed = 1;
nodes = (
(672,1560,l),
(192,-224,l),
(30,-224,l),
(510,1560,l)
);
}
);
width = 702;
},
{
layerId = "B109C6DD-98CC-498D-964F-904F22F997F9";
shapes = (
{
closed = 1;
nodes = (
(564,1560,l),
(84,-224,l),
(34,-224,l),
(514,1560,l)
);
}
);
width = 598;
}
);
unicode = 47;
}
{
glyphname = zero.tf;
layers = (
{
layerId = "30DB1A31-A6FD-462E-A165-656579CC7601";
shapes = (
{
closed = 1;
nodes = (
(525,-22,o),
(410,9,o),
(319,71,cs),
(135,194,o),
(44,425,o),
(44,744,cs),
(44,904,o),
(67,1042,o),
(113,1157,cs),
(204,1387,o),
(387,1512,o),
(662,1512,cs),
(800,1512,o),
(915,1481,o),
(1007,1420,cs),
(1190,1297,o),
(1280,1064,o),
(1280,744,cs),
(1280,585,o),
(1257,448,o),
(1212,334,cs),
(1121,105,o),
(939,-22,o),
(662,-22,cs)
);
},
{
closed = 1;
nodes = (
(715,302,o),
(757,318,o),
(789,351,cs),
(853,416,o),
(882,548,o),
(882,744,cs),
(882,843,o),
(875,926,o),
(860,992,cs),
(830,1123,o),
(767,1190,o),
(662,1190,cs),
(611,1190,o),
(569,1173,o),
(536,1140,cs),
(471,1073,o),
(442,943,o),
(442,744,cs),
(442,646,o),
(450,564,o),
(465,499,cs),
(495,367,o),
(559,302,o),
(662,302,cs)
);
}
);
width = 1324;
},
{
layerId = "9958C6BA-7FC1-41C8-B3E0-9B3AF71AFF69";
shapes = (
{
closed = 1;
nodes = (
(538,-22,o),
(433,9,o),
(347,71,cs),
(175,194,o),
(86,426,o),
(86,744,cs),
(86,904,o),
(108,1041,o),
(153,1156,cs),
(241,1386,o),
(413,1512,o),
(662,1512,cs),
(787,1512,o),
(892,1481,o),
(978,1420,cs),
(1149,1297,o),
(1238,1064,o),
(1238,744,cs),
(1238,585,o),
(1216,448,o),
(1172,334,cs),
(1085,105,o),
(912,-22,o),
(662,-22,cs)
);
},
{
closed = 1;
nodes = (
(726,225,o),
(778,245,o),
(820,285,cs),
(903,365,o),
(946,521,o),
(946,744,cs),
(946,856,o),
(936,952,o),
(915,1029,cs),
(872,1184,o),
(788,1267,o),
(662,1267,cs),
(600,1267,o),
(548,1246,o),
(505,1206,cs),
(421,1125,o),
(378,970,o),
(378,744,cs),
(378,633,o),
(389,538,o),
(410,461,cs),
(452,306,o),
(537,225,o),
(662,225,cs)
);
}
);
width = 1324;
},
{
anchors = (
{
name = m.uni0302_1;
position = "{662, 1490}";
}
);
layerId = "1B8D64CA-D7DF-4852-939C-A0B9329902C0";
shapes = (
{
closed = 1;
nodes = (
(552,-22,o),
(457,9,o),
(378,71,cs),
(219,194,o),
(132,427,o),
(132,744,cs),
(132,903,o),
(153,1040,o),
(196,1155,cs),
(281,1384,o),
(442,1512,o),
(662,1512,cs),
(772,1512,o),
(867,1481,o),
(946,1420,cs),
(1105,1296,o),
(1192,1063,o),
(1192,744,cs),
(1192,585,o),
(1171,449,o),
(1129,335,cs),
(1045,106,o),
(883,-22,o),
(662,-22,cs)
);
},
{
closed = 1;
nodes = (
(737,141,o),
(800,165,o),
(853,213,cs),
(958,309,o),
(1016,492,o),
(1016,744,cs),
(1016,871,o),
(1002,980,o),
(974,1070,cs),
(918,1250,o),
(811,1350,o),
(662,1350,cs),
(588,1350,o),
(525,1326,o),
(472,1278,cs),
(366,1181,o),
(308,999,o),
(308,744,cs),
(308,618,o),
(322,510,o),
(350,420,cs),
(406,240,o),
(514,141,o),
(662,141,cs)
);
}
);
width = 1324;
},
{
layerId = "B109C6DD-98CC-498D-964F-904F22F997F9";
shapes = (
{
closed = 1;
nodes = (
(567,-18,o),
(483,14,o),
(410,77,cs),
(265,204,o),
(181,439,o),
(181,744,cs),
(181,899,o),
(201,1033,o),
(241,1148,cs),
(321,1376,o),
(470,1508,o),
(663,1508,cs),
(760,1508,o),
(844,1477,o),
(916,1414,cs),
(1060,1288,o),
(1143,1053,o),
(1143,744,cs),
(1143,591,o),
(1123,458,o),
(1084,344,cs),
(1004,115,o),
(856,-18,o),
(663,-18,cs)
);
},
{
closed = 1;
nodes = (
(751,28,o),
(827,58,o),
(892,117,cs),
(1021,235,o),
(1097,455,o),
(1097,744,cs),
(1097,890,o),
(1079,1017,o),
(1043,1124,cs),
(971,1339,o),
(839,1463,o),
(663,1463,cs),
(576,1463,o),
(500,1433,o),
(435,1374,cs),
(303,1255,o),
(227,1036,o),
(227,744,cs),
(227,599,o),
(245,473,o),
(282,366,cs),
(354,151,o),
(490,28,o),
(663,28,cs)
);
}
);
width = 1324;
}
);
unicode = (48,57457);
}
{
glyphname = one.tf.ss01;
layers = (
{
layerId = "30DB1A31-A6FD-462E-A165-656579CC7601";
shapes = (
{
closed = 1;
nodes = (
(504,0,l),
(504,1018,l),
(525,930,l),
(178,929,l),
(178,1236,l),
(248,1236,ls),
(453,1236,o),
(556,1315,o),
(558,1473,c),
(558,1489,l),
(905,1489,l),
(905,0,l)
);
},
{
closed = 1;
nodes = (
(156,0,l),
(156,322,l),
(1211,322,l),
(1211,0,l)
);
}
);
width = 1324;
},
{
layerId = "9958C6BA-7FC1-41C8-B3E0-9B3AF71AFF69";
shapes = (
{
closed = 1;
nodes = (
(555,0,l),
(555,1110,l),
(581,1020,l),
(207,1019,l),
(207,1251,l),
(309,1251,ls),
(491,1251,o),
(582,1319,o),
(583,1457,c),
(583,1489,l),
(850,1489,l),
(850,0,l)
);
},
{
closed = 1;
nodes = (
(188,0,l),
(188,244,l),
(1179,244,l),
(1179,0,l)
);
}
);
width = 1324;
},
{
layerId = "1B8D64CA-D7DF-4852-939C-A0B9329902C0";
shapes = (
{
closed = 1;
nodes = (
(611,0,l),
(611,1210,l),
(641,1117,l),
(239,1117,l),
(239,1267,l),
(375,1267,ls),
(532,1267,o),
(611,1324,o),
(611,1439,cs),
(611,1490,l),
(791,1490,l),
(791,0,l)
);
},
{
closed = 1;
nodes = (
(223,0,l),
(223,160,l),
(1144,160,l),
(1144,0,l)
);
}
);
width = 1324;
},
{
layerId = "B109C6DD-98CC-498D-964F-904F22F997F9";
shapes = (
{
closed = 1;
nodes = (
(656,0,l),
(656,1205,l),
(662,1199,l),
(269,1199,l),
(269,1244,l),
(510,1244,ls),
(611,1244,o),
(661,1306,o),
(661,1430,cs),
(661,1490,l),
(702,1490,l),
(702,0,l)
);
},
{
closed = 1;
nodes = (
(253,0,l),
(253,46,l),
(1070,46,l),
(1070,0,l)
);
}
);
width = 1324;
}
);
unicode = (49,57458,57468);
}
{
glyphname = at;
layers = (
{
layerId = "1EC723AD-C41F-43E3-B68D-B2A779A308DC";
shapes = (
{
closed = 1;
nodes = (
(763,-456,o),
(509,-365,o),
(331,-197,cs),
(153,-29,o),
(55,214,o),
(55,517,cs),
(55,813,o),
(148,1061,o),
(324,1238,cs),
(499,1414,o),
(755,1514,o),
(1080,1514,cs),
(1385,1514,o),
(1636,1426,o),
(1813,1267,cs),
(1990,1107,o),
(2089,881,o),
(2089,601,cs),
(2089,410,o),
(2043,262,o),
(1959,161,cs),
(1875,60,o),
(1756,6,o),
(1608,6,cs),
(1557,6,o),
(1512,12,o),
(1474,25,cs),
(1397,50,o),
(1349,100,o),
(1336,167,c),
(1332,167,l),
(1315,120,o),
(1279,81,o),
(1224,51,cs),
(1169,21,o),
(1101,6,o),
(1019,6,cs),
(924,6,o),
(841,27,o),
(771,70,cs),
(701,112,o),
(647,172,o),
(608,249,cs),
(569,326,o),
(550,418,o),
(550,524,cs),
(550,635,o),
(571,729,o),
(612,806,cs),
(653,883,o),
(708,942,o),
(779,982,cs),
(849,1022,o),
(927,1042,o),
(1014,1042,cs),
(1081,1042,o),
(1140,1031,o),
(1191,1009,cs),
(1242,986,o),
(1277,955,o),
(1296,914,c),
(1303,914,l),
(1303,1020,l),
(1555,1020,l),
(1555,332,ls),
(1555,305,o),
(1560,287,o),
(1569,278,cs),
(1578,269,o),
(1591,265,o),
(1608,265,cs),
(1643,265,o),
(1672,277,o),
(1696,302,cs),
(1743,351,o),
(1770,448,o),
(1770,581,cs),
(1770,788,o),
(1709,947,o),
(1595,1053,cs),
(1481,1159,o),
(1315,1213,o),
(1103,1213,cs),
(871,1213,o),
(692,1149,o),
(569,1030,cs),
(445,910,o),
(382,738,o),
(382,526,cs),
(382,311,o),
(446,141,o),
(570,24,cs),
(693,-93,o),
(871,-154,o),
(1099,-154,cs),
(1160,-154,o),
(1217,-150,o),
(1270,-142,cs),
(1377,-126,o),
(1462,-99,o),
(1518,-75,c),
(1629,-346,l),
(1596,-362,o),
(1553,-379,o),
(1500,-396,cs),
(1395,-431,o),
(1254,-456,o),
(1082,-456,cs)
);
},
{
closed = 1;
nodes = (
(1104,286,o),
(1143,295,o),
(1176,314,cs),
(1240,351,o),
(1274,424,o),
(1274,524,cs),
(1274,575,o),
(1266,617,o),
(1249,652,cs),
(1216,721,o),
(1151,759,o),
(1058,759,cs),
(1011,759,o),
(972,750,o),
(939,732,cs),
(873,695,o),
(837,625,o),
(837,525,cs),
(837,474,o),
(846,431,o),
(863,396,cs),
(898,325,o),
(964,286,o),
(1059,286,cs)
);
}
);
width = 2144;
},
{
layerId = "2F0A8C87-DA84-48CB-8FDB-683796859A95";
shapes = (
{
closed = 1;
nodes = (
(754,-428,o),
(512,-338,o),
(343,-174,cs),
(173,-9,o),
(79,228,o),
(79,521,cs),
(79,809,o),
(171,1049,o),
(339,1218,cs),
(507,1388,o),
(749,1482,o),
(1051,1482,cs),
(1338,1482,o),
(1571,1392,o),
(1735,1235,cs),
(1898,1077,o),
(1989,859,o),
(1989,599,cs),
(1989,426,o),
(1954,283,o),
(1884,180,cs),
(1813,78,o),
(1708,19,o),
(1563,19,cs),
(1512,19,o),
(1468,26,o),
(1430,41,c),
(1353,69,o),
(1305,123,o),
(1293,187,c),
(1289,187,l),
(1271,141,o),
(1237,102,o),
(1187,70,cs),
(1136,38,o),
(1071,22,o),
(991,22,cs),
(900,22,o),
(821,43,o),
(755,87,cs),
(689,131,o),
(639,190,o),
(603,266,cs),
(568,342,o),
(550,430,o),
(550,528,cs),
(550,630,o),
(570,718,o),
(609,793,cs),
(648,867,o),
(701,925,o),
(768,966,cs),
(835,1006,o),
(910,1027,o),
(993,1027,cs),
(1060,1027,o),
(1117,1015,o),
(1164,992,cs),
(1211,968,o),
(1244,939,o),
(1263,904,c),
(1270,904,l),
(1270,1004,l),
(1477,1004,l),
(1477,332,ls),
(1477,296,o),
(1485,269,o),
(1500,251,cs),
(1515,233,o),
(1537,224,o),
(1567,224,cs),
(1608,224,o),
(1641,238,o),
(1668,265,c),
(1719,319,o),
(1746,429,o),
(1746,587,cs),
(1746,791,o),
(1684,958,o),
(1568,1075,cs),
(1451,1191,o),
(1280,1254,o),
(1061,1254,cs),
(830,1254,o),
(648,1186,o),
(523,1060,cs),
(397,933,o),
(331,750,o),
(331,525,cs),
(331,298,o),
(397,116,o),
(524,-9,cs),
(651,-133,o),
(834,-200,o),
(1067,-200,cs),
(1127,-200,o),
(1183,-195,o),
(1235,-187,cs),
(1341,-169,o),
(1425,-141,o),
(1478,-121,c),
(1558,-330,l),
(1527,-344,o),
(1486,-359,o),
(1436,-374,cs),
(1336,-405,o),
(1206,-428,o),
(1057,-428,cs)
);
},
{
closed = 1;
nodes = (
(1071,240,o),
(1116,251,o),
(1152,274,cs),
(1223,318,o),
(1258,405,o),
(1258,530,cs),
(1258,593,o),
(1249,644,o),
(1231,685,cs),
(1194,767,o),
(1123,807,o),
(1019,807,cs),
(968,807,o),
(925,796,o),
(889,773,cs),
(817,728,o),
(777,644,o),
(777,530,cs),
(777,472,o),
(787,421,o),
(805,378,cs),
(841,291,o),
(912,240,o),
(1019,240,cs)
);
}
);
width = 2068;
},
{
layerId = "545E045A-B28D-42BD-AE6C-2FB63E8B3292";
shapes = (
{
closed = 1;
nodes = (
(745,-398,o),
(515,-309,o),
(355,-149,cs),
(194,12,o),
(106,243,o),
(106,526,cs),
(106,805,o),
(195,1035,o),
(355,1197,cs),
(515,1359,o),
(742,1448,o),
(1019,1448,cs),
(1287,1448,o),
(1501,1356,o),
(1650,1201,cs),
(1799,1045,o),
(1880,835,o),
(1880,596,cs),
(1880,444,o),
(1858,305,o),
(1802,201,cs),
(1746,97,o),
(1655,33,o),
(1515,33,cs),
(1464,33,o),
(1420,41,o),
(1382,58,c),
(1305,90,o),
(1257,148,o),
(1246,209,c),
(1242,209,l),
(1224,164,o),
(1192,124,o),
(1146,90,cs),
(1100,56,o),
(1038,39,o),
(961,39,cs),
(873,39,o),
(799,61,o),
(738,106,cs),
(677,151,o),
(630,210,o),
(598,285,cs),
(566,360,o),
(550,442,o),
(550,532,cs),
(550,624,o),
(569,706,o),
(606,778,cs),
(643,850,o),
(693,907,o),
(757,948,cs),
(820,989,o),
(892,1010,o),
(971,1010,cs),
(1037,1010,o),
(1092,998,o),
(1135,973,cs),
(1178,948,o),
(1209,921,o),
(1228,893,c),
(1234,893,l),
(1234,986,l),
(1393,986,l),
(1393,332,ls),
(1393,287,o),
(1404,250,o),
(1426,222,cs),
(1447,194,o),
(1479,180,o),
(1522,180,cs),
(1570,180,o),
(1608,195,o),
(1637,225,cs),
(1694,285,o),
(1720,408,o),
(1720,593,cs),
(1720,794,o),
(1657,970,o),
(1538,1098,cs),
(1418,1225,o),
(1243,1299,o),
(1016,1299,cs),
(785,1299,o),
(601,1227,o),
(473,1092,cs),
(344,957,o),
(275,764,o),
(275,524,cs),
(275,283,o),
(343,89,o),
(474,-44,cs),
(605,-177,o),
(793,-249,o),
(1033,-249,cs),
(1091,-249,o),
(1146,-244,o),
(1198,-235,cs),
(1301,-215,o),
(1385,-187,o),
(1434,-170,c),
(1481,-313,l),
(1452,-324,o),
(1414,-337,o),
(1367,-350,cs),
(1272,-377,o),
(1153,-398,o),
(1030,-398,cs)
);
},
{
closed = 1;
nodes = (
(1036,191,o),
(1086,204,o),
(1125,230,cs),
(1204,282,o),
(1241,385,o),
(1241,536,cs),
(1241,612,o),
(1231,674,o),
(1211,721,cs),
(1171,816,o),
(1093,859,o),
(977,859,cs),
(922,859,o),
(874,845,o),
(835,818,cs),
(756,763,o),
(713,664,o),
(713,536,cs),
(713,469,o),
(723,410,o),
(742,358,cs),
(780,254,o),
(856,191,o),
(975,191,cs)
);
}
);
width = 1986;
},
{
layerId = "9DE19B50-AF62-41B5-96CD-C828EA777CBB";
shapes = (
{
closed = 1;
nodes = (
(741,-390,o),
(526,-290,o),
(368,-123,cs),
(210,45,o),
(116,271,o),
(116,523,cs),
(116,776,o),
(210,1002,o),
(368,1170,cs),
(526,1337,o),
(741,1437,o),
(986,1437,cs),
(1230,1437,o),
(1446,1337,o),
(1604,1170,cs),
(1762,1002,o),
(1854,776,o),
(1854,523,cs),
(1854,386,o),
(1819,270,o),
(1758,187,cs),
(1697,103,o),
(1610,56,o),
(1506,56,cs),
(1463,56,o),
(1429,64,o),
(1403,80,cs),
(1350,111,o),
(1326,179,o),
(1326,288,c),
(1323,288,l),
(1291,213,o),
(1245,153,o),
(1185,108,cs),
(1125,63,o),
(1054,40,o),
(972,40,cs),
(893,40,o),
(822,62,o),
(760,105,cs),
(697,148,o),
(648,206,o),
(612,279,cs),
(576,352,o),
(558,434,o),
(558,524,cs),
(558,613,o),
(576,695,o),
(612,768,cs),
(648,841,o),
(697,899,o),
(760,942,cs),
(822,985,o),
(893,1006,o),
(972,1006,cs),
(1054,1006,o),
(1125,984,o),
(1185,939,cs),
(1245,894,o),
(1291,834,o),
(1322,758,c),
(1326,758,l),
(1326,989,l),
(1372,989,l),
(1372,288,ls),
(1372,218,o),
(1382,170,o),
(1402,143,cs),
(1421,116,o),
(1456,102,o),
(1505,102,cs),
(1566,102,o),
(1619,120,o),
(1664,155,cs),
(1755,225,o),
(1809,356,o),
(1809,523,cs),
(1809,766,o),
(1720,981,o),
(1569,1139,cs),
(1418,1297,o),
(1215,1391,o),
(986,1391,cs),
(757,1391,o),
(553,1298,o),
(402,1139,cs),
(251,980,o),
(163,765,o),
(163,524,cs),
(163,281,o),
(251,67,o),
(402,-92,cs),
(553,-251,o),
(757,-344,o),
(986,-344,cs),
(1041,-344,o),
(1094,-339,o),
(1147,-328,cs),
(1251,-307,o),
(1349,-266,o),
(1437,-206,c),
(1463,-245,l),
(1417,-276,o),
(1368,-302,o),
(1317,-324,cs),
(1213,-367,o),
(1102,-390,o),
(986,-390,cs)
);
},
{
closed = 1;
nodes = (
(1042,86,o),
(1104,105,o),
(1157,144,cs),
(1264,221,o),
(1326,359,o),
(1326,524,cs),
(1326,606,o),
(1311,680,o),
(1281,746,cs),
(1221,877,o),
(1112,960,o),
(972,960,cs),
(902,960,o),
(839,941,o),
(784,902,cs),
(673,824,o),
(604,687,o),
(604,524,cs),
(604,443,o),
(620,369,o),
(653,303,cs),
(717,170,o),
(832,86,o),
(972,86,cs)
);
}
);
width = 1970;
}
);
leftKerningGroup = C2;
rightKerningGroup = D;
unicode = 64;
}
{
glyphname = A;
layers = (
{
anchors = (
{
name = m.uni0347;
position = "{797, 0}";
},
{
name = m.uni0302_1;
position = "{797, 1490}";
},
{
name = m.uni0328_4;
position = "{1574, 0}";
}
);
layerId = "1EC723AD-C41F-43E3-B68D-B2A779A308DC";
shapes = (
{
closed = 1;
nodes = (
(23,0,l),
(515,1490,l),
(1071,1490,l),
(1574,0,l),
(1111,0,l),
(941,578,ls),
(904,704,o),
(869,831,o),
(836,960,cs),
(803,1089,o),
(771,1219,o),
(740,1352,c),
(842,1352,l),
(811,1219,o),
(780,1089,o),
(749,960,cs),
(717,831,o),
(683,704,o),
(646,578,cs),
(477,0,l)
);
},
{
closed = 1;
nodes = (
(389,266,l),
(389,577,l),
(1209,577,l),
(1209,266,l)
);
}
);
width = 1597;
},
{
anchors = (
{
name = m.uni0347;
position = "{797, 0}";
},
{
name = m.uni0302_1;
position = "{797, 1490}";
},
{
name = m.uni0328_4;
position = "{1574, 0}";
}
);
layerId = "2F0A8C87-DA84-48CB-8FDB-683796859A95";
shapes = (
{
closed = 1;
nodes = (
(29,0,l),
(547,1490,l),
(938,1490,l),
(1462,0,l),
(1127,0,l),
(887,728,ls),
(858,821,o),
(829,920,o),
(800,1025,cs),
(770,1130,o),
(738,1247,o),
(704,1376,c),
(778,1376,l),
(744,1246,o),
(713,1129,o),
(684,1024,cs),
(655,919,o),
(626,820,o),
(598,728,c),
(359,0,l)
);
},
{
closed = 1;
nodes = (
(353,338,l),
(353,578,l),
(1138,578,l),
(1138,338,l)
);
}
);
width = 1491;
},
{
anchors = (
{
name = m.uni0347;
position = "{797, 0}";
},
{
name = m.uni0302_1;
position = "{797, 1490}";
},
{
name = m.uni0328_4;
position = "{1574, 0}";
}
);
layerId = "545E045A-B28D-42BD-AE6C-2FB63E8B3292";
shapes = (
{
closed = 1;
nodes = (
(36,0,l),
(582,1490,l),
(794,1490,l),
(1340,0,l),
(1144,0,l),
(829,891,ls),
(809,948,o),
(786,1017,o),
(761,1096,cs),
(735,1175,o),
(703,1277,o),
(665,1402,c),
(709,1402,l),
(672,1276,o),
(640,1173,o),
(614,1094,cs),
(588,1014,o),
(565,946,o),
(546,891,cs),
(231,0,l)
);
},
{
closed = 1;
nodes = (
(314,417,l),
(314,580,l),
(1062,580,l),
(1062,417,l)
);
}
);
width = 1376;
},
{
anchors = (
{
name = m.uni0347;
position = "{740, 0}";
},
{
name = m.uni0302_1;
position = "{740, 1490}";
},
{
name = m.uni0328_4;
position = "{1456, 0}";
}
);
layerId = "9DE19B50-AF62-41B5-96CD-C828EA777CBB";
shapes = (
{
closed = 1;
nodes = (
(43,0,l),
(601,1490,l),
(664,1490,l),
(1222,0,l),
(1173,0,l),
(740,1154,ls),
(720,1208,o),
(700,1262,o),
(681,1315,cs),
(661,1368,o),
(641,1422,o),
(622,1475,c),
(640,1475,l),
(621,1422,o),
(602,1368,o),
(583,1315,cs),
(563,1262,o),
(543,1208,o),
(523,1154,cs),
(92,0,l)
);
},
{
closed = 1;
nodes = (
(263,494,l),
(263,540,l),
(1002,540,l),
(1002,494,l)
);
}
);
width = 1265;
}
);
leftKerningGroup = A2;
rightKerningGroup = A;
unicode = 65;
}
{
glyphname = C;
layers = (
{
anchors = (
{
name = m.uni0302_1;
position = "{774, 1490}";
},
{
name = m.uni0327_3;
position = "{765, 7}";
}
);
layerId = "30DB1A31-A6FD-462E-A165-656579CC7601";
shapes = (
{
closed = 1;
nodes = (
(641,-22,o),
(519,8,o),
(410,67,cs),
(301,126,o),
(214,212,o),
(151,326,cs),
(87,440,o),
(55,579,o),
(55,744,cs),
(55,911,o),
(87,1051,o),
(152,1166,cs),
(216,1280,o),
(303,1366,o),
(412,1425,cs),
(521,1483,o),
(642,1512,o),
(776,1512,cs),
(964,1512,o),
(1125,1458,o),
(1245,1359,cs),
(1365,1259,o),
(1441,1115,o),
(1461,938,c),
(1046,938,l),
(1037,1005,o),
(1007,1060,o),
(964,1098,cs),
(920,1136,o),
(859,1156,o),
(786,1156,cs),
(719,1156,o),
(663,1140,o),
(616,1108,cs),
(569,1075,o),
(534,1028,o),
(510,967,cs),
(486,906,o),
(474,831,o),
(474,744,cs),
(474,656,o),
(486,581,o),
(510,520,cs),
(534,459,o),
(569,412,o),
(616,381,cs),
(662,350,o),
(718,334,o),
(785,334,cs),
(858,334,o),
(917,356,o),
(962,394,cs),
(1007,432,o),
(1036,485,o),
(1047,553,c),
(1462,553,l),
(1446,401,o),
(1377,260,o),
(1261,153,cs),
(1144,45,o),
(981,-22,o),
(776,-22,cs)
);
}
);
width = 1513;
},
{
anchors = (
{
name = m.uni0302_1;
position = "{774, 1490}";
},
{
name = m.uni0327_3;
position = "{765, 7}";
}
);
layerId = "9958C6BA-7FC1-41C8-B3E0-9B3AF71AFF69";
shapes = (
{
closed = 1;
nodes = (
(645,-22,o),
(525,9,o),
(420,70,cs),
(314,131,o),
(231,219,o),
(171,334,cs),
(110,448,o),
(79,585,o),
(79,744,cs),
(79,905,o),
(110,1043,o),
(171,1158,cs),
(232,1272,o),
(315,1360,o),
(421,1421,cs),
(526,1482,o),
(645,1512,o),
(778,1512,cs),
(950,1512,o),
(1100,1462,o),
(1214,1369,cs),
(1328,1275,o),
(1403,1141,o),
(1426,975,c),
(1121,975,l),
(1105,1060,o),
(1064,1128,o),
(1006,1174,cs),
(948,1220,o),
(871,1244,o),
(784,1244,cs),
(702,1244,o),
(632,1224,o),
(572,1185,cs),
(512,1145,o),
(466,1088,o),
(434,1013,cs),
(402,939,o),
(385,848,o),
(385,744,cs),
(385,640,o),
(402,550,o),
(434,476,cs),
(466,401,o),
(512,344,o),
(572,305,cs),
(632,266,o),
(702,246,o),
(783,246,cs),
(870,246,o),
(945,271,o),
(1005,317,cs),
(1064,363,o),
(1105,430,o),
(1121,516,c),
(1427,516,l),
(1406,363,o),
(1334,231,o),
(1223,133,cs),
(1110,35,o),
(959,-22,o),
(778,-22,cs)
);
}
);
width = 1501;
},
{
anchors = (
{
name = m.uni0302_1;
position = "{774, 1490}";
},
{
name = m.uni0327_3;
position = "{765, 7}";
}
);
layerId = "1B8D64CA-D7DF-4852-939C-A0B9329902C0";
shapes = (
{
closed = 1;
nodes = (
(649,-22,o),
(532,10,o),
(431,74,cs),
(329,137,o),
(249,227,o),
(192,342,cs),
(135,457,o),
(106,591,o),
(106,744,cs),
(106,899,o),
(135,1034,o),
(192,1149,cs),
(249,1264,o),
(329,1353,o),
(431,1417,cs),
(532,1480,o),
(649,1512,o),
(781,1512,cs),
(934,1512,o),
(1072,1466,o),
(1180,1379,cs),
(1288,1292,o),
(1361,1170,o),
(1389,1015,c),
(1202,1015,l),
(1179,1120,o),
(1126,1201,o),
(1052,1257,cs),
(978,1312,o),
(884,1340,o),
(781,1340,cs),
(684,1340,o),
(599,1316,o),
(525,1268,cs),
(451,1220,o),
(393,1152,o),
(352,1063,cs),
(310,974,o),
(289,867,o),
(289,744,cs),
(289,622,o),
(310,517,o),
(352,428,cs),
(393,339,o),
(451,270,o),
(525,222,cs),
(599,174,o),
(684,150,o),
(781,150,cs),
(884,150,o),
(976,179,o),
(1051,234,cs),
(1126,289,o),
(1179,370,o),
(1202,475,c),
(1389,475,l),
(1362,322,o),
(1288,199,o),
(1181,112,cs),
(1073,25,o),
(936,-22,o),
(781,-22,cs)
);
}
);
width = 1488;
},
{
anchors = (
{
name = m.uni0302_1;
position = "{738, 1490}";
},
{
name = m.uni0327_3;
position = "{729, 13}";
}
);
layerId = "B109C6DD-98CC-498D-964F-904F22F997F9";
shapes = (
{
closed = 1;
nodes = (
(613,-18,o),
(505,14,o),
(412,78,cs),
(319,141,o),
(246,230,o),
(194,345,cs),
(142,459,o),
(116,592,o),
(116,744,cs),
(116,897,o),
(142,1031,o),
(195,1146,cs),
(247,1260,o),
(320,1349,o),
(413,1413,cs),
(506,1476,o),
(613,1508,o),
(734,1508,cs),
(909,1508,o),
(1042,1443,o),
(1137,1346,cs),
(1232,1249,o),
(1285,1132,o),
(1305,1025,c),
(1258,1025,l),
(1238,1128,o),
(1184,1235,o),
(1097,1320,cs),
(1010,1405,o),
(889,1462,o),
(734,1462,cs),
(633,1462,o),
(539,1435,o),
(452,1380,cs),
(365,1325,o),
(296,1244,o),
(243,1137,cs),
(190,1030,o),
(163,899,o),
(163,744,cs),
(163,589,o),
(189,458,o),
(242,351,cs),
(295,244,o),
(364,164,o),
(451,110,cs),
(538,55,o),
(632,28,o),
(734,28,cs),
(889,28,o),
(1009,86,o),
(1097,172,cs),
(1184,258,o),
(1238,364,o),
(1257,467,c),
(1305,467,l),
(1285,362,o),
(1230,243,o),
(1137,146,cs),
(1044,49,o),
(910,-18,o),
(734,-18,cs)
);
}
);
width = 1417;
}
);
leftKerningGroup = C2;
rightKerningGroup = C;
unicode = 67;
}
{
glyphname = D;
layers = (
{
anchors = (
{
name = m.uni0347;
position = "{670, 0}";
},
{
name = m.uni0302_1;
position = "{591, 1490}";
}
);
layerId = "30DB1A31-A6FD-462E-A165-656579CC7601";
shapes = (
{
closed = 1;
nodes = (
(259,0,l),
(259,344,l),
(649,344,ls),
(726,344,o),
(791,357,o),
(844,384,cs),
(948,436,o),
(1000,552,o),
(1000,744,cs),
(1000,842,o),
(987,921,o),
(960,980,cs),
(906,1098,o),
(798,1146,o),
(637,1146,cs),
(253,1146,l),
(253,1490,l),
(660,1490,ls),
(814,1490,o),
(947,1460,o),
(1060,1400,cs),
(1284,1279,o),
(1413,1051,o),
(1413,744,cs),
(1413,591,o),
(1383,459,o),
(1322,348,cs),
(1200,125,o),
(971,0,o),
(667,0,cs)
);
},
{
closed = 1;
nodes = (
(498,1490,l),
(498,0,l),
(88,0,l),
(88,1490,l)
);
}
);
width = 1468;
},
{
anchors = (
{
name = m.uni0347;
position = "{670, 0}";
},
{
name = m.uni0302_1;
position = "{591, 1490}";
}
);
layerId = "9958C6BA-7FC1-41C8-B3E0-9B3AF71AFF69";
shapes = (
{
closed = 1;
nodes = (
(263,0,l),
(263,258,l),
(633,258,ls),
(731,258,o),
(814,276,o),
(880,312,cs),
(1011,385,o),
(1075,530,o),
(1075,746,cs),
(1075,854,o),
(1059,945,o),
(1027,1017,cs),
(961,1161,o),
(831,1232,o),
(636,1232,cs),
(256,1232,l),
(256,1490,l),
(653,1490,ls),
(803,1490,o),
(932,1460,o),
(1040,1400,cs),
(1256,1280,o),
(1377,1053,o),
(1377,746,cs),
(1377,592,o),
(1348,459,o),
(1290,348,cs),
(1173,125,o),
(951,0,o),
(648,0,cs)
);
},
{
closed = 1;
nodes = (
(426,1490,l),
(426,0,l),
(124,0,l),
(124,1490,l)
);
}
);
width = 1457;
},
{
anchors = (
{
name = m.uni0347;
position = "{670, 0}";
},
{
name = m.uni0302_1;
position = "{591, 1490}";
}
);
layerId = "1B8D64CA-D7DF-4852-939C-A0B9329902C0";
shapes = (
{
closed = 1;
nodes = (
(268,0,l),
(268,164,l),
(615,164,ls),
(737,164,o),
(838,188,o),
(919,235,cs),
(1079,329,o),
(1157,507,o),
(1157,748,cs),
(1157,868,o),
(1138,971,o),
(1099,1058,cs),
(1021,1230,o),
(866,1326,o),
(634,1326,cs),
(260,1326,l),
(260,1490,l),
(646,1490,ls),
(791,1490,o),
(916,1460,o),
(1019,1401,cs),
(1225,1282,o),
(1339,1056,o),
(1339,748,cs),
(1339,593,o),
(1311,459,o),
(1256,348,cs),
(1144,124,o),
(930,0,o),
(627,0,cs)
);
},
{
closed = 1;
nodes = (
(349,1490,l),
(349,0,l),
(164,0,l),
(164,1490,l)
);
}
);
width = 1445;
},
{
anchors = (
{
name = m.uni0347;
position = "{619, 0}";
},
{
name = m.uni0302_1;
position = "{590, 1490}";
}
);
layerId = "B109C6DD-98CC-498D-964F-904F22F997F9";
shapes = (
{
closed = 1;
nodes = (
(225,0,l),
(225,46,l),
(591,46,ls),
(728,46,o),
(845,74,o),
(942,131,cs),
(1135,243,o),
(1236,458,o),
(1236,750,cs),
(1236,896,o),
(1212,1021,o),
(1165,1124,cs),
(1069,1331,o),
(886,1444,o),
(629,1444,cs),
(225,1444,l),
(225,1490,l),
(628,1490,ls),
(766,1490,o),
(884,1461,o),
(981,1402,cs),
(1175,1284,o),
(1282,1059,o),
(1282,750,cs),
(1282,592,o),
(1255,457,o),
(1201,345,cs),
(1092,121,o),
(882,0,o),
(591,0,cs)
);
},
{
closed = 1;
nodes = (
(246,1490,l),
(246,0,l),
(200,0,l),
(200,1490,l)
);
}
);
width = 1398;
}
);
leftKerningGroup = B2;
rightKerningGroup = D;
unicode = 68;
}
{
glyphname = F;
layers = (
{
anchors = (
{
name = m.uni0347;
position = "{294, 0}";
},
{
name = m.uni0302_1;
position = "{630, 1490}";
}
);
layerId = "30DB1A31-A6FD-462E-A165-656579CC7601";
shapes = (
{
closed = 1;
nodes = (
(88,0,l),
(88,1490,l),
(1172,1490,l),
(1172,1151,l),
(498,1151,l),
(498,852,l),
(1120,852,l),
(1120,524,l),
(498,524,l),
(498,0,l)
);
}
);
width = 1218;
},
{
anchors = (
{
name = m.uni0347;
position = "{294, 0}";
},
{
name = m.uni0302_1;
position = "{630, 1490}";
}
);
layerId = "9958C6BA-7FC1-41C8-B3E0-9B3AF71AFF69";
shapes = (
{
closed = 1;
nodes = (
(124,0,l),
(124,1490,l),
(1129,1490,l),
(1129,1235,l),
(426,1235,l),
(426,840,l),
(1072,840,l),
(1072,591,l),
(426,591,l),
(426,0,l)
);
}
);
width = 1196;
},
{
anchors = (
{
name = m.uni0347;
position = "{294, 0}";
},
{
name = m.uni0302_1;
position = "{630, 1490}";
}
);
layerId = "1B8D64CA-D7DF-4852-939C-A0B9329902C0";
shapes = (
{
closed = 1;
nodes = (
(164,0,l),
(164,1490,l),
(1083,1490,l),
(1083,1326,l),
(349,1326,l),
(349,828,l),
(1019,828,l),
(1019,664,l),
(349,664,l),
(349,0,l)
);
}
);
width = 1172;
},
{
anchors = (
{
name = m.uni0347;
position = "{261, 0}";
},
{
name = m.uni0302_1;
position = "{622, 1490}";
}
);
layerId = "B109C6DD-98CC-498D-964F-904F22F997F9";
shapes = (
{
closed = 1;
nodes = (
(200,0,l),
(200,1490,l),
(1030,1490,l),
(1030,1444,l),
(246,1444,l),
(246,777,l),
(948,777,l),
(948,731,l),
(246,731,l),
(246,0,l)
);
}
);
width = 1143;
}
);
leftKerningGroup = B2;
rightKerningGroup = F;
unicode = 70;
}
{
glyphname = G.1;
layers = (
{
anchors = (
{
name = m.uni0347;
position = "{768, 0}";
},
{
name = m.uni0302_1;
position = "{772, 1490}";
}
);
layerId = "1EC723AD-C41F-43E3-B68D-B2A779A308DC";
shapes = (
{
closed = 1;
nodes = (
(610,-22,o),
(496,9,o),
(393,72,cs),
(290,134,o),
(208,222,o),
(147,337,cs),
(86,452,o),
(55,587,o),
(55,743,cs),
(55,908,o),
(88,1048,o),
(153,1163,cs),
(218,1278,o),
(305,1365,o),
(415,1424,cs),
(525,1483,o),
(647,1512,o),
(781,1512,cs),
(961,1512,o),
(1119,1460,o),
(1239,1367,cs),
(1359,1274,o),
(1436,1144,o),
(1451,988,c),
(1035,988,l),
(1023,1040,o),
(997,1083,o),
(957,1112,cs),
(916,1141,o),
(862,1156,o),
(794,1156,cs),
(725,1156,o),
(667,1140,o),
(620,1108,cs),
(524,1044,o),
(474,921,o),
(474,746,cs),
(474,659,o),
(486,584,o),
(511,523,cs),
(535,462,o),
(571,415,o),
(620,383,cs),
(668,350,o),
(728,334,o),
(800,334,cs),
(857,334,o),
(906,343,o),
(946,361,cs),
(1025,397,o),
(1068,461,o),
(1068,548,c),
(1209,548,l),
(1209,449,ls),
(1209,301,o),
(1167,183,o),
(1085,103,cs),
(1003,22,o),
(884,-22,o),
(735,-22,cs)
);
},
{
closed = 1;
nodes = (
(1216,0,l),
(1166,336,l),
(1166,540,l),
(798,540,l),
(798,832,l),
(1466,832,l),
(1466,0,l)
);
}
);
width = 1547;
},
{
anchors = (
{
name = m.uni0347;
position = "{768, 0}";
},
{
name = m.uni0302_1;
position = "{772, 1490}";
}
);
layerId = "2F0A8C87-DA84-48CB-8FDB-683796859A95";
shapes = (
{
closed = 1;
nodes = (
(626,-22,o),
(511,9,o),
(410,73,cs),
(308,136,o),
(228,225,o),
(169,340,cs),
(110,455,o),
(79,589,o),
(79,743,cs),
(79,904,o),
(111,1041,o),
(172,1156,cs),
(233,1271,o),
(316,1359,o),
(422,1421,cs),
(527,1482,o),
(646,1512,o),
(778,1512,cs),
(948,1512,o),
(1096,1461,o),
(1211,1370,cs),
(1325,1280,o),
(1402,1153,o),
(1422,1001,c),
(1115,1001,l),
(1095,1075,o),
(1057,1136,o),
(1001,1179,cs),
(944,1221,o),
(872,1244,o),
(785,1244,cs),
(704,1244,o),
(634,1224,o),
(574,1185,cs),
(454,1105,o),
(385,955,o),
(385,745,cs),
(385,641,o),
(402,552,o),
(435,477,cs),
(467,403,o),
(514,346,o),
(575,306,cs),
(635,266,o),
(707,246,o),
(790,246,cs),
(861,246,o),
(923,259,o),
(976,287,cs),
(1081,342,o),
(1142,443,o),
(1142,580,c),
(1245,580,l),
(1245,468,ls),
(1245,331,o),
(1205,209,o),
(1122,121,cs),
(1039,32,o),
(916,-22,o),
(753,-22,cs)
);
},
{
closed = 1;
nodes = (
(1234,0,l),
(1194,331,l),
(1194,561,l),
(813,561,l),
(813,791,l),
(1435,791,l),
(1435,0,l)
);
}
);
width = 1542;
},
{
anchors = (
{
name = m.uni0347;
position = "{768, 0}";
},
{
name = m.uni0302_1;
position = "{772, 1490}";
}
);
layerId = "545E045A-B28D-42BD-AE6C-2FB63E8B3292";
shapes = (
{
closed = 1;
nodes = (
(643,-22,o),
(528,10,o),
(428,74,cs),
(328,138,o),
(249,228,o),
(192,343,cs),
(135,458,o),
(106,591,o),
(106,744,cs),
(106,899,o),
(135,1034,o),
(192,1149,cs),
(249,1264,o),
(328,1353,o),
(429,1417,cs),
(530,1480,o),
(645,1512,o),
(774,1512,cs),
(933,1512,o),
(1072,1462,o),
(1181,1374,cs),
(1289,1286,o),
(1365,1163,o),
(1390,1016,c),
(1201,1016,l),
(1174,1113,o),
(1123,1194,o),
(1049,1251,cs),
(975,1308,o),
(882,1340,o),
(775,1340,cs),
(682,1340,o),
(598,1316,o),
(525,1268,cs),
(378,1172,o),
(289,991,o),
(289,744,cs),
(289,622,o),
(310,517,o),
(352,428,cs),
(394,339,o),
(452,271,o),
(526,223,cs),
(600,174,o),
(685,150,o),
(780,150,cs),
(866,150,o),
(942,169,o),
(1009,207,cs),
(1141,282,o),
(1222,423,o),
(1222,615,c),
(1285,615,l),
(1285,489,ls),
(1285,364,o),
(1246,238,o),
(1163,140,cs),
(1079,42,o),
(951,-22,o),
(772,-22,cs)
);
},
{
closed = 1;
nodes = (
(1254,0,l),
(1224,326,l),
(1224,584,l),
(830,584,l),
(830,747,l),
(1401,747,l),
(1401,0,l)
);
}
);
width = 1536;
},
{
anchors = (
{
name = m.uni0347;
position = "{726, 0}";
},
{
name = m.uni0302_1;
position = "{728, 1490}";
}
);
layerId = "9DE19B50-AF62-41B5-96CD-C828EA777CBB";
shapes = (
{
closed = 1;
nodes = (
(613,-18,o),
(503,14,o),
(410,78,cs),
(317,142,o),
(244,231,o),
(193,346,cs),
(142,461,o),
(116,593,o),
(116,744,cs),
(116,898,o),
(142,1032,o),
(194,1147,cs),
(246,1261,o),
(318,1350,o),
(411,1413,cs),
(504,1476,o),
(611,1508,o),
(734,1508,cs),
(909,1508,o),
(1041,1443,o),
(1136,1347,cs),
(1231,1250,o),
(1288,1132,o),
(1304,1025,c),
(1257,1025,l),
(1240,1125,o),
(1186,1234,o),
(1097,1320,cs),
(1008,1406,o),
(886,1462,o),
(735,1462,cs),
(621,1462,o),
(521,1432,o),
(435,1373,cs),
(263,1253,o),
(163,1032,o),
(163,744,cs),
(163,603,o),
(187,479,o),
(234,372,cs),
(281,264,o),
(347,180,o),
(434,119,cs),
(520,58,o),
(621,28,o),
(738,28,cs),
(847,28,o),
(942,53,o),
(1021,103,cs),
(1180,202,o),
(1272,386,o),
(1272,637,c),
(1306,637,l),
(1306,628,ls),
(1306,433,o),
(1253,272,o),
(1154,159,cs),
(1054,46,o),
(914,-18,o),
(739,-18,cs)
);
},
{
closed = 1;
nodes = (
(1276,0,l),
(1271,454,l),
(1281,626,l),
(753,626,l),
(753,672,l),
(1315,672,l),
(1315,0,l)
);
}
);
width = 1480;
}
);
leftKerningGroup = C2;
rightKerningGroup = R;
unicode = (71,57346);
}
{
glyphname = H;
layers = (
{
anchors = (
{
name = m.uni0347;
position = "{757, 0}";
},
{
name = m.uni0302_1;
position = "{757, 1490}";
},
{
name = m.uni0327_3;
position = "{292, 1}";
}
);
layerId = "30DB1A31-A6FD-462E-A165-656579CC7601";
shapes = (
{
closed = 1;
nodes = (
(88,0,l),
(88,1490,l),
(498,1490,l),
(498,929,l),
(1014,929,l),
(1014,1490,l),
(1424,1490,l),
(1424,0,l),
(1014,0,l),
(1014,590,l),
(498,590,l),
(498,0,l)
);
}
);
width = 1512;
},
{
anchors = (
{
name = m.uni0347;
position = "{757, 0}";
},
{
name = m.uni0302_1;
position = "{757, 1490}";
},
{
name = m.uni0327_3;
position = "{292, 1}";
}
);
layerId = "9958C6BA-7FC1-41C8-B3E0-9B3AF71AFF69";
shapes = (
{
closed = 1;
nodes = (
(124,0,l),
(124,1490,l),
(426,1490,l),
(426,889,l),
(1073,889,l),
(1073,1490,l),
(1375,1490,l),
(1375,0,l),
(1073,0,l),
(1073,634,l),
(426,634,l),
(426,0,l)
);
}
);
width = 1500;
},
{
anchors = (
{
name = m.uni0347;
position = "{757, 0}";
},
{
name = m.uni0302_1;
position = "{757, 1490}";
},
{
name = m.uni0327_3;
position = "{292, 1}";
}
);
layerId = "1B8D64CA-D7DF-4852-939C-A0B9329902C0";
shapes = (
{
closed = 1;
nodes = (
(164,0,l),
(164,1490,l),
(349,1490,l),
(349,845,l),
(1137,845,l),
(1137,1490,l),
(1322,1490,l),
(1322,0,l),
(1137,0,l),
(1137,681,l),
(349,681,l),
(349,0,l)
);
}
);
width = 1486;
},
{
anchors = (
{
name = m.uni0347;
position = "{735, 0}";
},
{
name = m.uni0302_1;
position = "{735, 1490}";
},
{
name = m.uni0327_3;
position = "{258, 1}";
}
);
layerId = "B109C6DD-98CC-498D-964F-904F22F997F9";
shapes = (
{
closed = 1;
nodes = (
(200,0,l),
(200,1490,l),
(246,1490,l),
(246,785,l),
(1194,785,l),
(1194,1490,l),
(1240,1490,l),
(1240,0,l),
(1194,0,l),
(1194,739,l),
(246,739,l),
(246,0,l)
);
}
);
width = 1440;
}
);
leftKerningGroup = B2;
rightKerningGroup = H;
unicode = 72;
}
{
glyphname = I;
layers = (
{
anchors = (
{
name = m.uni0347;
position = "{293, 0}";
},
{
name = m.uni0302_1;
position = "{295, 1490}";
},
{
name = m.uni0328_4;
position = "{498, 0}";
}
);
layerId = "1EC723AD-C41F-43E3-B68D-B2A779A308DC";
shapes = (
{
closed = 1;
nodes = (
(498,1490,l),
(498,0,l),
(88,0,l),
(88,1490,l)
);
}
);
width = 586;
},
{
anchors = (
{
name = m.uni0347;
position = "{293, 0}";
},
{
name = m.uni0302_1;
position = "{295, 1490}";
},
{
name = m.uni0328_4;
position = "{498, 0}";
}
);
layerId = "2F0A8C87-DA84-48CB-8FDB-683796859A95";
shapes = (
{
closed = 1;
nodes = (
(426,1490,l),
(426,0,l),
(124,0,l),
(124,1490,l)
);
}
);
width = 551;
},
{
anchors = (
{
name = m.uni0347;
position = "{293, 0}";
},
{
name = m.uni0302_1;
position = "{295, 1490}";
},
{
name = m.uni0328_4;
position = "{498, 0}";
}
);
layerId = "545E045A-B28D-42BD-AE6C-2FB63E8B3292";
shapes = (
{
closed = 1;
nodes = (
(349,1490,l),
(349,0,l),
(164,0,l),
(164,1490,l)
);
}
);
width = 513;
},
{
anchors = (
{
name = m.uni0347;
position = "{260, 0}";
},
{
name = m.uni0302_1;
position = "{262, 1490}";
},
{
name = m.uni0328_4;
position = "{395, 0}";
}
);
layerId = "9DE19B50-AF62-41B5-96CD-C828EA777CBB";
shapes = (
{
closed = 1;
nodes = (
(246,1490,l),
(246,0,l),
(200,0,l),
(200,1490,l)
);
}
);
width = 446;
}
);
leftKerningGroup = B2;
rightKerningGroup = H;
unicode = 73;
}
{
glyphname = J;
layers = (
{
anchors = (
{
name = m.uni0302_1;
position = "{918, 1490}";
}
);
layerId = "1EC723AD-C41F-43E3-B68D-B2A779A308DC";
shapes = (
{
closed = 1;
nodes = (
(408,-22,o),
(276,21,o),
(183,106,cs),
(90,191,o),
(43,312,o),
(43,470,cs),
(43,576,l),
(437,576,l),
(437,464,ls),
(437,413,o),
(449,375,o),
(473,348,cs),
(497,321,o),
(531,308,o),
(576,308,cs),
(621,308,o),
(655,321,o),
(679,348,cs),
(703,375,o),
(715,414,o),
(715,465,cs),
(715,1490,l),
(1122,1490,l),
(1122,465,ls),
(1122,309,o),
(1075,189,o),
(982,105,cs),
(888,20,o),
(754,-22,o),
(580,-22,cs)
);
}
);
width = 1210;
},
{
anchors = (
{
name = m.uni0302_1;
position = "{918, 1490}";
}
);
layerId = "2F0A8C87-DA84-48CB-8FDB-683796859A95";
shapes = (
{
closed = 1;
nodes = (
(404,-21,o),
(285,20,o),
(197,101,cs),
(109,182,o),
(65,298,o),
(65,448,cs),
(65,542,l),
(358,542,l),
(358,445,ls),
(358,375,o),
(376,322,o),
(411,285,cs),
(446,248,o),
(494,229,o),
(554,229,cs),
(614,229,o),
(662,248,o),
(697,285,cs),
(732,322,o),
(750,376,o),
(750,446,cs),
(750,1490,l),
(1050,1490,l),
(1050,446,ls),
(1050,296,o),
(1006,181,o),
(918,101,cs),
(830,20,o),
(709,-21,o),
(556,-21,cs)
);
}
);
width = 1173;
},
{
anchors = (
{
name = m.uni0302_1;
position = "{918, 1490}";
}
);
layerId = "545E045A-B28D-42BD-AE6C-2FB63E8B3292";
shapes = (
{
closed = 1;
nodes = (
(400,-20,o),
(294,19,o),
(212,96,cs),
(129,173,o),
(88,282,o),
(88,425,cs),
(88,505,l),
(273,505,l),
(273,425,ls),
(273,334,o),
(297,264,o),
(344,216,cs),
(391,168,o),
(453,144,o),
(530,144,cs),
(607,144,o),
(669,168,o),
(716,216,cs),
(763,264,o),
(787,334,o),
(787,425,cs),
(787,1490,l),
(972,1490,l),
(972,425,ls),
(972,282,o),
(931,173,o),
(849,96,cs),
(767,19,o),
(661,-20,o),
(530,-20,cs)
);
}
);
width = 1132;
},
{
anchors = (
{
name = m.uni0302_1;
position = "{934, 1490}";
}
);
layerId = "9DE19B50-AF62-41B5-96CD-C828EA777CBB";
shapes = (
{
closed = 1;
nodes = (
(407,-20,o),
(312,17,o),
(242,92,cs),
(171,167,o),
(136,268,o),
(136,396,cs),
(136,464,l),
(182,464,l),
(182,396,ls),
(182,282,o),
(213,192,o),
(274,126,cs),
(335,60,o),
(419,27,o),
(527,27,cs),
(635,27,o),
(720,60,o),
(781,126,cs),
(842,192,o),
(873,282,o),
(873,396,cs),
(873,1490,l),
(919,1490,l),
(919,396,ls),
(919,268,o),
(884,167,o),
(814,92,cs),
(744,17,o),
(648,-20,o),
(527,-20,cs)
);
}
);
width = 1089;
}
);
leftKerningGroup = J2;
rightKerningGroup = J;
unicode = 74;
}
{
glyphname = K;
layers = (
{
anchors = (
{
name = m.uni0347;
position = "{742, 0}";
},
{
name = m.uni0302_1;
position = "{742, 1490}";
}
);
layerId = "1EC723AD-C41F-43E3-B68D-B2A779A308DC";
shapes = (
{
closed = 1;
nodes = (
(395,237,l),
(395,661,l),
(426,714,o),
(456,764,o),
(486,811,cs),
(545,904,o),
(612,995,o),
(697,1108,cs),
(994,1490,l),
(1473,1490,l),
(850,723,l),
(813,732,l)
);
},
{
closed = 1;
nodes = (
(88,0,l),
(88,1490,l),
(498,1490,l),
(498,1171,l),
(495,741,l),
(498,545,l),
(498,0,l)
);
},
{
closed = 1;
nodes = (
(1026,0,l),
(667,600,l),
(918,904,l),
(1502,0,l)
);
}
);
width = 1525;
},
{
anchors = (
{
name = m.uni0347;
position = "{742, 0}";
},
{
name = m.uni0302_1;
position = "{742, 1490}";
}
);
layerId = "2F0A8C87-DA84-48CB-8FDB-683796859A95";
shapes = (
{
closed = 1;
nodes = (
(345,328,l),
(345,654,l),
(378,702,o),
(409,748,o),
(441,791,cs),
(505,878,o),
(574,963,o),
(652,1060,c),
(1022,1490,l),
(1388,1490,l),
(759,765,l),
(735,770,l)
);
},
{
closed = 1;
nodes = (
(124,0,l),
(124,1490,l),
(426,1490,l),
(426,1077,l),
(424,701,l),
(426,556,l),
(426,0,l)
);
},
{
closed = 1;
nodes = (
(1051,0,l),
(604,678,l),
(789,905,l),
(1404,0,l)
);
}
);
width = 1435;
},
{
anchors = (
{
name = m.uni0347;
position = "{742, 0}";
},
{
name = m.uni0302_1;
position = "{742, 1490}";
}
);
layerId = "545E045A-B28D-42BD-AE6C-2FB63E8B3292";
shapes = (
{
closed = 1;
nodes = (
(290,426,l),
(290,646,l),
(325,689,o),
(359,730,o),
(393,770,cs),
(461,850,o),
(532,928,o),
(604,1007,cs),
(1053,1490,l),
(1296,1490,l),
(660,810,l),
(651,811,l)
);
},
{
closed = 1;
nodes = (
(164,0,l),
(164,1490,l),
(349,1490,l),
(349,976,l),
(348,657,l),
(349,567,l),
(349,0,l)
);
},
{
closed = 1;
nodes = (
(1078,0,l),
(535,762,l),
(649,907,l),
(1297,0,l)
);
}
);
width = 1338;
},
{
anchors = (
{
name = m.uni0347;
position = "{688, 0}";
},
{
name = m.uni0302_1;
position = "{688, 1490}";
}
);
layerId = "9DE19B50-AF62-41B5-96CD-C828EA777CBB";
shapes = (
{
closed = 1;
nodes = (
(241,536,l),
(226,585,l),
(267,628,o),
(305,670,o),
(342,709,cs),
(414,788,o),
(487,866,o),
(566,953,cs),
(1066,1490,l),
(1126,1490,l),
(513,828,l),
(502,818,l)
);
},
{
closed = 1;
nodes = (
(200,0,l),
(200,1490,l),
(246,1490,l),
(246,961,l),
(247,592,l),
(246,561,l),
(246,0,l)
);
},
{
closed = 1;
nodes = (
(1070,0,l),
(482,827,l),
(518,853,l),
(1125,0,l)
);
}
);
width = 1172;
}
);
leftKerningGroup = B2;
rightKerningGroup = K;
unicode = 75;
}
{
glyphname = L;
layers = (
{
anchors = (
{
name = m.uni0347;
position = "{595, 0}";
},
{
name = m.uni0302_1;
position = "{292, 1490}";
}
);
layerId = "30DB1A31-A6FD-462E-A165-656579CC7601";
shapes = (
{
closed = 1;
nodes = (
(88,0,l),
(88,1490,l),
(498,1490,l),
(498,339,l),
(1120,339,l),
(1120,0,l)
);
}
);
width = 1168;
},
{
anchors = (
{
name = m.uni0347;
position = "{595, 0}";
},
{
name = m.uni0302_1;
position = "{292, 1490}";
}
);
layerId = "9958C6BA-7FC1-41C8-B3E0-9B3AF71AFF69";
shapes = (
{
closed = 1;
nodes = (
(124,0,l),
(124,1490,l),
(426,1490,l),
(426,255,l),
(1088,255,l),
(1088,0,l)
);
}
);
width = 1148;
},
{
anchors = (
{
name = m.uni0347;
position = "{595, 0}";
},
{
name = m.uni0302_1;
position = "{292, 1490}";
}
);
layerId = "1B8D64CA-D7DF-4852-939C-A0B9329902C0";
shapes = (
{
closed = 1;
nodes = (
(164,0,l),
(164,1490,l),
(349,1490,l),
(349,164,l),
(1053,164,l),
(1053,0,l)
);
}
);
width = 1127;
},
{
anchors = (
{
name = m.uni0347;
position = "{590, 0}";
},
{
name = m.uni0302_1;
position = "{260, 1490}";
}
);
layerId = "B109C6DD-98CC-498D-964F-904F22F997F9";
shapes = (
{
closed = 1;
nodes = (
(200,0,l),
(200,1490,l),
(248,1490,l),
(248,46,l),
(1004,46,l),
(1004,0,l)
);
}
);
width = 1098;
}
);
leftKerningGroup = B2;
rightKerningGroup = L;
unicode = 76;
}
{
glyphname = M;
layers = (
{
anchors = (
{
name = m.uni0347;
position = "{964, 0}";
},
{
name = m.uni0302_1;
position = "{964, 1490}";
}
);
layerId = "1EC723AD-C41F-43E3-B68D-B2A779A308DC";
shapes = (
{
closed = 1;
nodes = (
(88,0,l),
(88,1490,l),
(719,1490,l),
(852,1024,ls),
(863,985,o),
(877,934,o),
(892,872,cs),
(907,810,o),
(923,744,o),
(938,675,cs),
(968,535,o),
(995,401,o),
(1011,313,c),
(919,313,l),
(935,402,o),
(962,536,o),
(992,675,cs),
(1022,814,o),
(1052,944,o),
(1076,1024,cs),
(1208,1490,l),
(1838,1490,l),
(1838,0,l),
(1430,0,l),
(1430,577,ls),
(1430,645,o),
(1434,760,o),
(1438,892,cs),
(1442,1023,o),
(1446,1163,o),
(1446,1276,c),
(1482,1276,l),
(1455,1156,o),
(1422,1018,o),
(1390,890,cs),
(1357,761,o),
(1326,648,o),
(1305,577,cs),
(1133,0,l),
(796,0,l),
(620,577,ls),
(599,649,o),
(567,761,o),
(534,890,cs),
(501,1018,o),
(467,1156,o),
(439,1276,c),
(480,1276,l),
(480,1161,o),
(485,1023,o),
(489,892,cs),
(492,760,o),
(497,644,o),
(497,577,cs),
(497,0,l)
);
}
);
width = 1926;
},
{
anchors = (
{
name = m.uni0347;
position = "{964, 0}";
},
{
name = m.uni0302_1;
position = "{964, 1490}";
}
);
layerId = "2F0A8C87-DA84-48CB-8FDB-683796859A95";
shapes = (
{
closed = 1;
nodes = (
(124,0,l),
(124,1490,l),
(576,1490,l),
(824,791,l),
(834,761,o),
(846,721,o),
(860,674,cs),
(873,626,o),
(887,575,o),
(901,522,cs),
(928,414,o),
(954,310,o),
(970,239,c),
(902,239,l),
(918,310,o),
(943,414,o),
(971,521,cs),
(998,628,o),
(1026,728,o),
(1046,791,c),
(1291,1490,l),
(1742,1490,l),
(1742,0,l),
(1443,0,l),
(1443,712,ls),
(1443,777,o),
(1446,875,o),
(1449,983,cs),
(1452,1090,o),
(1455,1204,o),
(1455,1300,c),
(1484,1300,l),
(1455,1194,o),
(1422,1077,o),
(1391,971,cs),
(1360,864,o),
(1332,771,o),
(1312,712,cs),
(1060,0,l),
(809,0,l),
(553,712,l),
(533,772,o),
(505,863,o),
(473,970,cs),
(441,1076,o),
(408,1192,o),
(377,1300,c),
(410,1300,l),
(412,1205,o),
(415,1093,o),
(418,985,cs),
(420,876,o),
(424,777,o),
(424,712,cs),
(424,0,l)
);
}
);
width = 1867;
},
{
anchors = (
{
name = m.uni0347;
position = "{964, 0}";
},
{
name = m.uni0302_1;
position = "{964, 1490}";
}
);
layerId = "545E045A-B28D-42BD-AE6C-2FB63E8B3292";
shapes = (
{
closed = 1;
nodes = (
(164,0,l),
(164,1490,l),
(422,1490,l),
(794,539,l),
(803,518,o),
(813,491,o),
(825,459,c),
(836,426,o),
(848,392,o),
(861,356,c),
(885,283,o),
(909,211,o),
(925,159,c),
(883,159,l),
(899,210,o),
(923,281,o),
(948,354,cs),
(972,426,o),
(997,495,o),
(1014,539,cs),
(1381,1490,l),
(1639,1490,l),
(1639,0,l),
(1457,0,l),
(1457,858,ls),
(1457,921,o),
(1458,999,o),
(1460,1081,cs),
(1462,1163,o),
(1464,1248,o),
(1465,1327,c),
(1486,1327,l),
(1455,1235,o),
(1422,1141,o),
(1393,1058,cs),
(1364,975,o),
(1338,905,o),
(1319,858,cs),
(980,0,l),
(823,0,l),
(480,858,ls),
(461,905,o),
(437,974,o),
(407,1056,cs),
(377,1138,o),
(344,1232,o),
(309,1327,c),
(335,1327,l),
(338,1252,o),
(340,1168,o),
(341,1085,cs),
(342,1002,o),
(344,922,o),
(344,858,cs),
(344,0,l)
);
}
);
width = 1803;
},
{
anchors = (
{
name = m.uni0347;
position = "{949, 0}";
},
{
name = m.uni0302_1;
position = "{949, 1490}";
}
);
layerId = "9DE19B50-AF62-41B5-96CD-C828EA777CBB";
shapes = (
{
closed = 1;
nodes = (
(200,0,l),
(200,1490,l),
(265,1490,l),
(779,304,ls),
(789,282,o),
(799,260,o),
(809,237,cs),
(819,214,o),
(829,190,o),
(838,167,cs),
(857,120,o),
(876,75,o),
(897,28,c),
(872,28,l),
(892,76,o),
(912,122,o),
(932,168,cs),
(951,214,o),
(970,259,o),
(991,304,c),
(1505,1490,l),
(1568,1490,l),
(1568,0,l),
(1522,0,l),
(1522,1137,ls),
(1522,1190,o),
(1522,1244,o),
(1523,1299,cs),
(1523,1354,o),
(1523,1408,o),
(1523,1460,c),
(1538,1460,l),
(1515,1407,o),
(1492,1352,o),
(1469,1298,cs),
(1446,1244,o),
(1423,1189,o),
(1400,1137,cs),
(908,0,l),
(861,0,l),
(368,1137,ls),
(345,1190,o),
(323,1244,o),
(300,1298,cs),
(276,1352,o),
(254,1407,o),
(231,1460,c),
(245,1460,l),
(245,1407,o),
(246,1353,o),
(246,1299,cs),
(246,1245,o),
(247,1189,o),
(247,1137,cs),
(247,0,l)
);
}
);
width = 1768;
}
);
leftKerningGroup = B2;
rightKerningGroup = H;
unicode = 77;
}
{
glyphname = N;
layers = (
{
anchors = (
{
name = m.uni0347;
position = "{774, 0}";
},
{
name = m.uni0302_1;
position = "{774, 1490}";
}
);
layerId = "1EC723AD-C41F-43E3-B68D-B2A779A308DC";
shapes = (
{
closed = 1;
nodes = (
(88,0,l),
(88,1490,l),
(521,1490,l),
(880,906,ls),
(903,868,o),
(928,825,o),
(953,778,cs),
(1004,683,o),
(1057,571,o),
(1106,447,c),
(1064,389,l),
(1060,442,o),
(1056,504,o),
(1053,575,cs),
(1050,645,o),
(1047,713,o),
(1045,780,cs),
(1042,847,o),
(1041,901,o),
(1041,944,cs),
(1041,1490,l),
(1457,1490,l),
(1457,0,l),
(1024,0,l),
(689,544,ls),
(661,591,o),
(633,641,o),
(604,694,cs),
(546,799,o),
(487,920,o),
(419,1065,c),
(481,1077,l),
(486,1006,o),
(491,937,o),
(494,869,cs),
(501,733,o),
(505,615,o),
(505,544,cs),
(505,0,l)
);
}
);
width = 1545;
},
{
anchors = (
{
name = m.uni0347;
position = "{774, 0}";
},
{
name = m.uni0302_1;
position = "{774, 1490}";
}
);
layerId = "2F0A8C87-DA84-48CB-8FDB-683796859A95";
shapes = (
{
closed = 1;
nodes = (
(124,0,l),
(124,1490,l),
(453,1490,l),
(933,725,ls),
(952,694,o),
(974,658,o),
(997,616,cs),
(1044,532,o),
(1096,429,o),
(1144,320,c),
(1112,281,l),
(1108,331,o),
(1104,386,o),
(1102,447,cs),
(1099,508,o),
(1097,566,o),
(1096,621,cs),
(1094,677,o),
(1093,721,o),
(1093,756,cs),
(1093,1490,l),
(1398,1490,l),
(1398,0,l),
(1069,0,l),
(634,693,l),
(610,733,o),
(585,776,o),
(558,824,cs),
(504,918,o),
(442,1033,o),
(365,1181,c),
(411,1199,l),
(415,1126,o),
(419,1057,o),
(422,992,cs),
(427,862,o),
(431,756,o),
(431,694,cs),
(431,0,l)
);
}
);
width = 1523;
},
{
anchors = (
{
name = m.uni0347;
position = "{774, 0}";
},
{
name = m.uni0302_1;
position = "{774, 1490}";
}
);
layerId = "545E045A-B28D-42BD-AE6C-2FB63E8B3292";
shapes = (
{
closed = 1;
nodes = (
(164,0,l),
(164,1490,l),
(380,1490,l),
(990,529,ls),
(1005,506,o),
(1023,477,o),
(1044,441,cs),
(1087,368,o),
(1139,276,o),
(1186,183,c),
(1164,165,l),
(1160,211,o),
(1157,259,o),
(1155,309,cs),
(1153,359,o),
(1152,406,o),
(1151,449,cs),
(1150,492,o),
(1150,527,o),
(1150,552,cs),
(1150,1490,l),
(1335,1490,l),
(1335,0,l),
(1117,0,l),
(574,855,ls),
(555,886,o),
(533,923,o),
(508,964,cs),
(458,1047,o),
(394,1156,o),
(307,1307,c),
(335,1331,l),
(338,1255,o),
(341,1186,o),
(343,1125,cs),
(347,1001,o),
(350,909,o),
(350,857,cs),
(350,0,l)
);
}
);
width = 1499;
},
{
anchors = (
{
name = m.uni0347;
position = "{783, 0}";
},
{
name = m.uni0302_1;
position = "{783, 1490}";
}
);
layerId = "9DE19B50-AF62-41B5-96CD-C828EA777CBB";
shapes = (
{
closed = 1;
nodes = (
(200,0,l),
(200,1490,l),
(245,1490,l),
(1068,360,ls),
(1093,325,o),
(1118,291,o),
(1143,256,cs),
(1191,187,o),
(1241,117,o),
(1290,49,c),
(1274,49,l),
(1273,83,o),
(1273,117,o),
(1273,152,c),
(1272,187,o),
(1272,221,o),
(1272,256,c),
(1271,291,o),
(1271,325,o),
(1271,359,cs),
(1271,1490,l),
(1317,1490,l),
(1317,0,l),
(1272,0,l),
(451,1129,ls),
(426,1164,o),
(402,1199,o),
(377,1234,cs),
(328,1304,o),
(279,1371,o),
(228,1442,c),
(244,1442,l),
(244,1407,o),
(244,1372,o),
(245,1338,c),
(245,1269,o),
(247,1198,o),
(247,1129,cs),
(247,0,l)
);
}
);
width = 1517;
}
);
leftKerningGroup = B2;
rightKerningGroup = H;
unicode = 78;
}
{
glyphname = P;
layers = (
{
anchors = (
{
name = m.uni0302_1;
position = "{656, 1490}";
}
);
layerId = "30DB1A31-A6FD-462E-A165-656579CC7601";
shapes = (
{
closed = 1;
nodes = (
(88,0,l),
(88,1490,l),
(726,1490,ls),
(841,1490,o),
(940,1469,o),
(1025,1426,cs),
(1194,1341,o),
(1292,1179,o),
(1292,966,cs),
(1292,860,o),
(1269,768,o),
(1222,691,cs),
(1128,535,o),
(951,446,o),
(719,446,cs),
(330,446,l),
(330,775,l),
(662,775,ls),
(707,775,o),
(746,783,o),
(779,799,cs),
(843,830,o),
(879,889,o),
(879,966,cs),
(879,1007,o),
(870,1041,o),
(853,1069,cs),
(818,1125,o),
(753,1158,o),
(662,1158,cs),
(498,1158,l),
(498,0,l)
);
}
);
width = 1336;
},
{
anchors = (
{
name = m.uni0302_1;
position = "{656, 1490}";
}
);
layerId = "9958C6BA-7FC1-41C8-B3E0-9B3AF71AFF69";
shapes = (
{
closed = 1;
nodes = (
(124,0,l),
(124,1490,l),
(707,1490,ls),
(819,1490,o),
(916,1469,o),
(996,1428,cs),
(1156,1346,o),
(1244,1193,o),
(1244,995,cs),
(1244,896,o),
(1223,810,o),
(1180,737,cs),
(1093,589,o),
(928,502,o),
(702,502,cs),
(308,502,l),
(308,751,l),
(670,751,ls),
(729,751,o),
(779,762,o),
(820,782,cs),
(900,823,o),
(942,898,o),
(942,995,cs),
(942,1045,o),
(931,1088,o),
(911,1124,cs),
(869,1196,o),
(789,1239,o),
(670,1239,cs),
(426,1239,l),
(426,0,l)
);
}
);
width = 1310;
},
{
anchors = (
{
name = m.uni0302_1;
position = "{656, 1490}";
}
);
layerId = "1B8D64CA-D7DF-4852-939C-A0B9329902C0";
shapes = (
{
closed = 1;
nodes = (
(164,0,l),
(164,1490,l),
(686,1490,ls),
(796,1490,o),
(889,1470,o),
(964,1431,cs),
(1115,1352,o),
(1193,1208,o),
(1193,1027,cs),
(1193,936,o),
(1173,856,o),
(1134,787,cs),
(1055,647,o),
(903,562,o),
(683,562,cs),
(284,562,l),
(284,726,l),
(679,726,ls),
(753,726,o),
(815,739,o),
(864,764,cs),
(962,815,o),
(1010,908,o),
(1010,1027,cs),
(1010,1087,o),
(998,1139,o),
(974,1184,cs),
(925,1273,o),
(827,1327,o),
(678,1327,cs),
(349,1327,l),
(349,0,l)
);
}
);
width = 1281;
},
{
anchors = (
{
name = m.uni0302_1;
position = "{628, 1490}";
}
);
layerId = "B109C6DD-98CC-498D-964F-904F22F997F9";
shapes = (
{
closed = 1;
nodes = (
(200,0,l),
(200,1490,l),
(662,1490,ls),
(745,1490,o),
(819,1472,o),
(883,1436,cs),
(1011,1364,o),
(1088,1230,o),
(1088,1059,cs),
(1088,975,o),
(1070,901,o),
(1034,837,cs),
(961,708,o),
(830,631,o),
(663,631,cs),
(224,631,l),
(224,678,l),
(662,678,ls),
(737,678,o),
(803,694,o),
(860,726,cs),
(974,790,o),
(1043,908,o),
(1043,1059,cs),
(1043,1136,o),
(1027,1203,o),
(994,1261,cs),
(929,1376,o),
(811,1445,o),
(662,1445,cs),
(246,1445,l),
(246,0,l)
);
}
);
width = 1184;
}
);
leftKerningGroup = B2;
rightKerningGroup = P;
unicode = 80;
}
{
glyphname = R;
layers = (
{
anchors = (
{
name = m.uni0347;
position = "{693, 0}";
},
{
name = m.uni0302_1;
position = "{678, 1490}";
}
);
layerId = "1EC723AD-C41F-43E3-B68D-B2A779A308DC";
shapes = (
{
closed = 1;
nodes = (
(88,0,l),
(88,1490,l),
(726,1490,ls),
(841,1490,o),
(941,1470,o),
(1026,1429,cs),
(1196,1347,o),
(1293,1189,o),
(1293,977,cs),
(1293,872,o),
(1269,783,o),
(1221,709,cs),
(1124,560,o),
(945,480,o),
(708,480,cs),
(338,480,l),
(338,797,l),
(663,797,ls),
(708,797,o),
(746,804,o),
(778,818,cs),
(842,845,o),
(878,900,o),
(878,977,cs),
(878,1017,o),
(870,1051,o),
(853,1078,cs),
(819,1132,o),
(752,1160,o),
(663,1160,cs),
(498,1160,l),
(498,0,l)
);
},
{
closed = 1;
nodes = (
(904,0,l),
(560,681,l),
(988,681,l),
(1341,0,l)
);
}
);
width = 1366;
},
{
anchors = (
{
name = m.uni0347;
position = "{693, 0}";
},
{
name = m.uni0302_1;
position = "{678, 1490}";
}
);
layerId = "2F0A8C87-DA84-48CB-8FDB-683796859A95";
shapes = (
{
closed = 1;
nodes = (
(124,0,l),
(124,1490,l),
(712,1490,ls),
(824,1490,o),
(921,1470,o),
(1001,1431,cs),
(1162,1352,o),
(1250,1201,o),
(1250,1004,cs),
(1250,906,o),
(1228,822,o),
(1184,751,cs),
(1095,608,o),
(928,529,o),
(699,529,cs),
(304,529,l),
(304,773,l),
(676,773,ls),
(734,773,o),
(783,782,o),
(824,800,cs),
(903,837,o),
(946,908,o),
(946,1004,cs),
(946,1054,o),
(936,1097,o),
(915,1132,cs),
(874,1202,o),
(792,1240,o),
(675,1240,cs),
(426,1240,l),
(426,0,l)
);
},
{
closed = 1;
nodes = (
(963,0,l),
(611,676,l),
(934,676,l),
(1293,0,l)
);
}
);
width = 1338;
},
{
anchors = (
{
name = m.uni0347;
position = "{693, 0}";
},
{
name = m.uni0302_1;
position = "{678, 1490}";
}
);
layerId = "545E045A-B28D-42BD-AE6C-2FB63E8B3292";
shapes = (
{
closed = 1;
nodes = (
(164,0,l),
(164,1490,l),
(696,1490,ls),
(806,1490,o),
(899,1471,o),
(974,1433,cs),
(1125,1357,o),
(1203,1215,o),
(1203,1034,cs),
(1203,943,o),
(1183,864,o),
(1143,796,cs),
(1063,660,o),
(909,582,o),
(689,582,cs),
(267,582,l),
(267,746,l),
(690,746,ls),
(763,746,o),
(824,758,o),
(873,781,cs),
(970,828,o),
(1019,917,o),
(1019,1034,cs),
(1019,1094,o),
(1007,1146,o),
(983,1190,cs),
(934,1277,o),
(836,1327,o),
(688,1327,cs),
(349,1327,l),
(349,0,l)
);
},
{
closed = 1;
nodes = (
(1026,0,l),
(666,671,l),
(875,671,l),
(1241,0,l)
);
}
);
width = 1307;
},
{
anchors = (
{
name = m.uni0347;
position = "{650, 0}";
},
{
name = m.uni0302_1;
position = "{643, 1490}";
}
);
layerId = "9DE19B50-AF62-41B5-96CD-C828EA777CBB";
shapes = (
{
closed = 1;
nodes = (
(200,0,l),
(200,1490,l),
(663,1490,ls),
(746,1490,o),
(819,1473,o),
(883,1438,cs),
(1011,1368,o),
(1089,1235,o),
(1089,1064,cs),
(1089,980,o),
(1071,906,o),
(1035,843,cs),
(962,716,o),
(830,643,o),
(662,643,cs),
(224,643,l),
(224,688,l),
(663,688,ls),
(737,688,o),
(803,704,o),
(860,735,cs),
(974,798,o),
(1042,915,o),
(1042,1064,cs),
(1042,1141,o),
(1026,1208,o),
(994,1265,cs),
(929,1379,o),
(811,1445,o),
(663,1445,cs),
(246,1445,l),
(246,0,l)
);
},
{
closed = 1;
nodes = (
(1079,0,l),
(717,679,l),
(769,679,l),
(1131,0,l)
);
}
);
width = 1223;
}
);
leftKerningGroup = B2;
rightKerningGroup = R;
unicode = 82;
}
{
glyphname = S;
layers = (
{
anchors = (
{
name = m.uni0347;
position = "{698, 0}";
},
{
name = m.uni0302_1;
position = "{693, 1490}";
},
{
name = m.uni0327_3;
position = "{694, 0}";
}
);
layerId = "30DB1A31-A6FD-462E-A165-656579CC7601";
shapes = (
{
closed = 1;
nodes = (
(570,-21,o),
(455,-1,o),
(360,38,cs),
(168,117,o),
(62,274,o),
(61,510,c),
(450,510,l),
(453,467,o),
(464,431,o),
(485,401,cs),
(525,341,o),
(602,309,o),
(703,309,cs),
(747,309,o),
(785,315,o),
(816,326,cs),
(878,348,o),
(912,387,o),
(912,438,cs),
(912,461,o),
(904,482,o),
(888,500,cs),
(856,535,o),
(789,560,o),
(678,583,cs),
(528,613,ls),
(253,669,o),
(94,810,o),
(94,1038,cs),
(94,1132,o),
(120,1215,o),
(172,1286,cs),
(275,1429,o),
(461,1512,o),
(700,1512,cs),
(822,1512,o),
(927,1492,o),
(1016,1453,cs),
(1193,1373,o),
(1293,1222,o),
(1297,1021,c),
(912,1021,l),
(909,1072,o),
(889,1111,o),
(854,1140,cs),
(818,1169,o),
(768,1183,o),
(704,1183,cs),
(664,1183,o),
(630,1178,o),
(602,1167,cs),
(545,1146,o),
(515,1109,o),
(515,1062,cs),
(515,1038,o),
(522,1017,o),
(537,1000,c),
(565,965,o),
(628,942,o),
(725,922,cs),
(846,898,ls),
(1014,865,o),
(1134,812,o),
(1211,738,cs),
(1288,664,o),
(1323,569,o),
(1323,453,cs),
(1323,352,o),
(1299,267,o),
(1250,196,cs),
(1152,55,o),
(964,-21,o),
(704,-21,cs)
);
}
);
width = 1384;
},
{
anchors = (
{
name = m.uni0347;
position = "{698, 0}";
},
{
name = m.uni0302_1;
position = "{693, 1490}";
},
{
name = m.uni0327_3;
position = "{694, 0}";
}
);
layerId = "9958C6BA-7FC1-41C8-B3E0-9B3AF71AFF69";
shapes = (
{
closed = 1;
nodes = (
(555,-23,o),
(448,-3,o),
(360,35,cs),
(182,113,o),
(82,262,o),
(78,474,c),
(372,474,l),
(375,421,o),
(389,377,o),
(414,341,cs),
(465,267,o),
(559,229,o),
(677,229,cs),
(734,229,o),
(783,237,o),
(825,254,cs),
(909,286,o),
(958,345,o),
(958,423,cs),
(958,456,o),
(948,485,o),
(928,509,cs),
(889,556,o),
(812,588,o),
(694,616,cs),
(533,653,ls),
(259,717,o),
(113,848,o),
(113,1063,cs),
(113,1153,o),
(137,1231,o),
(185,1298,cs),
(281,1434,o),
(454,1512,o),
(674,1512,cs),
(786,1512,o),
(883,1493,o),
(966,1455,cs),
(1131,1379,o),
(1226,1237,o),
(1230,1050,c),
(943,1050,l),
(938,1117,o),
(912,1168,o),
(864,1206,cs),
(816,1243,o),
(752,1261,o),
(673,1261,cs),
(622,1261,o),
(577,1253,o),
(539,1238,cs),
(462,1206,o),
(419,1150,o),
(419,1080,cs),
(419,1046,o),
(429,1017,o),
(449,993,cs),
(489,946,o),
(566,916,o),
(668,892,cs),
(807,860,ls),
(949,829,o),
(1061,781,o),
(1139,712,cs),
(1217,642,o),
(1259,550,o),
(1259,431,cs),
(1259,339,o),
(1236,259,o),
(1190,191,cs),
(1096,55,o),
(920,-23,o),
(678,-23,cs)
);
}
);
width = 1337;
},
{
anchors = (
{
name = m.uni0347;
position = "{698, 0}";
},
{
name = m.uni0302_1;
position = "{693, 1490}";
},
{
name = m.uni0327_3;
position = "{694, 0}";
}
);
layerId = "1B8D64CA-D7DF-4852-939C-A0B9329902C0";
shapes = (
{
closed = 1;
nodes = (
(538,-25,o),
(441,-6,o),
(360,32,cs),
(197,108,o),
(104,248,o),
(97,435,c),
(287,435,l),
(290,372,o),
(307,318,o),
(338,275,cs),
(400,187,o),
(512,142,o),
(649,142,cs),
(719,142,o),
(781,153,o),
(835,175,cs),
(942,218,o),
(1007,299,o),
(1007,406,cs),
(1007,451,o),
(995,488,o),
(972,519,cs),
(925,579,o),
(837,619,o),
(712,651,cs),
(538,697,ls),
(266,769,o),
(133,890,o),
(133,1090,cs),
(133,1175,o),
(155,1249,o),
(199,1312,cs),
(287,1439,o),
(447,1512,o),
(646,1512,cs),
(747,1512,o),
(835,1494,o),
(911,1458,cs),
(1063,1386,o),
(1153,1253,o),
(1158,1082,c),
(976,1082,l),
(969,1165,o),
(936,1230,o),
(875,1277,cs),
(814,1323,o),
(735,1346,o),
(640,1346,cs),
(576,1346,o),
(520,1335,o),
(471,1314,cs),
(373,1271,o),
(315,1195,o),
(315,1099,cs),
(315,1054,o),
(328,1016,o),
(354,986,cs),
(406,925,o),
(498,888,o),
(606,860,cs),
(765,818,ls),
(878,790,o),
(982,747,o),
(1062,683,cs),
(1141,618,o),
(1189,529,o),
(1189,408,cs),
(1189,325,o),
(1167,250,o),
(1124,185,cs),
(1036,54,o),
(872,-25,o),
(649,-25,cs)
);
}
);
width = 1286;
},
{
anchors = (
{
name = m.uni0347;
position = "{649, 0}";
},
{
name = m.uni0302_1;
position = "{649, 1490}";
},
{
name = m.uni0327_3;
position = "{645, 0}";
}
);
layerId = "B109C6DD-98CC-498D-964F-904F22F997F9";
shapes = (
{
closed = 1;
nodes = (
(500,-23,o),
(421,-7,o),
(354,25,cs),
(218,88,o),
(137,203,o),
(126,350,c),
(173,350,l),
(178,285,o),
(198,229,o),
(233,180,cs),
(303,82,o),
(428,24,o),
(591,24,cs),
(677,24,o),
(752,39,o),
(816,69,cs),
(944,128,o),
(1019,238,o),
(1019,379,cs),
(1019,432,o),
(1007,479,o),
(984,520,c),
(936,600,o),
(840,662,o),
(679,711,cs),
(510,763,ls),
(275,836,o),
(160,957,o),
(160,1129,cs),
(160,1202,o),
(179,1267,o),
(218,1325,cs),
(295,1441,o),
(434,1512,o),
(602,1512,cs),
(687,1512,o),
(762,1495,o),
(827,1462,cs),
(956,1394,o),
(1035,1271,o),
(1044,1118,c),
(998,1118,l),
(991,1220,o),
(953,1304,o),
(882,1369,cs),
(811,1434,o),
(718,1467,o),
(602,1467,cs),
(527,1467,o),
(459,1452,o),
(399,1423,cs),
(279,1364,o),
(207,1260,o),
(207,1129,cs),
(207,1079,o),
(218,1034,o),
(241,993,cs),
(285,912,o),
(379,853,o),
(520,809,cs),
(690,756,ls),
(819,717,o),
(912,669,o),
(974,607,cs),
(1036,545,o),
(1064,470,o),
(1064,378,cs),
(1064,301,o),
(1044,233,o),
(1005,172,cs),
(925,51,o),
(780,-23,o),
(591,-23,cs)
);
}
);
width = 1190;
}
);
leftKerningGroup = S2;
rightKerningGroup = S;
unicode = 83;
}
{
glyphname = U;
layers = (
{
anchors = (
{
name = m.uni0347;
position = "{731, 0}";
},
{
name = m.uni0302_1;
position = "{731, 1490}";
},
{
name = m.uni0328_4;
position = "{1373, 534}";
}
);
layerId = "1EC723AD-C41F-43E3-B68D-B2A779A308DC";
shapes = (
{
closed = 1;
nodes = (
(602,-21,o),
(489,2,o),
(393,47,cs),
(296,92,o),
(221,157,o),
(168,240,cs),
(115,323,o),
(88,421,o),
(88,534,cs),
(88,1490,l),
(492,1490,l),
(492,567,ls),
(492,521,o),
(503,480,o),
(524,445,cs),
(545,409,o),
(573,381,o),
(608,360,cs),
(643,339,o),
(684,329,o),
(731,329,cs),
(777,329,o),
(818,339,o),
(854,360,cs),
(890,381,o),
(918,409,o),
(939,444,cs),
(959,479,o),
(969,520,o),
(969,567,cs),
(969,1490,l),
(1373,1490,l),
(1373,534,ls),
(1373,421,o),
(1346,323,o),
(1293,240,cs),
(1240,157,o),
(1165,92,o),
(1068,47,cs),
(971,2,o),
(859,-21,o),
(731,-21,cs)
);
}
);
width = 1461;
},
{
anchors = (
{
name = m.uni0347;
position = "{731, 0}";
},
{
name = m.uni0302_1;
position = "{731, 1490}";
},
{
name = m.uni0328_4;
position = "{1373, 534}";
}
);
layerId = "2F0A8C87-DA84-48CB-8FDB-683796859A95";
shapes = (
{
closed = 1;
nodes = (
(613,-22,o),
(505,1,o),
(413,46,cs),
(321,92,o),
(249,156,o),
(199,237,cs),
(148,319,o),
(123,413,o),
(123,521,cs),
(123,1490,l),
(421,1490,l),
(421,545,ls),
(421,486,o),
(435,434,o),
(461,389,cs),
(487,344,o),
(524,308,o),
(571,282,cs),
(617,255,o),
(672,242,o),
(736,242,cs),
(800,242,o),
(855,255,o),
(902,282,cs),
(949,308,o),
(985,344,o),
(1011,389,cs),
(1037,434,o),
(1050,486,o),
(1050,545,cs),
(1050,1490,l),
(1349,1490,l),
(1349,521,ls),
(1349,413,o),
(1323,319,o),
(1272,237,cs),
(1222,156,o),
(1151,92,o),
(1058,46,cs),
(966,1,o),
(859,-22,o),
(736,-22,cs)
);
}
);
width = 1471;
},
{
anchors = (
{
name = m.uni0347;
position = "{731, 0}";
},
{
name = m.uni0302_1;
position = "{731, 1490}";
},
{
name = m.uni0328_4;
position = "{1373, 534}";
}
);
layerId = "545E045A-B28D-42BD-AE6C-2FB63E8B3292";
shapes = (
{
closed = 1;
nodes = (
(625,-24,o),
(522,-1,o),
(435,45,cs),
(348,91,o),
(280,154,o),
(232,234,cs),
(184,314,o),
(160,405,o),
(160,507,cs),
(160,1490,l),
(345,1490,l),
(345,521,ls),
(345,449,o),
(361,385,o),
(393,329,cs),
(425,273,o),
(471,229,o),
(530,197,cs),
(589,164,o),
(659,148,o),
(742,148,cs),
(824,148,o),
(895,164,o),
(954,197,cs),
(1013,229,o),
(1058,273,o),
(1090,329,cs),
(1121,385,o),
(1137,449,o),
(1137,521,cs),
(1137,1490,l),
(1322,1490,l),
(1322,507,ls),
(1322,405,o),
(1298,314,o),
(1250,234,cs),
(1202,154,o),
(1135,91,o),
(1048,45,cs),
(961,-1,o),
(859,-24,o),
(742,-24,cs)
);
}
);
width = 1482;
},
{
anchors = (
{
name = m.uni0347;
position = "{696, 0}";
},
{
name = m.uni0302_1;
position = "{696, 1490}";
},
{
name = m.uni0328_4;
position = "{1293, 535}";
}
);
layerId = "9DE19B50-AF62-41B5-96CD-C828EA777CBB";
shapes = (
{
closed = 1;
nodes = (
(605,-19,o),
(514,4,o),
(433,50,cs),
(352,95,o),
(288,158,o),
(241,237,cs),
(194,316,o),
(170,407,o),
(170,508,cs),
(170,1490,l),
(216,1490,l),
(216,507,ls),
(216,415,o),
(238,333,o),
(281,261,cs),
(324,189,o),
(382,132,o),
(456,90,cs),
(529,48,o),
(613,27,o),
(706,27,cs),
(800,27,o),
(884,48,o),
(958,90,cs),
(1031,131,o),
(1089,188,o),
(1132,261,cs),
(1175,333,o),
(1196,415,o),
(1196,507,cs),
(1196,1490,l),
(1242,1490,l),
(1242,508,ls),
(1242,407,o),
(1219,316,o),
(1172,237,cs),
(1125,158,o),
(1062,95,o),
(981,50,cs),
(900,4,o),
(808,-19,o),
(707,-19,cs)
);
}
);
width = 1412;
}
);
leftKerningGroup = U;
rightKerningGroup = J;
unicode = 85;
}
{
glyphname = V;
layers = (
{
anchors = (
{
name = m.uni0347;
position = "{792, 0}";
},
{
name = m.uni0302_1;
position = "{792, 1490}";
}
);
layerId = "1EC723AD-C41F-43E3-B68D-B2A779A308DC";
shapes = (
{
closed = 1;
nodes = (
(523,0,l),
(23,1490,l),
(481,1490,l),
(655,912,ls),
(728,663,o),
(793,406,o),
(857,147,c),
(750,147,l),
(811,407,o),
(871,663,o),
(942,912,cs),
(1108,1490,l),
(1560,1490,l),
(1076,0,l)
);
}
);
width = 1583;
},
{
anchors = (
{
name = m.uni0347;
position = "{792, 0}";
},
{
name = m.uni0302_1;
position = "{792, 1490}";
}
);
layerId = "2F0A8C87-DA84-48CB-8FDB-683796859A95";
shapes = (
{
closed = 1;
nodes = (
(553,0,l),
(29,1490,l),
(361,1490,l),
(605,762,l),
(659,585,o),
(719,373,o),
(789,119,c),
(712,119,l),
(780,375,o),
(837,585,o),
(890,762,c),
(1126,1490,l),
(1454,1490,l),
(942,0,l)
);
}
);
width = 1484;
},
{
anchors = (
{
name = m.uni0347;
position = "{792, 0}";
},
{
name = m.uni0302_1;
position = "{792, 1490}";
}
);
layerId = "545E045A-B28D-42BD-AE6C-2FB63E8B3292";
shapes = (
{
closed = 1;
nodes = (
(585,0,l),
(36,1490,l),
(231,1490,l),
(550,599,ls),
(585,500,o),
(638,337,o),
(715,89,c),
(671,89,l),
(747,341,o),
(801,500,o),
(834,599,cs),
(1145,1490,l),
(1340,1490,l),
(797,0,l)
);
}
);
width = 1376;
},
{
anchors = (
{
name = m.uni0347;
position = "{737, 0}";
},
{
name = m.uni0302_1;
position = "{737, 1490}";
}
);
layerId = "9DE19B50-AF62-41B5-96CD-C828EA777CBB";
shapes = (
{
closed = 1;
nodes = (
(601,0,l),
(43,1490,l),
(92,1490,l),
(525,336,ls),
(564,231,o),
(603,123,o),
(643,16,c),
(624,16,l),
(664,124,o),
(703,231,o),
(742,336,cs),
(1173,1490,l),
(1222,1490,l),
(665,0,l)
);
}
);
width = 1265;
}
);
leftKerningGroup = V2;
rightKerningGroup = V;
unicode = 86;
}
{
glyphname = W;
layers = (
{
anchors = (
{
name = m.uni0347;
position = "{1086, 0}";
},
{
name = m.uni0302_1;
position = "{1086, 1490}";
}
);
layerId = "30DB1A31-A6FD-462E-A165-656579CC7601";
shapes = (
{
closed = 1;
nodes = (
(418,0,l),
(23,1490,l),
(475,1490,l),
(595,912,ls),
(610,840,o),
(624,764,o),
(637,684,cs),
(662,524,o),
(687,364,o),
(711,217,c),
(623,217,l),
(637,290,o),
(651,367,o),
(664,446,cs),
(691,604,o),
(718,768,o),
(751,912,cs),
(884,1490,l),
(1288,1490,l),
(1419,912,ls),
(1436,840,o),
(1452,764,o),
(1466,684,cs),
(1494,524,o),
(1521,364,o),
(1549,217,c),
(1460,217,l),
(1473,290,o),
(1485,367,o),
(1497,446,cs),
(1521,604,o),
(1547,768,o),
(1576,912,cs),
(1695,1490,l),
(2147,1490,l),
(1752,0,l),
(1296,0,l),
(1137,648,ls),
(1118,727,o),
(1101,816,o),
(1086,916,cs),
(1071,1015,o),
(1052,1121,o),
(1028,1233,c),
(1142,1233,l),
(1117,1121,o),
(1098,1015,o),
(1085,916,cs),
(1071,817,o),
(1054,727,o),
(1035,648,cs),
(875,0,l)
);
}
);
width = 2170;
},
{
anchors = (
{
name = m.uni0347;
position = "{1086, 0}";
},
{
name = m.uni0302_1;
position = "{1086, 1490}";
}
);
layerId = "9958C6BA-7FC1-41C8-B3E0-9B3AF71AFF69";
shapes = (
{
closed = 1;
nodes = (
(430,0,l),
(29,1490,l),
(355,1490,l),
(532,747,ls),
(546,686,o),
(559,623,o),
(571,558,cs),
(595,428,o),
(618,297,o),
(639,171,c),
(583,171,l),
(595,234,o),
(607,298,o),
(619,363,cs),
(643,493,o),
(669,626,o),
(698,747,cs),
(884,1490,l),
(1196,1490,l),
(1380,747,ls),
(1395,686,o),
(1410,623,o),
(1423,558,cs),
(1448,428,o),
(1473,297,o),
(1498,171,c),
(1439,171,l),
(1451,234,o),
(1462,298,o),
(1473,363,cs),
(1496,493,o),
(1522,626,o),
(1548,747,c),
(1724,1490,l),
(2050,1490,l),
(1649,0,l),
(1308,0,l),
(1101,794,ls),
(1083,866,o),
(1067,944,o),
(1052,1030,cs),
(1037,1114,o),
(1020,1205,o),
(1000,1303,c),
(1078,1303,l),
(1058,1207,o),
(1042,1117,o),
(1028,1032,cs),
(1014,948,o),
(997,868,o),
(978,794,cs),
(771,0,l)
);
}
);
width = 2079;
},
{
anchors = (
{
name = m.uni0347;
position = "{1086, 0}";
},
{
name = m.uni0302_1;
position = "{1086, 1490}";
}
);
layerId = "1B8D64CA-D7DF-4852-939C-A0B9329902C0";
shapes = (
{
closed = 1;
nodes = (
(442,0,l),
(36,1490,l),
(224,1490,l),
(463,568,ls),
(476,520,o),
(488,471,o),
(499,422,cs),
(522,323,o),
(543,225,o),
(562,122,c),
(540,122,l),
(550,173,o),
(560,224,o),
(571,274,cs),
(592,373,o),
(616,472,o),
(641,568,cs),
(885,1490,l),
(1097,1490,l),
(1338,568,ls),
(1351,520,o),
(1364,471,o),
(1376,422,cs),
(1399,323,o),
(1422,225,o),
(1442,122,c),
(1417,122,l),
(1427,173,o),
(1437,224,o),
(1448,274,cs),
(1469,373,o),
(1494,472,o),
(1518,568,cs),
(1755,1490,l),
(1945,1490,l),
(1537,0,l),
(1322,0,l),
(1063,952,ls),
(1046,1016,o),
(1030,1083,o),
(1015,1153,cs),
(1000,1222,o),
(985,1297,o),
(970,1378,c),
(1009,1378,l),
(995,1300,o),
(981,1227,o),
(967,1158,cs),
(952,1089,o),
(936,1021,o),
(917,952,cs),
(659,0,l)
);
}
);
width = 1981;
},
{
anchors = (
{
name = m.uni0347;
position = "{1024, 0}";
},
{
name = m.uni0302_1;
position = "{1024, 1490}";
}
);
layerId = "B109C6DD-98CC-498D-964F-904F22F997F9";
shapes = (
{
closed = 1;
nodes = (
(465,0,l),
(43,1490,l),
(91,1490,l),
(414,352,ls),
(425,315,o),
(435,278,o),
(446,241,c),
(466,165,o),
(486,92,o),
(507,17,c),
(495,17,l),
(504,54,o),
(514,92,o),
(524,129,cs),
(544,203,o),
(563,279,o),
(583,352,cs),
(894,1490,l),
(964,1490,l),
(1273,352,l),
(1284,315,o),
(1294,278,o),
(1304,241,cs),
(1323,165,o),
(1343,92,o),
(1363,17,c),
(1351,17,l),
(1361,54,o),
(1371,92,o),
(1382,129,cs),
(1402,203,o),
(1423,279,o),
(1444,352,cs),
(1765,1490,l),
(1813,1490,l),
(1391,0,l),
(1322,0,l),
(1020,1104,ls),
(1003,1165,o),
(987,1227,o),
(971,1289,cs),
(955,1350,o),
(939,1412,o),
(922,1473,c),
(934,1473,l),
(919,1412,o),
(903,1350,o),
(887,1289,cs),
(870,1227,o),
(854,1165,o),
(837,1104,cs),
(535,0,l)
);
}
);
width = 1856;
}
);
leftKerningGroup = W2;
rightKerningGroup = W;
unicode = 87;
}
{
glyphname = X;
layers = (
{
anchors = (
{
name = m.uni0347;
position = "{782, -3}";
},
{
name = m.uni0302_1;
position = "{782, 1490}";
}
);
layerId = "1EC723AD-C41F-43E3-B68D-B2A779A308DC";
shapes = (
{
closed = 1;
nodes = (
(23,0,l),
(666,911,l),
(666,602,l),
(84,1490,l),
(553,1490,l),
(671,1296,ls),
(696,1256,o),
(719,1217,o),
(738,1179,cs),
(777,1102,o),
(811,1030,o),
(847,963,c),
(725,963,l),
(745,997,o),
(764,1032,o),
(782,1068,cs),
(818,1139,o),
(855,1216,o),
(906,1296,cs),
(1026,1490,l),
(1483,1490,l),
(920,627,l),
(920,915,l),
(1542,0,l),
(1059,0,l),
(897,256,ls),
(875,290,o),
(856,321,o),
(841,348,cs),
(810,403,o),
(786,450,o),
(755,499,c),
(808,499,l),
(793,474,o),
(778,449,o),
(765,425,cs),
(738,376,o),
(709,324,o),
(664,256,cs),
(493,0,l)
);
}
);
width = 1565;
},
{
anchors = (
{
name = m.uni0347;
position = "{782, -3}";
},
{
name = m.uni0302_1;
position = "{782, 1490}";
}
);
layerId = "2F0A8C87-DA84-48CB-8FDB-683796859A95";
shapes = (
{
closed = 1;
nodes = (
(32,0,l),
(645,873,l),
(645,646,l),
(79,1490,l),
(426,1490,l),
(591,1236,ls),
(617,1196,o),
(641,1159,o),
(661,1124,cs),
(701,1053,o),
(737,987,o),
(775,916,c),
(697,916,l),
(717,952,o),
(737,987,o),
(756,1020,cs),
(793,1088,o),
(831,1156,o),
(884,1236,cs),
(1053,1490,l),
(1391,1490,l),
(835,663,l),
(835,878,l),
(1435,0,l),
(1082,0,l),
(871,316,ls),
(848,351,o),
(827,383,o),
(810,411,cs),
(774,469,o),
(745,521,o),
(710,580,c),
(757,580,l),
(739,550,o),
(722,522,o),
(706,495,cs),
(675,441,o),
(641,386,o),
(593,316,cs),
(377,0,l)
);
}
);
width = 1467;
},
{
anchors = (
{
name = m.uni0347;
position = "{782, -3}";
},
{
name = m.uni0302_1;
position = "{782, 1490}";
}
);
layerId = "545E045A-B28D-42BD-AE6C-2FB63E8B3292";
shapes = (
{
closed = 1;
nodes = (
(41,0,l),
(623,831,l),
(623,694,l),
(74,1490,l),
(288,1490,l),
(505,1171,ls),
(532,1132,o),
(556,1096,o),
(577,1064,cs),
(618,1000,o),
(656,941,o),
(697,866,c),
(666,866,l),
(687,903,o),
(708,938,o),
(727,969,cs),
(766,1032,o),
(806,1092,o),
(861,1171,cs),
(1082,1490,l),
(1291,1490,l),
(743,702,l),
(743,838,l),
(1319,0,l),
(1106,0,l),
(843,381,ls),
(818,417,o),
(796,450,o),
(776,480,cs),
(736,540,o),
(701,597,o),
(661,668,c),
(701,668,l),
(681,633,o),
(662,601,o),
(643,571,cs),
(606,511,o),
(567,454,o),
(516,381,cs),
(251,0,l)
);
}
);
width = 1360;
},
{
anchors = (
{
name = m.uni0347;
position = "{717, -3}";
},
{
name = m.uni0302_1;
position = "{717, 1490}";
}
);
layerId = "9DE19B50-AF62-41B5-96CD-C828EA777CBB";
shapes = (
{
closed = 1;
nodes = (
(46,0,l),
(599,774,l),
(599,740,l),
(62,1490,l),
(118,1490,l),
(452,1024,ls),
(472,997,o),
(492,970,o),
(511,943,cs),
(549,889,o),
(589,834,o),
(625,777,c),
(605,777,l),
(624,806,o),
(644,834,o),
(663,862,cs),
(701,917,o),
(739,969,o),
(778,1024,cs),
(1112,1490,l),
(1168,1490,l),
(631,740,l),
(631,774,l),
(1184,0,l),
(1128,0,l),
(774,496,ls),
(755,523,o),
(736,549,o),
(717,576,cs),
(680,629,o),
(642,683,o),
(606,736,c),
(624,736,l),
(605,709,o),
(587,683,o),
(569,656,cs),
(532,602,o),
(496,551,o),
(457,496,cs),
(102,0,l)
);
}
);
width = 1230;
}
);
leftKerningGroup = X2;
rightKerningGroup = X;
unicode = 88;
}
{
glyphname = Y;
layers = (
{
anchors = (
{
name = m.uni0347;
position = "{777, 0}";
},
{
name = m.uni0302_1;
position = "{772, 1490}";
},
{
name = m.uni0328_4;
position = "{980, 0}";
}
);
layerId = "1EC723AD-C41F-43E3-B68D-B2A779A308DC";
shapes = (
{
closed = 1;
nodes = (
(578,0,l),
(578,513,l),
(23,1490,l),
(499,1490,l),
(713,1057,ls),
(732,1019,o),
(749,981,o),
(765,942,cs),
(780,903,o),
(796,862,o),
(813,817,c),
(753,817,l),
(782,906,o),
(810,981,o),
(845,1057,cs),
(1046,1490,l),
(1519,1490,l),
(980,513,l),
(980,0,l)
);
}
);
width = 1542;
},
{
anchors = (
{
name = m.uni0347;
position = "{777, 0}";
},
{
name = m.uni0302_1;
position = "{772, 1490}";
},
{
name = m.uni0328_4;
position = "{980, 0}";
}
);
layerId = "2F0A8C87-DA84-48CB-8FDB-683796859A95";
shapes = (
{
closed = 1;
nodes = (
(581,0,l),
(581,561,l),
(29,1490,l),
(379,1490,l),
(633,1034,ls),
(659,990,o),
(681,946,o),
(703,903,c),
(723,859,o),
(745,811,o),
(767,758,c),
(699,758,l),
(740,864,o),
(780,946,o),
(827,1034,cs),
(1074,1490,l),
(1422,1490,l),
(879,561,l),
(879,0,l)
);
}
);
width = 1451;
},
{
anchors = (
{
name = m.uni0347;
position = "{777, 0}";
},
{
name = m.uni0302_1;
position = "{772, 1490}";
},
{
name = m.uni0328_4;
position = "{980, 0}";
}
);
layerId = "545E045A-B28D-42BD-AE6C-2FB63E8B3292";
shapes = (
{
closed = 1;
nodes = (
(584,0,l),
(584,612,l),
(36,1490,l),
(250,1490,l),
(547,1009,ls),
(579,958,o),
(608,908,o),
(635,860,cs),
(662,811,o),
(689,756,o),
(717,695,c),
(640,695,l),
(695,819,o),
(748,909,o),
(808,1009,cs),
(1104,1490,l),
(1317,1490,l),
(769,612,l),
(769,0,l)
);
}
);
width = 1353;
},
{
anchors = (
{
name = m.uni0347;
position = "{734, 0}";
},
{
name = m.uni0302_1;
position = "{729, 1490}";
},
{
name = m.uni0328_4;
position = "{868, 0}";
}
);
layerId = "9DE19B50-AF62-41B5-96CD-C828EA777CBB";
shapes = (
{
closed = 1;
nodes = (
(611,0,l),
(611,706,l),
(43,1490,l),
(99,1490,l),
(460,993,ls),
(492,950,o),
(523,907,o),
(553,865,c),
(582,822,o),
(613,780,o),
(644,737,c),
(625,737,l),
(686,822,o),
(748,906,o),
(808,993,c),
(1167,1490,l),
(1223,1490,l),
(657,706,l),
(657,0,l)
);
}
);
width = 1266;
}
);
leftKerningGroup = Y2;
rightKerningGroup = Y;
unicode = 89;
}
{
glyphname = backslash;
layers = (
{
layerId = "30DB1A31-A6FD-462E-A165-656579CC7601";
shapes = (
{
closed = 1;
nodes = (
(484,-224,l),
(4,1560,l),
(344,1560,l),
(824,-224,l)
);
}
);
width = 828;
},
{
layerId = "9958C6BA-7FC1-41C8-B3E0-9B3AF71AFF69";
shapes = (
{
closed = 1;
nodes = (
(496,-224,l),
(16,1560,l),
(271,1560,l),
(751,-224,l)
);
}
);
width = 768;
},
{
layerId = "1B8D64CA-D7DF-4852-939C-A0B9329902C0";
shapes = (
{
closed = 1;
nodes = (
(510,-224,l),
(30,1560,l),
(192,1560,l),
(672,-224,l)
);
}
);
width = 702;
},
{
layerId = "B109C6DD-98CC-498D-964F-904F22F997F9";
shapes = (
{
closed = 1;
nodes = (
(514,-224,l),
(34,1560,l),
(82,1560,l),
(562,-224,l)
);
}
);
width = 596;
}
);
leftKerningGroup = V2;
unicode = 92;
}
{
glyphname = asciicircum;
layers = (
{
layerId = "1EC723AD-C41F-43E3-B68D-B2A779A308DC";
shapes = (
{
closed = 1;
nodes = (
(478,1306,l),
(530,1306,l),
(530,1223,l),
(478,1223,l)
);
},
{
closed = 1;
nodes = (
(50,814,l),
(363,1467,l),
(646,1467,l),
(959,814,l),
(682,814,l),
(499,1251,l),
(510,1251,l),
(327,814,l)
);
}
);
width = 1009;
},
{
layerId = "2F0A8C87-DA84-48CB-8FDB-683796859A95";
shapes = (
{
closed = 1;
nodes = (
(459,1332,l),
(511,1332,l),
(511,1254,l),
(459,1254,l)
);
},
{
closed = 1;
nodes = (
(58,814,l),
(365,1455,l),
(607,1455,l),
(914,814,l),
(686,814,l),
(479,1283,l),
(492,1283,l),
(287,814,l)
);
}
);
width = 972;
},
{
layerId = "545E045A-B28D-42BD-AE6C-2FB63E8B3292";
shapes = (
{
closed = 1;
nodes = (
(439,1361,l),
(491,1361,l),
(491,1287,l),
(439,1287,l)
);
},
{
closed = 1;
nodes = (
(66,814,l),
(367,1443,l),
(564,1443,l),
(865,814,l),
(690,814,l),
(458,1317,l),
(473,1317,l),
(243,814,l)
);
}
);
width = 931;
},
{
layerId = "9DE19B50-AF62-41B5-96CD-C828EA777CBB";
shapes = (
{
closed = 1;
nodes = (
(364,1414,l),
(392,1414,l),
(392,1369,l),
(364,1369,l)
);
},
{
closed = 1;
nodes = (
(64,814,l),
(361,1443,l),
(396,1443,l),
(693,814,l),
(640,814,l),
(367,1397,l),
(390,1397,l),
(117,814,l)
);
}
);
width = 757;
}
);
rightKerningGroup = degree;
unicode = 94;
}
{
glyphname = underscore;
layers = (
{
layerId = "1EC723AD-C41F-43E3-B68D-B2A779A308DC";
shapes = (
{
closed = 1;
nodes = (
(1010,0,l),
(1010,-286,l),
(0,-286,l),
(0,0,l)
);
}
);
width = 1010;
},
{
layerId = "2F0A8C87-DA84-48CB-8FDB-683796859A95";
shapes = (
{
closed = 1;
nodes = (
(973,0,l),
(973,-227,l),
(0,-227,l),
(0,0,l)
);
}
);
width = 973;
},
{
layerId = "545E045A-B28D-42BD-AE6C-2FB63E8B3292";
shapes = (
{
closed = 1;
nodes = (
(932,0,l),
(932,-163,l),
(0,-163,l),
(0,0,l)
);
}
);
width = 932;
},
{
layerId = "9DE19B50-AF62-41B5-96CD-C828EA777CBB";
shapes = (
{
closed = 1;
nodes = (
(884,0,l),
(884,-46,l),
(0,-46,l),
(0,0,l)
);
}
);
width = 884;
}
);
unicode = 95;
}
{
glyphname = a;
layers = (
{
anchors = (
{
name = m.uni0347;
position = "{597, 0}";
},
{
name = m.uni0302_1;
position = "{604, 1087}";
},
{
name = m.uni0328_4;
position = "{1114, 0}";
}
);
layerId = "30DB1A31-A6FD-462E-A165-656579CC7601";
shapes = (
{
closed = 1;
nodes = (
(342,-18,o),
(279,-7,o),
(225,17,cs),
(116,63,o),
(50,157,o),
(50,300,cs),
(50,421,o),
(95,505,o),
(169,559,cs),
(243,613,o),
(343,640,o),
(459,648,cs),
(521,652,o),
(571,657,o),
(609,664,cs),
(684,677,o),
(715,702,o),
(715,743,cs),
(715,747,ls),
(715,764,o),
(710,779,o),
(700,792,cs),
(680,816,o),
(643,829,o),
(592,829,cs),
(567,829,o),
(544,826,o),
(524,819,cs),
(484,805,o),
(460,775,o),
(452,731,c),
(88,750,l),
(97,821,o),
(121,883,o),
(162,937,cs),
(243,1044,o),
(391,1106,o),
(604,1106,cs),
(764,1106,o),
(892,1070,o),
(980,1005,cs),
(1068,940,o),
(1114,848,o),
(1114,737,cs),
(1114,0,l),
(732,0,l),
(732,153,l),
(726,153,l),
(703,112,o),
(676,79,o),
(645,54,cs),
(584,4,o),
(506,-18,o),
(413,-18,cs)
);
},
{
closed = 1;
nodes = (
(572,234,o),
(601,240,o),
(628,252,cs),
(682,275,o),
(719,321,o),
(719,385,cs),
(719,474,l),
(699,466,o),
(676,459,o),
(650,453,cs),
(624,447,o),
(593,440,o),
(560,435,cs),
(531,430,o),
(506,423,o),
(487,413,cs),
(447,392,o),
(427,362,o),
(427,325,cs),
(427,305,o),
(432,288,o),
(442,275,cs),
(461,248,o),
(497,234,o),
(542,234,cs)
);
}
);
width = 1208;
},
{
anchors = (
{
name = m.uni0347;
position = "{597, 0}";
},
{
name = m.uni0302_1;
position = "{604, 1087}";
},
{
name = m.uni0328_4;
position = "{1114, 0}";
}
);
layerId = "9958C6BA-7FC1-41C8-B3E0-9B3AF71AFF69";
shapes = (
{
closed = 1;
nodes = (
(365,-19,o),
(302,-7,o),
(247,17,cs),
(136,65,o),
(67,162,o),
(67,305,cs),
(67,428,o),
(116,508,o),
(194,558,cs),
(272,607,o),
(374,630,o),
(485,641,cs),
(549,647,o),
(601,653,o),
(640,659,cs),
(718,670,o),
(751,691,o),
(751,739,cs),
(751,745,ls),
(751,774,o),
(744,800,o),
(730,821,cs),
(703,864,o),
(649,887,o),
(574,887,cs),
(537,887,o),
(504,882,o),
(475,870,cs),
(418,847,o),
(383,804,o),
(372,752,c),
(100,776,l),
(112,845,o),
(138,903,o),
(180,953,cs),
(263,1051,o),
(401,1105,o),
(580,1105,cs),
(710,1105,o),
(825,1075,o),
(909,1014,cs),
(993,952,o),
(1042,860,o),
(1042,735,cs),
(1042,0,l),
(760,0,l),
(760,152,l),
(753,152,l),
(735,119,o),
(712,89,o),
(683,63,cs),
(626,12,o),
(545,-19,o),
(436,-19,cs)
);
},
{
closed = 1;
nodes = (
(564,186,o),
(606,196,o),
(641,214,cs),
(712,251,o),
(753,316,o),
(753,393,cs),
(753,509,l),
(736,497,o),
(701,488,o),
(661,480,cs),
(620,472,o),
(573,464,o),
(534,459,cs),
(498,454,o),
(467,446,o),
(439,434,cs),
(383,411,o),
(348,373,o),
(348,314,cs),
(348,286,o),
(355,263,o),
(370,244,cs),
(397,207,o),
(449,186,o),
(516,186,cs)
);
}
);
width = 1159;
},
{
anchors = (
{
name = m.uni0347;
position = "{597, 0}";
},
{
name = m.uni0302_1;
position = "{604, 1087}";
},
{
name = m.uni0328_4;
position = "{1114, 0}";
}
);
layerId = "1B8D64CA-D7DF-4852-939C-A0B9329902C0";
shapes = (
{
closed = 1;
nodes = (
(389,-21,o),
(326,-8,o),
(270,17,cs),
(157,68,o),
(85,168,o),
(85,311,cs),
(85,436,o),
(139,511,o),
(221,556,cs),
(303,600,o),
(408,620,o),
(513,633,cs),
(580,642,o),
(633,648,o),
(674,653,cs),
(754,662,o),
(789,679,o),
(789,734,cs),
(789,742,ls),
(789,785,o),
(780,822,o),
(763,853,cs),
(727,915,o),
(656,950,o),
(555,950,cs),
(504,950,o),
(460,942,o),
(422,926,cs),
(346,893,o),
(300,836,o),
(285,775,c),
(112,804,l),
(128,870,o),
(157,925,o),
(200,970,cs),
(285,1058,o),
(412,1104,o),
(553,1104,cs),
(652,1104,o),
(753,1080,o),
(833,1023,cs),
(912,966,o),
(963,872,o),
(963,733,cs),
(963,0,l),
(791,0,l),
(791,151,l),
(783,151,l),
(770,126,o),
(751,100,o),
(725,73,cs),
(672,20,o),
(587,-21,o),
(460,-21,cs)
);
},
{
closed = 1;
nodes = (
(555,135,o),
(611,148,o),
(656,173,cs),
(745,224,o),
(789,311,o),
(789,402,cs),
(789,546,l),
(776,531,o),
(729,519,o),
(672,509,cs),
(615,499,o),
(552,489,o),
(505,484,cs),
(463,479,o),
(424,470,o),
(387,457,cs),
(313,431,o),
(263,385,o),
(263,302,cs),
(263,266,o),
(272,236,o),
(291,211,cs),
(328,162,o),
(398,135,o),
(487,135,cs)
);
}
);
width = 1105;
},
{
anchors = (
{
name = m.uni0347;
position = "{567, 0}";
},
{
name = m.uni0302_1;
position = "{569, 1087}";
},
{
name = m.uni0328_4;
position = "{1025, 0}";
}
);
layerId = "B109C6DD-98CC-498D-964F-904F22F997F9";
shapes = (
{
closed = 1;
nodes = (
(379,-20,o),
(322,-8,o),
(269,15,cs),
(163,62,o),
(90,155,o),
(90,290,cs),
(90,373,o),
(117,437,o),
(182,488,cs),
(246,539,o),
(354,574,o),
(521,595,cs),
(578,602,o),
(630,610,o),
(677,619,cs),
(769,637,o),
(828,666,o),
(828,725,cs),
(828,772,ls),
(828,828,o),
(814,878,o),
(787,921,cs),
(731,1007,o),
(629,1057,o),
(501,1057,cs),
(444,1057,o),
(391,1047,o),
(343,1027,cs),
(246,987,o),
(181,911,o),
(165,815,c),
(120,825,l),
(129,879,o),
(152,927,o),
(187,969,cs),
(258,1053,o),
(371,1103,o),
(502,1103,cs),
(613,1103,o),
(704,1069,o),
(771,1009,cs),
(838,949,o),
(874,865,o),
(874,772,cs),
(874,0,l),
(829,0,l),
(829,222,l),
(825,222,l),
(804,174,o),
(774,132,o),
(736,96,cs),
(660,23,o),
(557,-20,o),
(441,-20,cs)
);
},
{
closed = 1;
nodes = (
(511,27,o),
(576,44,o),
(635,78,cs),
(752,146,o),
(828,279,o),
(828,458,cs),
(828,633,l),
(800,610,o),
(762,593,o),
(714,581,cs),
(666,569,o),
(605,559,o),
(530,550,cs),
(432,537,o),
(354,520,o),
(297,498,cs),
(182,453,o),
(137,387,o),
(137,291,cs),
(137,236,o),
(151,188,o),
(178,149,cs),
(232,70,o),
(328,27,o),
(440,27,cs)
);
}
);
width = 1040;
}
);
leftKerningGroup = a2;
rightKerningGroup = a;
unicode = 97;
}
{
glyphname = c;
layers = (
{
anchors = (
{
name = m.uni0347;
position = "{626, 0}";
},
{
name = m.uni0302_1;
position = "{626, 1087}";
},
{
name = m.uni0327_3;
position = "{626, 0}";
}
);
layerId = "30DB1A31-A6FD-462E-A165-656579CC7601";
shapes = (
{
closed = 1;
nodes = (
(509,-22,o),
(407,2,o),
(322,49,cs),
(237,96,o),
(171,162,o),
(124,247,cs),
(77,332,o),
(54,430,o),
(54,542,cs),
(54,655,o),
(77,753,o),
(124,838,cs),
(171,923,o),
(237,989,o),
(322,1036,cs),
(407,1083,o),
(509,1106,o),
(626,1106,cs),
(779,1106,o),
(910,1063,o),
(1004,985,cs),
(1098,907,o),
(1154,796,o),
(1163,663,c),
(787,635,l),
(782,688,o),
(765,729,o),
(738,758,cs),
(711,786,o),
(676,802,o),
(633,802,cs),
(597,802,o),
(566,792,o),
(541,773,cs),
(490,733,o),
(462,656,o),
(462,543,cs),
(462,488,o),
(469,441,o),
(483,402,cs),
(510,325,o),
(562,284,o),
(633,284,cs),
(676,284,o),
(711,300,o),
(738,329,cs),
(765,357,o),
(782,400,o),
(787,455,c),
(1163,427,l),
(1156,292,o),
(1102,181,o),
(1008,102,cs),
(914,23,o),
(782,-22,o),
(626,-22,cs)
);
}
);
width = 1215;
},
{
anchors = (
{
name = m.uni0347;
position = "{626, 0}";
},
{
name = m.uni0302_1;
position = "{626, 1087}";
},
{
name = m.uni0327_3;
position = "{626, 0}";
}
);
layerId = "9958C6BA-7FC1-41C8-B3E0-9B3AF71AFF69";
shapes = (
{
closed = 1;
nodes = (
(499,-23,o),
(405,1,o),
(324,49,cs),
(244,96,o),
(182,162,o),
(137,247,cs),
(92,332,o),
(70,429,o),
(70,541,cs),
(70,654,o),
(92,752,o),
(137,837,cs),
(182,922,o),
(244,988,o),
(324,1036,cs),
(405,1083,o),
(499,1106,o),
(608,1106,cs),
(742,1106,o),
(858,1068,o),
(945,999,cs),
(1032,930,o),
(1087,831,o),
(1103,713,c),
(824,687,l),
(815,743,o),
(791,789,o),
(754,822,cs),
(718,854,o),
(670,873,o),
(611,873,cs),
(559,873,o),
(514,859,o),
(479,832,cs),
(406,776,o),
(368,675,o),
(368,541,cs),
(368,476,o),
(377,418,o),
(397,369,c),
(434,270,o),
(507,212,o),
(611,212,cs),
(670,212,o),
(718,230,o),
(754,263,cs),
(790,296,o),
(814,343,o),
(824,402,c),
(1103,375,l),
(1089,256,o),
(1035,157,o),
(948,88,cs),
(861,17,o),
(743,-23,o),
(608,-23,cs)
);
}
);
width = 1170;
},
{
anchors = (
{
name = m.uni0347;
position = "{626, 0}";
},
{
name = m.uni0302_1;
position = "{626, 1087}";
},
{
name = m.uni0327_3;
position = "{626, 0}";
}
);
layerId = "1B8D64CA-D7DF-4852-939C-A0B9329902C0";
shapes = (
{
closed = 1;
nodes = (
(489,-24,o),
(402,0,o),
(327,48,cs),
(252,95,o),
(193,161,o),
(151,246,cs),
(109,331,o),
(88,428,o),
(88,539,cs),
(88,652,o),
(109,751,o),
(151,836,cs),
(193,921,o),
(252,987,o),
(327,1035,cs),
(402,1082,o),
(489,1106,o),
(588,1106,cs),
(701,1106,o),
(802,1073,o),
(881,1014,cs),
(960,954,o),
(1014,869,o),
(1037,768,c),
(864,743,l),
(851,803,o),
(819,854,o),
(772,891,cs),
(725,927,o),
(664,949,o),
(588,949,cs),
(517,949,o),
(458,931,o),
(411,895,cs),
(315,823,o),
(266,695,o),
(266,539,cs),
(266,462,o),
(278,394,o),
(303,333,cs),
(351,211,o),
(447,134,o),
(588,134,cs),
(664,134,o),
(726,155,o),
(772,192,cs),
(818,229,o),
(849,281,o),
(865,344,c),
(1039,319,l),
(1016,218,o),
(962,132,o),
(883,72,cs),
(803,11,o),
(701,-24,o),
(588,-24,cs)
);
}
);
width = 1121;
},
{
anchors = (
{
name = m.uni0347;
position = "{601, 0}";
},
{
name = m.uni0302_1;
position = "{601, 1087}";
},
{
name = m.uni0327_3;
position = "{601, 0}";
}
);
layerId = "B109C6DD-98CC-498D-964F-904F22F997F9";
shapes = (
{
closed = 1;
nodes = (
(474,-16,o),
(394,8,o),
(324,57,cs),
(254,106,o),
(199,172,o),
(159,257,cs),
(118,341,o),
(98,437,o),
(98,544,cs),
(98,652,o),
(118,748,o),
(159,832,cs),
(199,916,o),
(254,982,o),
(324,1031,cs),
(394,1079,o),
(474,1103,o),
(563,1103,cs),
(678,1103,o),
(771,1060,o),
(839,999,cs),
(907,938,o),
(949,865,o),
(962,806,c),
(918,794,l),
(906,847,o),
(868,912,o),
(808,966,cs),
(747,1020,o),
(666,1058,o),
(563,1058,cs),
(482,1058,o),
(411,1036,o),
(348,992,cs),
(223,904,o),
(145,744,o),
(145,544,cs),
(145,444,o),
(163,355,o),
(200,278,cs),
(272,123,o),
(403,31,o),
(563,31,cs),
(664,31,o),
(748,68,o),
(809,123,cs),
(869,178,o),
(908,241,o),
(920,294,c),
(964,282,l),
(951,225,o),
(909,151,o),
(841,90,cs),
(772,29,o),
(678,-16,o),
(563,-16,cs)
);
}
);
width = 1057;
}
);
leftKerningGroup = c;
rightKerningGroup = b;
unicode = 99;
}
{
glyphname = d;
layers = (
{
anchors = (
{
name = m.uni0302_1;
position = "{472, 1304}";
}
);
layerId = "1EC723AD-C41F-43E3-B68D-B2A779A308DC";
shapes = (
{
closed = 1;
nodes = (
(417,-19,o),
(340,3,o),
(273,47,cs),
(137,135,o),
(54,304,o),
(54,544,cs),
(54,666,o),
(74,769,o),
(115,852,cs),
(196,1019,o),
(337,1106,o),
(498,1106,cs),
(549,1106,o),
(594,1099,o),
(633,1084,cs),
(711,1054,o),
(767,996,o),
(803,921,c),
(806,921,l),
(806,1490,l),
(1207,1490,l),
(1207,0,l),
(810,0,l),
(810,175,l),
(805,175,l),
(789,135,o),
(767,101,o),
(739,72,cs),
(682,14,o),
(602,-19,o),
(503,-19,cs)
);
},
{
closed = 1;
nodes = (
(673,292,o),
(705,303,o),
(732,324,cs),
(787,366,o),
(818,443,o),
(818,544,cs),
(818,596,o),
(811,641,o),
(796,679,cs),
(766,754,o),
(709,797,o),
(636,797,cs),
(600,797,o),
(569,787,o),
(543,766,cs),
(491,725,o),
(464,648,o),
(464,544,cs),
(464,493,o),
(471,448,o),
(484,411,cs),
(511,335,o),
(564,292,o),
(636,292,cs)
);
}
);
width = 1301;
},
{
anchors = (
{
name = m.uni0302_1;
position = "{472, 1304}";
}
);
layerId = "2F0A8C87-DA84-48CB-8FDB-683796859A95";
shapes = (
{
closed = 1;
nodes = (
(439,-20,o),
(360,3,o),
(291,48,cs),
(153,139,o),
(70,309,o),
(70,543,cs),
(70,661,o),
(90,762,o),
(130,846,cs),
(210,1013,o),
(353,1105,o),
(525,1105,cs),
(580,1105,o),
(628,1097,o),
(669,1081,c),
(749,1047,o),
(805,988,o),
(840,921,c),
(846,921,l),
(846,1490,l),
(1138,1490,l),
(1138,0,l),
(850,0,l),
(850,171,l),
(842,171,l),
(825,135,o),
(803,104,o),
(774,75,cs),
(717,17,o),
(635,-20,o),
(527,-20,cs)
);
},
{
closed = 1;
nodes = (
(661,217,o),
(705,231,o),
(741,258,cs),
(815,313,o),
(856,414,o),
(856,544,cs),
(856,609,o),
(847,667,o),
(827,716,cs),
(788,813,o),
(712,869,o),
(609,869,cs),
(559,869,o),
(516,856,o),
(480,829,cs),
(408,776,o),
(369,676,o),
(369,544,cs),
(369,478,o),
(379,420,o),
(398,372,cs),
(436,274,o),
(510,217,o),
(609,217,cs)
);
}
);
width = 1255;
},
{
anchors = (
{
name = m.uni0302_1;
position = "{472, 1304}";
}
);
layerId = "545E045A-B28D-42BD-AE6C-2FB63E8B3292";
shapes = (
{
closed = 1;
nodes = (
(462,-22,o),
(381,2,o),
(311,49,cs),
(170,143,o),
(88,315,o),
(88,542,cs),
(88,655,o),
(108,754,o),
(147,839,cs),
(226,1007,o),
(370,1104,o),
(554,1104,cs),
(613,1104,o),
(664,1095,o),
(707,1077,cs),
(791,1040,o),
(846,979,o),
(881,920,c),
(889,920,l),
(889,1490,l),
(1064,1490,l),
(1064,0,l),
(894,0,l),
(894,167,l),
(883,167,l),
(864,136,o),
(841,107,o),
(812,78,cs),
(754,20,o),
(671,-22,o),
(554,-22,cs)
);
},
{
closed = 1;
nodes = (
(647,135,o),
(704,152,o),
(751,187,cs),
(846,255,o),
(897,382,o),
(897,543,cs),
(897,624,o),
(885,695,o),
(860,756,cs),
(811,877,o),
(715,948,o),
(580,948,cs),
(515,948,o),
(459,931,o),
(412,898,cs),
(318,831,o),
(266,707,o),
(266,543,cs),
(266,461,o),
(279,390,o),
(304,329,cs),
(354,207,o),
(451,135,o),
(580,135,cs)
);
}
);
width = 1206;
},
{
anchors = (
{
name = m.uni0302_1;
position = "{469, 1304}";
}
);
layerId = "9DE19B50-AF62-41B5-96CD-C828EA777CBB";
shapes = (
{
closed = 1;
nodes = (
(458,-20,o),
(380,4,o),
(313,52,cs),
(178,148,o),
(98,322,o),
(98,542,cs),
(98,651,o),
(117,748,o),
(156,833,cs),
(232,1002,o),
(372,1103,o),
(545,1103,cs),
(608,1103,o),
(667,1090,o),
(721,1065,cs),
(828,1014,o),
(907,919,o),
(939,802,c),
(942,802,l),
(942,1490,l),
(988,1490,l),
(988,0,l),
(942,0,l),
(942,281,l),
(939,281,l),
(922,222,o),
(894,170,o),
(857,125,cs),
(781,33,o),
(673,-20,o),
(546,-20,cs)
);
},
{
closed = 1;
nodes = (
(626,26,o),
(696,48,o),
(755,92,cs),
(874,180,o),
(942,341,o),
(942,542,cs),
(942,643,o),
(926,733,o),
(893,811,cs),
(828,966,o),
(706,1058,o),
(545,1058,cs),
(467,1058,o),
(398,1036,o),
(338,993,cs),
(217,905,o),
(145,745,o),
(145,542,cs),
(145,441,o),
(162,351,o),
(196,274,cs),
(263,119,o),
(389,26,o),
(545,26,cs)
);
}
);
width = 1154;
}
);
leftKerningGroup = c;
rightKerningGroup = H;
unicode = 100;
}
{
glyphname = e;
layers = (
{
anchors = (
{
name = m.uni0347;
position = "{611, 0}";
},
{
name = m.uni0302_1;
position = "{611, 1087}";
},
{
name = m.uni0327_3;
position = "{619, 0}";
},
{
name = m.uni0328_4;
position = "{1158, 326}";
}
);
layerId = "1EC723AD-C41F-43E3-B68D-B2A779A308DC";
shapes = (
{
closed = 1;
nodes = (
(509,-22,o),
(409,1,o),
(324,48,cs),
(238,94,o),
(172,160,o),
(125,245,cs),
(78,330,o),
(54,429,o),
(54,542,cs),
(54,654,o),
(78,752,o),
(125,837,cs),
(172,922,o),
(237,988,o),
(321,1035,cs),
(405,1082,o),
(503,1106,o),
(614,1106,cs),
(779,1106,o),
(918,1053,o),
(1016,954,cs),
(1114,855,o),
(1168,718,o),
(1168,549,cs),
(1168,450,l),
(175,450,l),
(175,672,l),
(983,672,l),
(798,629,l),
(798,670,o),
(791,705,o),
(778,734,c),
(750,791,o),
(698,822,o),
(622,822,cs),
(584,822,o),
(552,815,o),
(526,800,cs),
(500,785,o),
(480,763,o),
(466,734,cs),
(452,705,o),
(445,670,o),
(445,629,cs),
(445,460,ls),
(445,417,o),
(453,380,o),
(469,350,cs),
(500,289,o),
(558,258,o),
(635,258,cs),
(663,258,o),
(688,262,o),
(711,270,cs),
(756,285,o),
(789,313,o),
(804,352,c),
(1158,326,l),
(1143,257,o),
(1111,197,o),
(1062,145,cs),
(964,40,o),
(811,-22,o),
(623,-22,cs)
);
}
);
width = 1218;
},
{
anchors = (
{
name = m.uni0347;
position = "{611, 0}";
},
{
name = m.uni0302_1;
position = "{611, 1087}";
},
{
name = m.uni0327_3;
position = "{619, 0}";
},
{
name = m.uni0328_4;
position = "{1158, 326}";
}
);
layerId = "2F0A8C87-DA84-48CB-8FDB-683796859A95";
shapes = (
{
closed = 1;
nodes = (
(500,-23,o),
(404,1,o),
(324,48,cs),
(243,94,o),
(181,160,o),
(137,245,cs),
(92,330,o),
(70,429,o),
(70,540,cs),
(70,652,o),
(93,750,o),
(137,835,cs),
(181,920,o),
(242,987,o),
(321,1035,cs),
(401,1082,o),
(493,1106,o),
(597,1106,cs),
(746,1106,o),
(876,1056,o),
(970,960,cs),
(1064,864,o),
(1117,726,o),
(1117,549,cs),
(1117,469,l),
(184,469,l),
(184,656,l),
(975,656,l),
(841,607,l),
(841,664,o),
(832,713,o),
(814,754,cs),
(775,837,o),
(704,883,o),
(601,883,cs),
(550,883,o),
(507,873,o),
(471,850,cs),
(435,827,o),
(407,796,o),
(387,755,cs),
(368,715,o),
(358,668,o),
(358,615,cs),
(358,485,ls),
(358,426,o),
(369,374,o),
(390,331,cs),
(432,245,o),
(510,198,o),
(616,198,cs),
(653,198,o),
(687,203,o),
(716,215,c),
(775,236,o),
(817,277,o),
(837,333,c),
(1103,308,l),
(1088,243,o),
(1058,185,o),
(1013,136,cs),
(921,36,o),
(781,-23,o),
(610,-23,cs)
);
}
);
width = 1183;
},
{
anchors = (
{
name = m.uni0347;
position = "{611, 0}";
},
{
name = m.uni0302_1;
position = "{611, 1087}";
},
{
name = m.uni0327_3;
position = "{619, 0}";
},
{
name = m.uni0328_4;
position = "{1158, 326}";
}
);
layerId = "545E045A-B28D-42BD-AE6C-2FB63E8B3292";
shapes = (
{
closed = 1;
nodes = (
(490,-24,o),
(399,0,o),
(324,48,cs),
(248,95,o),
(190,161,o),
(149,246,cs),
(108,331,o),
(88,428,o),
(88,538,cs),
(88,649,o),
(109,748,o),
(150,833,cs),
(191,918,o),
(248,985,o),
(322,1034,cs),
(396,1082,o),
(482,1106,o),
(579,1106,cs),
(711,1106,o),
(831,1060,o),
(920,967,cs),
(1009,874,o),
(1062,735,o),
(1062,550,cs),
(1062,489,l),
(194,489,l),
(194,638,l),
(966,638,l),
(888,584,l),
(888,657,o),
(876,721,o),
(852,776,cs),
(803,886,o),
(710,950,o),
(579,950,cs),
(514,950,o),
(458,935,o),
(411,904,cs),
(364,873,o),
(327,831,o),
(302,778,cs),
(276,725,o),
(263,665,o),
(263,599,cs),
(263,512,ls),
(263,435,o),
(277,368,o),
(304,311,cs),
(358,197,o),
(459,133,o),
(596,133,cs),
(643,133,o),
(685,140,o),
(722,155,cs),
(796,183,o),
(848,237,o),
(872,312,c),
(1044,288,l),
(1029,227,o),
(1000,173,o),
(959,126,cs),
(875,32,o),
(748,-24,o),
(595,-24,cs)
);
}
);
width = 1146;
},
{
anchors = (
{
name = m.uni0347;
position = "{593, 0}";
},
{
name = m.uni0302_1;
position = "{593, 1087}";
},
{
name = m.uni0327_3;
position = "{601, 0}";
},
{
name = m.uni0328_4;
position = "{1100, 295}";
}
);
layerId = "9DE19B50-AF62-41B5-96CD-C828EA777CBB";
shapes = (
{
closed = 1;
nodes = (
(480,-20,o),
(397,5,o),
(326,54,cs),
(254,103,o),
(198,170,o),
(158,255,cs),
(118,340,o),
(98,435,o),
(98,542,cs),
(98,650,o),
(118,746,o),
(158,831,cs),
(198,915,o),
(253,981,o),
(324,1030,cs),
(394,1079,o),
(474,1103,o),
(563,1103,cs),
(695,1103,o),
(809,1047,o),
(891,950,cs),
(973,853,o),
(1018,721,o),
(1018,569,cs),
(1018,544,l),
(122,544,l),
(122,590,l),
(991,590,l),
(973,575,l),
(973,666,o),
(955,749,o),
(920,822,cs),
(848,968,o),
(720,1057,o),
(563,1057,cs),
(484,1057,o),
(413,1035,o),
(350,991,cs),
(287,947,o),
(237,887,o),
(200,811,cs),
(163,734,o),
(144,647,o),
(144,550,cs),
(144,545,ls),
(144,448,o),
(162,360,o),
(197,282,cs),
(268,125,o),
(398,26,o),
(574,26,cs),
(638,26,o),
(695,38,o),
(745,62,cs),
(845,110,o),
(915,190,o),
(943,270,c),
(986,257,l),
(970,210,o),
(943,166,o),
(905,123,cs),
(828,38,o),
(714,-20,o),
(573,-20,cs)
);
}
);
width = 1110;
}
);
leftKerningGroup = c;
rightKerningGroup = b;
unicode = 101;
}
{
glyphname = f;
layers = (
{
anchors = (
{
name = m.uni0347;
position = "{406, 0}";
},
{
name = m.uni0302_1;
position = "{463, 1521}";
}
);
layerId = "30DB1A31-A6FD-462E-A165-656579CC7601";
shapes = (
{
closed = 1;
nodes = (
(822,1087,l),
(822,789,l),
(21,789,l),
(21,1087,l)
);
},
{
closed = 1;
nodes = (
(207,0,l),
(207,1151,ls),
(207,1405,o),
(345,1525,o),
(606,1525,c),
(685,1527,o),
(765,1520,o),
(844,1509,c),
(815,1213,l),
(788,1218,o),
(741,1221,o),
(708,1221,cs),
(632,1221,o),
(607,1188,o),
(607,1124,cs),
(607,0,l)
);
}
);
width = 869;
},
{
anchors = (
{
name = m.uni0347;
position = "{406, 0}";
},
{
name = m.uni0302_1;
position = "{463, 1521}";
}
);
layerId = "9958C6BA-7FC1-41C8-B3E0-9B3AF71AFF69";
shapes = (
{
closed = 1;
nodes = (
(731,1087,l),
(731,860,l),
(20,860,l),
(20,1087,l)
);
},
{
closed = 1;
nodes = (
(214,0,l),
(214,1201,ls),
(214,1416,o),
(349,1525,o),
(565,1525,cs),
(637,1526,o),
(704,1519,o),
(754,1509,c),
(727,1284,l),
(705,1288,o),
(661,1292,o),
(626,1292,cs),
(539,1292,o),
(506,1252,o),
(506,1172,cs),
(506,0,l)
);
}
);
width = 785;
},
{
anchors = (
{
name = m.uni0347;
position = "{406, 0}";
},
{
name = m.uni0302_1;
position = "{463, 1521}";
}
);
layerId = "1B8D64CA-D7DF-4852-939C-A0B9329902C0";
shapes = (
{
closed = 1;
nodes = (
(633,1087,l),
(633,937,l),
(18,937,l),
(18,1087,l)
);
},
{
closed = 1;
nodes = (
(222,0,l),
(222,1256,ls),
(222,1428,o),
(353,1525,o),
(520,1525,cs),
(585,1525,o),
(637,1517,o),
(657,1510,c),
(632,1360,l),
(616,1364,o),
(575,1369,o),
(538,1369,cs),
(438,1369,o),
(397,1322,o),
(397,1223,cs),
(397,0,l)
);
}
);
width = 693;
},
{
anchors = (
{
name = m.uni0347;
position = "{328, 0}";
},
{
name = m.uni0302_1;
position = "{395, 1521}";
}
);
layerId = "B109C6DD-98CC-498D-964F-904F22F997F9";
shapes = (
{
closed = 1;
nodes = (
(508,1087,l),
(508,1041,l),
(6,1041,l),
(6,1087,l)
);
},
{
closed = 1;
nodes = (
(209,0,l),
(209,1296,ls),
(209,1438,o),
(295,1523,o),
(429,1523,cs),
(462,1523,o),
(493,1522,o),
(520,1515,c),
(513,1470,l),
(488,1475,o),
(460,1478,o),
(428,1478,cs),
(320,1478,o),
(255,1413,o),
(255,1296,cs),
(255,0,l)
);
}
);
width = 545;
}
);
leftKerningGroup = f2;
rightKerningGroup = f;
unicode = 102;
}
{
glyphname = g;
layers = (
{
anchors = (
{
name = m.uni0347;
position = "{635, -416}";
},
{
name = m.uni0302_1;
position = "{636, 1087}";
}
);
layerId = "1EC723AD-C41F-43E3-B68D-B2A779A308DC";
shapes = (
{
closed = 1;
nodes = (
(525,-437,o),
(432,-423,o),
(357,-394,cs),
(205,-336,o),
(120,-231,o),
(99,-100,c),
(464,-74,l),
(468,-92,o),
(478,-108,o),
(493,-122,cs),
(523,-149,o),
(571,-164,o),
(634,-164,cs),
(694,-164,o),
(739,-149,o),
(769,-120,c),
(798,-90,o),
(813,-44,o),
(813,18,cs),
(813,194,l),
(798,194,l),
(783,155,o),
(761,122,o),
(734,95,c),
(678,42,o),
(599,15,o),
(502,15,cs),
(417,15,o),
(340,36,o),
(273,77,cs),
(137,160,o),
(54,321,o),
(54,550,cs),
(54,670,o),
(74,771,o),
(115,854,cs),
(196,1019,o),
(338,1106,o),
(499,1106,cs),
(550,1106,o),
(596,1098,o),
(635,1083,cs),
(714,1051,o),
(771,993,o),
(807,918,c),
(812,918,l),
(812,1087,l),
(1209,1087,l),
(1209,60,ls),
(1209,-51,o),
(1186,-144,o),
(1140,-218,cs),
(1093,-291,o),
(1027,-346,o),
(941,-383,cs),
(855,-419,o),
(753,-437,o),
(635,-437,cs)
);
},
{
closed = 1;
nodes = (
(673,312,o),
(705,322,o),
(732,341,cs),
(787,380,o),
(818,455,o),
(818,554,cs),
(818,605,o),
(811,649,o),
(796,686,cs),
(766,759,o),
(711,801,o),
(636,801,cs),
(600,801,o),
(569,791,o),
(543,771,cs),
(491,731,o),
(464,655,o),
(464,554,cs),
(464,504,o),
(471,461,o),
(484,424,cs),
(511,351,o),
(563,312,o),
(636,312,cs)
);
}
);
width = 1303;
},
{
anchors = (
{
name = m.uni0347;
position = "{635, -416}";
},
{
name = m.uni0302_1;
position = "{636, 1087}";
}
);
layerId = "2F0A8C87-DA84-48CB-8FDB-683796859A95";
shapes = (
{
closed = 1;
nodes = (
(517,-437,o),
(434,-424,o),
(366,-398,cs),
(227,-347,o),
(144,-251,o),
(118,-130,c),
(384,-94,l),
(393,-117,o),
(406,-139,o),
(426,-159,cs),
(465,-197,o),
(527,-221,o),
(613,-221,cs),
(688,-221,o),
(746,-202,o),
(788,-166,c),
(830,-128,o),
(850,-71,o),
(850,5,cs),
(850,189,l),
(838,189,l),
(821,154,o),
(798,122,o),
(771,95,cs),
(714,40,o),
(634,7,o),
(526,7,cs),
(439,7,o),
(361,29,o),
(292,72,cs),
(154,157,o),
(70,321,o),
(70,548,cs),
(70,664,o),
(90,764,o),
(130,847,cs),
(210,1013,o),
(354,1105,o),
(526,1105,cs),
(581,1105,o),
(629,1097,o),
(670,1080,cs),
(751,1046,o),
(808,986,o),
(845,917,c),
(852,917,l),
(852,1087,l),
(1140,1087,l),
(1140,24,ls),
(1140,-81,o),
(1118,-168,o),
(1073,-237,cs),
(1028,-305,o),
(966,-355,o),
(887,-388,cs),
(807,-421,o),
(716,-437,o),
(613,-437,cs)
);
},
{
closed = 1;
nodes = (
(661,237,o),
(705,250,o),
(742,275,cs),
(816,326,o),
(856,423,o),
(856,551,cs),
(856,616,o),
(847,673,o),
(827,721,cs),
(788,816,o),
(713,872,o),
(610,872,cs),
(560,872,o),
(516,858,o),
(480,832,cs),
(407,779,o),
(369,681,o),
(369,551,cs),
(369,486,o),
(379,430,o),
(398,383,cs),
(436,289,o),
(509,237,o),
(610,237,cs)
);
}
);
width = 1257;
},
{
anchors = (
{
name = m.uni0347;
position = "{635, -416}";
},
{
name = m.uni0302_1;
position = "{636, 1087}";
}
);
layerId = "545E045A-B28D-42BD-AE6C-2FB63E8B3292";
shapes = (
{
closed = 1;
nodes = (
(509,-437,o),
(437,-426,o),
(375,-403,cs),
(251,-358,o),
(170,-272,o),
(138,-163,c),
(298,-116,l),
(311,-145,o),
(329,-173,o),
(354,-199,cs),
(403,-250,o),
(479,-283,o),
(590,-283,cs),
(681,-283,o),
(754,-260,o),
(809,-215,cs),
(864,-169,o),
(891,-100,o),
(891,-9,cs),
(891,183,l),
(882,183,l),
(863,152,o),
(839,122,o),
(811,94,cs),
(754,38,o),
(672,-1,o),
(553,-1,cs),
(463,-1,o),
(383,21,o),
(313,66,cs),
(172,154,o),
(88,322,o),
(88,546,cs),
(88,658,o),
(108,756,o),
(147,840,cs),
(226,1007,o),
(371,1104,o),
(555,1104,cs),
(614,1104,o),
(665,1095,o),
(708,1077,cs),
(792,1041,o),
(849,979,o),
(886,915,c),
(895,915,l),
(895,1087,l),
(1065,1087,l),
(1065,-14,ls),
(1065,-114,o),
(1044,-195,o),
(1001,-258,cs),
(958,-320,o),
(900,-365,o),
(828,-394,cs),
(755,-423,o),
(676,-437,o),
(590,-437,cs)
);
},
{
closed = 1;
nodes = (
(648,156,o),
(705,172,o),
(752,204,cs),
(847,267,o),
(898,388,o),
(898,548,cs),
(898,628,o),
(886,698,o),
(861,758,cs),
(812,877,o),
(716,948,o),
(581,948,cs),
(516,948,o),
(459,931,o),
(412,898,cs),
(317,831,o),
(266,709,o),
(266,548,cs),
(266,467,o),
(279,397,o),
(304,338,cs),
(355,221,o),
(450,156,o),
(581,156,cs)
);
}
);
width = 1207;
},
{
anchors = (
{
name = m.uni0347;
position = "{598, -415}";
},
{
name = m.uni0302_1;
position = "{620, 1087}";
}
);
layerId = "9DE19B50-AF62-41B5-96CD-C828EA777CBB";
shapes = (
{
closed = 1;
nodes = (
(485,-434,o),
(420,-423,o),
(365,-402,cs),
(254,-359,o),
(182,-276,o),
(150,-165,c),
(196,-156,l),
(209,-205,o),
(232,-246,o),
(265,-281,cs),
(330,-350,o),
(429,-388,o),
(558,-388,cs),
(681,-388,o),
(775,-355,o),
(842,-290,cs),
(909,-225,o),
(942,-132,o),
(942,-11,cs),
(942,281,l),
(939,281,l),
(922,222,o),
(894,170,o),
(856,127,cs),
(779,40,o),
(669,-8,o),
(546,-8,cs),
(459,-8,o),
(381,15,o),
(314,61,cs),
(179,153,o),
(98,323,o),
(98,542,cs),
(98,652,o),
(117,749,o),
(156,834,cs),
(232,1002,o),
(371,1103,o),
(546,1103,cs),
(610,1103,o),
(669,1090,o),
(722,1065,cs),
(829,1014,o),
(906,921,o),
(939,801,c),
(943,801,l),
(943,1087,l),
(988,1087,l),
(988,-11,ls),
(988,-100,o),
(971,-176,o),
(938,-239,cs),
(904,-302,o),
(855,-351,o),
(790,-384,cs),
(725,-417,o),
(648,-434,o),
(558,-434,cs)
);
},
{
closed = 1;
nodes = (
(625,39,o),
(695,59,o),
(755,100,cs),
(874,181,o),
(942,337,o),
(942,542,cs),
(942,644,o),
(926,734,o),
(894,811,cs),
(829,966,o),
(707,1058,o),
(546,1058,cs),
(467,1058,o),
(398,1036,o),
(337,993,cs),
(216,905,o),
(145,745,o),
(145,542,cs),
(145,441,o),
(162,352,o),
(196,277,cs),
(264,126,o),
(389,39,o),
(546,39,cs)
);
}
);
width = 1154;
}
);
leftKerningGroup = c;
rightKerningGroup = g;
unicode = 103;
}
{
glyphname = h;
layers = (
{
anchors = (
{
name = m.uni0347;
position = "{649, 0}";
},
{
name = m.uni0302_1;
position = "{291, 1490}";
},
{
name = m.uni0327_3;
position = "{294, 0}";
}
);
layerId = "30DB1A31-A6FD-462E-A165-656579CC7601";
shapes = (
{
closed = 1;
nodes = (
(495,0,l),
(94,0,l),
(94,1490,l),
(490,1490,l),
(490,799,l),
(453,799,l),
(482,888,o),
(526,961,o),
(585,1019,cs),
(644,1077,o),
(726,1106,o),
(831,1106,cs),
(910,1106,o),
(978,1089,o),
(1034,1054,cs),
(1145,985,o),
(1205,856,o),
(1205,689,cs),
(1205,0,l),
(803,0,l),
(803,603,ls),
(803,657,o),
(790,699,o),
(763,729,cs),
(736,759,o),
(699,774,o),
(650,774,cs),
(618,774,o),
(591,767,o),
(568,754,cs),
(522,726,o),
(495,673,o),
(495,594,cs)
);
}
);
width = 1299;
},
{
anchors = (
{
name = m.uni0347;
position = "{649, 0}";
},
{
name = m.uni0302_1;
position = "{291, 1490}";
},
{
name = m.uni0327_3;
position = "{294, 0}";
}
);
layerId = "9958C6BA-7FC1-41C8-B3E0-9B3AF71AFF69";
shapes = (
{
closed = 1;
nodes = (
(410,0,l),
(117,0,l),
(117,1490,l),
(407,1490,l),
(407,811,l),
(368,811,l),
(399,905,o),
(445,977,o),
(506,1029,cs),
(567,1079,o),
(644,1105,o),
(739,1105,cs),
(815,1105,o),
(882,1089,o),
(939,1056,cs),
(1053,990,o),
(1118,864,o),
(1118,686,cs),
(1118,0,l),
(825,0,l),
(825,635,ls),
(825,706,o),
(807,760,o),
(772,799,c),
(736,837,o),
(688,856,o),
(625,856,cs),
(583,856,o),
(546,847,o),
(514,830,cs),
(450,794,o),
(410,724,o),
(410,618,cs)
);
}
);
width = 1235;
},
{
anchors = (
{
name = m.uni0347;
position = "{649, 0}";
},
{
name = m.uni0302_1;
position = "{291, 1490}";
},
{
name = m.uni0327_3;
position = "{294, 0}";
}
);
layerId = "1B8D64CA-D7DF-4852-939C-A0B9329902C0";
shapes = (
{
closed = 1;
nodes = (
(317,0,l),
(142,0,l),
(142,1490,l),
(317,1490,l),
(317,824,l),
(276,824,l),
(310,923,o),
(358,995,o),
(421,1039,cs),
(483,1082,o),
(556,1104,o),
(640,1104,cs),
(713,1104,o),
(779,1089,o),
(837,1058,cs),
(953,996,o),
(1024,872,o),
(1024,683,cs),
(1024,0,l),
(848,0,l),
(848,670,ls),
(848,759,o),
(826,827,o),
(782,874,cs),
(737,921,o),
(676,945,o),
(597,945,cs),
(545,945,o),
(498,934,o),
(456,912,cs),
(371,868,o),
(317,780,o),
(317,644,cs)
);
}
);
width = 1166;
},
{
anchors = (
{
name = m.uni0347;
position = "{633, 0}";
},
{
name = m.uni0302_1;
position = "{251, 1490}";
},
{
name = m.uni0327_3;
position = "{254, 0}";
}
);
layerId = "B109C6DD-98CC-498D-964F-904F22F997F9";
shapes = (
{
closed = 1;
nodes = (
(212,0,l),
(166,0,l),
(166,1490,l),
(212,1490,l),
(212,848,l),
(201,848,l),
(224,933,o),
(272,997,o),
(343,1040,cs),
(414,1082,o),
(491,1103,o),
(576,1103,cs),
(653,1103,o),
(720,1087,o),
(779,1055,cs),
(896,990,o),
(967,874,o),
(967,719,cs),
(967,0,l),
(920,0,l),
(920,720,ls),
(920,821,o),
(888,903,o),
(824,965,cs),
(760,1026,o),
(677,1057,o),
(576,1057,cs),
(507,1057,o),
(446,1043,o),
(391,1014,cs),
(281,956,o),
(212,851,o),
(212,719,cs)
);
}
);
width = 1133;
}
);
leftKerningGroup = B2;
rightKerningGroup = a;
unicode = 104;
}
{
glyphname = l.ss02;
layers = (
{
anchors = (
{
name = m.uni0347;
position = "{351, 0}";
},
{
name = m.uni0302_1;
position = "{295, 1490}";
}
);
layerId = "30DB1A31-A6FD-462E-A165-656579CC7601";
shapes = (
{
closed = 1;
nodes = (
(357,-3,o),
(255,23,o),
(191,75,cs),
(126,127,o),
(94,211,o),
(94,326,cs),
(94,1490,l),
(495,1490,l),
(495,365,ls),
(495,342,o),
(501,325,o),
(514,313,cs),
(527,301,o),
(545,295,o),
(570,295,cs),
(590,295,o),
(605,295,o),
(616,298,c),
(645,13,l),
(610,6,o),
(560,-3,o),
(497,-3,cs)
);
}
);
width = 663;
},
{
anchors = (
{
name = m.uni0347;
position = "{351, 0}";
},
{
name = m.uni0302_1;
position = "{295, 1490}";
}
);
layerId = "9958C6BA-7FC1-41C8-B3E0-9B3AF71AFF69";
shapes = (
{
closed = 1;
nodes = (
(335,-3,o),
(251,20,o),
(198,66,cs),
(144,113,o),
(117,187,o),
(117,286,cs),
(117,1490,l),
(410,1490,l),
(410,322,ls),
(410,287,o),
(416,262,o),
(429,248,cs),
(442,233,o),
(464,225,o),
(497,225,cs),
(519,225,o),
(536,226,o),
(548,229,c),
(572,9,l),
(542,3,o),
(500,-3,o),
(452,-3,cs)
);
}
);
width = 593;
},
{
anchors = (
{
name = m.uni0347;
position = "{351, 0}";
},
{
name = m.uni0302_1;
position = "{295, 1490}";
}
);
layerId = "1B8D64CA-D7DF-4852-939C-A0B9329902C0";
shapes = (
{
closed = 1;
nodes = (
(312,-4,o),
(246,16,o),
(205,57,cs),
(163,98,o),
(142,160,o),
(142,243,cs),
(142,1490,l),
(317,1490,l),
(317,275,ls),
(317,227,o),
(324,194,o),
(337,177,cs),
(350,159,o),
(377,150,o),
(418,150,cs),
(442,150,o),
(461,151,o),
(474,154,c),
(492,5,l),
(468,0,o),
(435,-4,o),
(403,-4,cs)
);
}
);
width = 517;
},
{
anchors = (
{
name = m.uni0347;
position = "{320, 0}";
},
{
name = m.uni0302_1;
position = "{255, 1490}";
}
);
layerId = "B109C6DD-98CC-498D-964F-904F22F997F9";
shapes = (
{
closed = 1;
nodes = (
(305,-8,o),
(256,2,o),
(220,31,cs),
(184,60,o),
(166,108,o),
(166,176,cs),
(166,1490,l),
(212,1490,l),
(212,176,ls),
(212,120,o),
(225,83,o),
(252,65,cs),
(279,46,o),
(317,40,o),
(367,46,cs),
(374,47,o),
(373,47,o),
(380,47,c),
(386,2,l),
(381,1,o),
(375,0,o),
(368,-1,cs)
);
}
);
width = 416;
}
);
leftKerningGroup = B2;
unicode = (108,57424);
}
{
glyphname = m;
layers = (
{
anchors = (
{
name = m.uni0347;
position = "{956, 0}";
},
{
name = m.uni0302_1;
position = "{955, 1087}";
}
);
layerId = "30DB1A31-A6FD-462E-A165-656579CC7601";
shapes = (
{
closed = 1;
nodes = (
(94,0,l),
(94,1087,l),
(470,1087,l),
(483,808,l),
(462,808,l),
(479,879,o),
(505,936,o),
(540,980,cs),
(608,1067,o),
(704,1106,o),
(805,1106,cs),
(884,1106,o),
(951,1082,o),
(1006,1033,cs),
(1061,984,o),
(1099,904,o),
(1120,792,c),
(1084,792,l),
(1099,867,o),
(1126,927,o),
(1164,973,cs),
(1239,1065,o),
(1346,1106,o),
(1457,1106,cs),
(1528,1106,o),
(1590,1091,o),
(1644,1060,cs),
(1752,998,o),
(1816,883,o),
(1816,730,cs),
(1816,0,l),
(1416,0,l),
(1416,630,ls),
(1416,677,o),
(1404,715,o),
(1379,743,cs),
(1354,771,o),
(1320,785,o),
(1279,785,cs),
(1252,785,o),
(1229,779,o),
(1209,766,cs),
(1169,741,o),
(1147,694,o),
(1147,629,cs),
(1147,0,l),
(765,0,l),
(765,630,ls),
(765,678,o),
(753,716,o),
(728,744,cs),
(703,771,o),
(670,785,o),
(628,785,cs),
(601,785,o),
(578,779,o),
(558,767,cs),
(518,742,o),
(495,694,o),
(495,629,cs),
(495,0,l)
);
}
);
width = 1910;
},
{
anchors = (
{
name = m.uni0347;
position = "{956, 0}";
},
{
name = m.uni0302_1;
position = "{955, 1087}";
}
);
layerId = "9958C6BA-7FC1-41C8-B3E0-9B3AF71AFF69";
shapes = (
{
closed = 1;
nodes = (
(117,0,l),
(117,1087,l),
(395,1087,l),
(401,830,l),
(382,830,l),
(400,894,o),
(426,946,o),
(460,987,cs),
(527,1068,o),
(620,1106,o),
(719,1106,cs),
(800,1106,o),
(867,1082,o),
(922,1034,cs),
(976,985,o),
(1012,915,o),
(1030,821,c),
(997,821,l),
(1012,884,o),
(1038,937,o),
(1074,979,cs),
(1145,1063,o),
(1250,1106,o),
(1363,1106,cs),
(1432,1106,o),
(1492,1092,o),
(1546,1062,cs),
(1653,1003,o),
(1719,889,o),
(1719,727,cs),
(1719,0,l),
(1427,0,l),
(1427,674,ls),
(1427,737,o),
(1410,785,o),
(1375,816,cs),
(1340,847,o),
(1297,863,o),
(1246,863,cs),
(1208,863,o),
(1176,854,o),
(1148,838,cs),
(1091,804,o),
(1060,743,o),
(1060,664,cs),
(1060,0,l),
(777,0,l),
(777,682,ls),
(777,738,o),
(761,781,o),
(728,814,cs),
(695,846,o),
(652,863,o),
(600,863,cs),
(565,863,o),
(533,855,o),
(504,839,cs),
(446,806,o),
(410,742,o),
(410,651,cs),
(410,0,l)
);
}
);
width = 1836;
},
{
anchors = (
{
name = m.uni0347;
position = "{956, 0}";
},
{
name = m.uni0302_1;
position = "{955, 1087}";
}
);
layerId = "1B8D64CA-D7DF-4852-939C-A0B9329902C0";
shapes = (
{
closed = 1;
nodes = (
(142,0,l),
(142,1087,l),
(313,1087,l),
(313,854,l),
(296,854,l),
(314,910,o),
(340,957,o),
(373,994,cs),
(440,1069,o),
(530,1107,o),
(626,1107,cs),
(708,1107,o),
(776,1083,o),
(830,1035,cs),
(884,986,o),
(918,926,o),
(933,853,c),
(903,853,l),
(918,903,o),
(942,947,o),
(976,985,cs),
(1044,1061,o),
(1145,1107,o),
(1262,1107,cs),
(1327,1107,o),
(1386,1093,o),
(1439,1065,cs),
(1546,1009,o),
(1614,896,o),
(1614,723,cs),
(1614,0,l),
(1439,0,l),
(1439,721,ls),
(1439,802,o),
(1416,860,o),
(1371,895,cs),
(1325,930,o),
(1272,947,o),
(1211,947,cs),
(1161,947,o),
(1118,936,o),
(1081,915,cs),
(1007,872,o),
(966,797,o),
(966,701,cs),
(966,0,l),
(791,0,l),
(791,739,ls),
(791,802,o),
(770,852,o),
(728,890,cs),
(686,928,o),
(633,947,o),
(569,947,cs),
(526,947,o),
(485,937,o),
(446,917,cs),
(369,876,o),
(317,794,o),
(317,674,cs),
(317,0,l)
);
}
);
width = 1756;
},
{
anchors = (
{
name = m.uni0347;
position = "{934, 0}";
},
{
name = m.uni0302_1;
position = "{932, 1087}";
}
);
layerId = "B109C6DD-98CC-498D-964F-904F22F997F9";
shapes = (
{
closed = 1;
nodes = (
(166,0,l),
(166,1087,l),
(213,1087,l),
(212,835,l),
(197,835,l),
(212,897,o),
(237,948,o),
(273,987,cs),
(345,1066,o),
(445,1103,o),
(544,1103,cs),
(627,1103,o),
(697,1078,o),
(756,1028,cs),
(814,977,o),
(851,908,o),
(866,819,c),
(847,819,l),
(860,879,o),
(884,930,o),
(918,972,cs),
(986,1056,o),
(1088,1103,o),
(1204,1103,cs),
(1274,1103,o),
(1334,1088,o),
(1385,1057,cs),
(1486,995,o),
(1544,878,o),
(1544,719,cs),
(1544,0,l),
(1499,0,l),
(1499,720,ls),
(1499,827,o),
(1472,910,o),
(1419,969,cs),
(1366,1028,o),
(1294,1057,o),
(1204,1057,cs),
(1145,1057,o),
(1090,1044,o),
(1041,1018,cs),
(941,965,o),
(879,863,o),
(879,719,cs),
(879,0,l),
(833,0,l),
(833,720,ls),
(833,828,o),
(807,911,o),
(754,970,cs),
(701,1028,o),
(631,1057,o),
(544,1057,cs),
(481,1057,o),
(425,1043,o),
(375,1014,cs),
(275,957,o),
(212,851,o),
(212,719,cs),
(212,0,l)
);
}
);
width = 1710;
}
);
leftKerningGroup = m;
rightKerningGroup = a;
unicode = 109;
}
{
glyphname = p;
layers = (
{
anchors = (
{
name = m.uni0347;
position = "{297, -409}";
},
{
name = m.uni0302_1;
position = "{684, 1087}";
}
);
layerId = "1EC723AD-C41F-43E3-B68D-B2A779A308DC";
shapes = (
{
closed = 1;
nodes = (
(94,-418,l),
(94,1087,l),
(491,1087,l),
(491,924,l),
(499,924,l),
(517,960,o),
(540,992,o),
(568,1020,cs),
(624,1075,o),
(703,1106,o),
(803,1106,cs),
(884,1106,o),
(959,1085,o),
(1026,1042,cs),
(1161,956,o),
(1247,788,o),
(1247,544,cs),
(1247,424,o),
(1228,322,o),
(1189,239,cs),
(1112,71,o),
(972,-19,o),
(800,-19,cs),
(751,-19,o),
(706,-11,o),
(667,5,cs),
(588,36,o),
(532,94,o),
(500,171,c),
(495,171,l),
(495,-418,l)
);
},
{
closed = 1;
nodes = (
(703,292,o),
(735,302,o),
(760,323,cs),
(811,364,o),
(839,441,o),
(839,544,cs),
(839,596,o),
(832,641,o),
(819,679,c),
(791,754,o),
(739,797,o),
(666,797,cs),
(630,797,o),
(598,787,o),
(571,766,c),
(515,725,o),
(483,648,o),
(483,544,cs),
(483,493,o),
(491,449,o),
(506,412,cs),
(537,336,o),
(594,292,o),
(666,292,cs)
);
}
);
width = 1301;
},
{
anchors = (
{
name = m.uni0347;
position = "{297, -409}";
},
{
name = m.uni0302_1;
position = "{684, 1087}";
}
);
layerId = "2F0A8C87-DA84-48CB-8FDB-683796859A95";
shapes = (
{
closed = 1;
nodes = (
(117,-418,l),
(117,1087,l),
(405,1087,l),
(405,922,l),
(415,922,l),
(433,955,o),
(456,985,o),
(484,1014,c),
(540,1069,o),
(622,1105,o),
(731,1105,cs),
(817,1105,o),
(895,1083,o),
(964,1039,cs),
(1101,949,o),
(1185,779,o),
(1185,543,cs),
(1185,426,o),
(1166,326,o),
(1127,242,cs),
(1050,74,o),
(908,-20,o),
(729,-20,cs),
(676,-20,o),
(629,-12,o),
(588,5,cs),
(507,39,o),
(451,100,o),
(416,169,c),
(410,169,l),
(410,-418,l)
);
},
{
closed = 1;
nodes = (
(698,217,o),
(741,230,o),
(777,257,cs),
(848,311,o),
(888,411,o),
(888,544,cs),
(888,610,o),
(879,667,o),
(860,716,cs),
(821,814,o),
(748,869,o),
(647,869,cs),
(596,869,o),
(552,856,o),
(515,829,cs),
(441,775,o),
(399,676,o),
(399,544,cs),
(399,478,o),
(410,421,o),
(430,373,cs),
(470,274,o),
(546,217,o),
(647,217,cs)
);
}
);
width = 1255;
},
{
anchors = (
{
name = m.uni0347;
position = "{297, -409}";
},
{
name = m.uni0302_1;
position = "{684, 1087}";
}
);
layerId = "545E045A-B28D-42BD-AE6C-2FB63E8B3292";
shapes = (
{
closed = 1;
nodes = (
(142,-418,l),
(142,1087,l),
(312,1087,l),
(312,920,l),
(323,920,l),
(341,949,o),
(364,978,o),
(393,1007,cs),
(450,1063,o),
(535,1104,o),
(652,1104,cs),
(745,1104,o),
(826,1081,o),
(896,1035,cs),
(1036,942,o),
(1118,769,o),
(1118,542,cs),
(1118,429,o),
(1099,330,o),
(1060,246,cs),
(982,77,o),
(838,-22,o),
(653,-22,cs),
(595,-22,o),
(545,-13,o),
(503,6,cs),
(419,43,o),
(364,106,o),
(325,167,c),
(317,167,l),
(317,-418,l)
);
},
{
closed = 1;
nodes = (
(692,135,o),
(748,152,o),
(795,186,cs),
(888,254,o),
(941,379,o),
(941,543,cs),
(941,625,o),
(929,696,o),
(904,757,cs),
(854,878,o),
(758,948,o),
(626,948,cs),
(559,948,o),
(502,931,o),
(455,898,cs),
(360,830,o),
(309,706,o),
(309,543,cs),
(309,462,o),
(322,391,o),
(347,330,cs),
(397,207,o),
(494,135,o),
(626,135,cs)
);
}
);
width = 1206;
},
{
anchors = (
{
name = m.uni0347;
position = "{258, -409}";
},
{
name = m.uni0302_1;
position = "{637, 1087}";
}
);
layerId = "9DE19B50-AF62-41B5-96CD-C828EA777CBB";
shapes = (
{
closed = 1;
nodes = (
(166,-418,l),
(166,1087,l),
(212,1087,l),
(212,802,l),
(216,802,l),
(233,861,o),
(260,913,o),
(298,959,cs),
(373,1050,o),
(484,1103,o),
(609,1103,cs),
(696,1103,o),
(774,1079,o),
(841,1032,cs),
(976,936,o),
(1056,761,o),
(1056,542,cs),
(1056,432,o),
(1037,335,o),
(1000,251,cs),
(924,82,o),
(786,-20,o),
(610,-20,cs),
(547,-20,o),
(488,-7,o),
(435,18,cs),
(328,69,o),
(251,164,o),
(216,281,c),
(212,281,l),
(212,-418,l)
);
},
{
closed = 1;
nodes = (
(688,26,o),
(758,48,o),
(818,92,cs),
(938,180,o),
(1011,339,o),
(1011,542,cs),
(1011,643,o),
(994,733,o),
(960,811,cs),
(892,966,o),
(768,1058,o),
(609,1058,cs),
(530,1058,o),
(460,1036,o),
(401,993,cs),
(281,905,o),
(212,745,o),
(212,542,cs),
(212,441,o),
(228,352,o),
(261,275,cs),
(326,119,o),
(449,26,o),
(609,26,cs)
);
}
);
width = 1154;
}
);
leftKerningGroup = m;
rightKerningGroup = b;
unicode = 112;
}
{
glyphname = r;
layers = (
{
anchors = (
{
name = m.uniF6C3;
position = "{296, 0}";
},
{
name = m.uni030F_1;
position = "{474, 1288}";
}
);
layerId = "1EC723AD-C41F-43E3-B68D-B2A779A308DC";
shapes = (
{
closed = 1;
nodes = (
(94,0,l),
(94,1087,l),
(480,1087,l),
(480,877,l),
(492,877,l),
(513,954,o),
(545,1011,o),
(589,1047,cs),
(632,1083,o),
(683,1101,o),
(742,1101,cs),
(801,1101,o),
(856,1086,o),
(900,1061,c),
(784,737,l),
(753,752,o),
(719,765,o),
(676,765,cs),
(643,765,o),
(613,757,o),
(586,740,cs),
(530,706,o),
(493,643,o),
(492,559,c),
(492,0,l)
);
}
);
width = 900;
},
{
anchors = (
{
name = m.uniF6C3;
position = "{302, 0}";
},
{
name = m.uni030F_1;
position = "{480, 1288}";
}
);
layerId = "2F0A8C87-DA84-48CB-8FDB-683796859A95";
shapes = (
{
closed = 1;
nodes = (
(117,0,l),
(117,1087,l),
(397,1087,l),
(397,898,l),
(408,898,l),
(428,965,o),
(462,1015,o),
(511,1050,cs),
(558,1085,o),
(613,1102,o),
(676,1103,c),
(736,1102,o),
(787,1087,o),
(826,1063,c),
(738,825,l),
(711,838,o),
(678,849,o),
(635,849,cs),
(592,849,o),
(554,840,o),
(520,820,cs),
(450,781,o),
(406,709,o),
(405,618,c),
(405,0,l)
);
}
);
width = 831;
},
{
anchors = (
{
name = m.uniF6C3;
position = "{308, 0}";
},
{
name = m.uni030F_1;
position = "{486, 1288}";
}
);
layerId = "545E045A-B28D-42BD-AE6C-2FB63E8B3292";
shapes = (
{
closed = 1;
nodes = (
(142,0,l),
(142,1087,l),
(306,1087,l),
(306,921,l),
(316,921,l),
(336,976,o),
(372,1020,o),
(425,1054,cs),
(478,1087,o),
(537,1104,o),
(604,1105,c),
(665,1104,o),
(711,1088,o),
(746,1065,c),
(688,921,l),
(664,932,o),
(633,940,o),
(590,941,c),
(537,941,o),
(489,930,o),
(447,907,cs),
(362,862,o),
(311,781,o),
(310,681,c),
(310,0,l)
);
}
);
width = 756;
},
{
anchors = (
{
name = m.uniF6C3;
position = "{272, 0}";
},
{
name = m.uni030F_1;
position = "{476, 1288}";
}
);
layerId = "9DE19B50-AF62-41B5-96CD-C828EA777CBB";
shapes = (
{
closed = 1;
nodes = (
(166,0,l),
(166,1087,l),
(212,1087,l),
(212,911,l),
(218,911,l),
(244,969,o),
(287,1015,o),
(346,1050,cs),
(405,1084,o),
(473,1101,o),
(548,1101,cs),
(597,1101,o),
(641,1093,o),
(674,1081,c),
(658,1039,l),
(629,1050,o),
(591,1055,o),
(548,1055,cs),
(483,1055,o),
(426,1041,o),
(375,1013,cs),
(274,956,o),
(213,853,o),
(212,725,c),
(212,0,l)
);
}
);
width = 694;
}
);
leftKerningGroup = m;
rightKerningGroup = r;
unicode = (114,57439);
}
{
glyphname = t;
layers = (
{
anchors = (
{
name = m.uni0347;
position = "{470, 0}";
},
{
name = m.uni0302_1;
position = "{381, 1364}";
},
{
name = m.uni0327_3;
position = "{518, 0}";
}
);
layerId = "30DB1A31-A6FD-462E-A165-656579CC7601";
shapes = (
{
closed = 1;
nodes = (
(787,1087,l),
(787,789,l),
(21,789,l),
(21,1087,l)
);
},
{
closed = 1;
nodes = (
(181,1364,l),
(582,1364,l),
(582,373,ls),
(582,318,o),
(602,297,o),
(666,297,cs),
(681,297,o),
(701,298,o),
(726,299,cs),
(751,300,o),
(769,302,o),
(778,303,c),
(801,8,l),
(737,-5,o),
(650,-8,o),
(569,-8,cs),
(437,-8,o),
(339,19,o),
(276,73,cs),
(213,126,o),
(181,208,o),
(181,319,cs)
);
}
);
width = 838;
},
{
anchors = (
{
name = m.uni0347;
position = "{470, 0}";
},
{
name = m.uni0302_1;
position = "{381, 1364}";
},
{
name = m.uni0327_3;
position = "{518, 0}";
}
);
layerId = "9958C6BA-7FC1-41C8-B3E0-9B3AF71AFF69";
shapes = (
{
closed = 1;
nodes = (
(694,1087,l),
(694,860,l),
(20,860,l),
(20,1087,l)
);
},
{
closed = 1;
nodes = (
(188,1364,l),
(481,1364,l),
(481,325,ls),
(481,253,o),
(507,225,o),
(584,225,cs),
(598,225,o),
(616,226,o),
(638,227,cs),
(659,228,o),
(676,230,o),
(688,231,c),
(708,6,l),
(658,-5,o),
(590,-8,o),
(528,-8,cs),
(415,-8,o),
(329,18,o),
(273,67,cs),
(217,116,o),
(188,191,o),
(188,289,cs)
);
}
);
width = 750;
},
{
anchors = (
{
name = m.uni0347;
position = "{470, 0}";
},
{
name = m.uni0302_1;
position = "{381, 1364}";
},
{
name = m.uni0327_3;
position = "{518, 0}";
}
);
layerId = "1B8D64CA-D7DF-4852-939C-A0B9329902C0";
shapes = (
{
closed = 1;
nodes = (
(593,1087,l),
(593,937,l),
(18,937,l),
(18,1087,l)
);
},
{
closed = 1;
nodes = (
(196,1364,l),
(371,1364,l),
(371,273,ls),
(371,182,o),
(404,146,o),
(495,146,cs),
(508,146,o),
(524,147,o),
(542,148,cs),
(559,149,o),
(575,151,o),
(590,152,c),
(608,3,l),
(572,-4,o),
(525,-7,o),
(484,-7,cs),
(391,-7,o),
(319,16,o),
(270,61,cs),
(221,106,o),
(196,172,o),
(196,257,cs)
);
}
);
width = 654;
},
{
anchors = (
{
name = m.uni0347;
position = "{397, 0}";
},
{
name = m.uni0302_1;
position = "{290, 1364}";
},
{
name = m.uni0327_3;
position = "{408, 0}";
}
);
layerId = "B109C6DD-98CC-498D-964F-904F22F997F9";
shapes = (
{
closed = 1;
nodes = (
(448,1087,l),
(448,1041,l),
(6,1041,l),
(6,1087,l)
);
},
{
closed = 1;
nodes = (
(170,1364,l),
(216,1364,l),
(216,207,ls),
(216,87,o),
(277,28,o),
(386,43,cs),
(395,44,o),
(405,45,o),
(415,46,cs),
(424,47,o),
(433,47,o),
(442,48,c),
(447,2,l),
(428,1,o),
(410,-1,o),
(390,-2,c),
(321,-11,o),
(267,3,o),
(228,42,cs),
(189,81,o),
(170,136,o),
(170,207,cs)
);
}
);
width = 483;
}
);
leftKerningGroup = t2;
rightKerningGroup = t;
unicode = 116;
}
{
glyphname = u;
layers = (
{
anchors = (
{
name = m.uni0347;
position = "{669, 0}";
},
{
name = m.uni0302_1;
position = "{650, 1087}";
},
{
name = m.uni0328_4;
position = "{1205, 0}";
}
);
layerId = "1EC723AD-C41F-43E3-B68D-B2A779A308DC";
shapes = (
{
closed = 1;
nodes = (
(389,-19,o),
(322,-2,o),
(266,34,cs),
(154,104,o),
(94,233,o),
(94,398,cs),
(94,1087,l),
(495,1087,l),
(495,486,ls),
(495,432,o),
(509,390,o),
(536,359,cs),
(563,328,o),
(600,313,o),
(649,313,cs),
(681,313,o),
(709,320,o),
(732,334,cs),
(779,362,o),
(803,417,o),
(803,493,cs),
(803,1087,l),
(1205,1087,l),
(1205,0,l),
(819,0,l),
(815,289,l),
(847,289,l),
(818,200,o),
(773,127,o),
(714,69,cs),
(655,10,o),
(573,-19,o),
(468,-19,cs)
);
}
);
width = 1299;
},
{
anchors = (
{
name = m.uni0347;
position = "{669, 0}";
},
{
name = m.uni0302_1;
position = "{650, 1087}";
},
{
name = m.uni0328_4;
position = "{1205, 0}";
}
);
layerId = "2F0A8C87-DA84-48CB-8FDB-683796859A95";
shapes = (
{
closed = 1;
nodes = (
(420,-18,o),
(353,-2,o),
(296,32,cs),
(182,98,o),
(117,225,o),
(117,401,cs),
(117,1087,l),
(410,1087,l),
(410,453,ls),
(410,383,o),
(427,328,o),
(463,289,cs),
(499,250,o),
(547,231,o),
(611,231,cs),
(652,231,o),
(689,240,o),
(722,258,cs),
(787,293,o),
(825,366,o),
(825,469,cs),
(825,1087,l),
(1118,1087,l),
(1118,0,l),
(836,0,l),
(834,277,l),
(868,277,l),
(836,183,o),
(789,110,o),
(728,59,cs),
(667,8,o),
(590,-18,o),
(496,-18,cs)
);
}
);
width = 1235;
},
{
anchors = (
{
name = m.uni0347;
position = "{669, 0}";
},
{
name = m.uni0302_1;
position = "{650, 1087}";
},
{
name = m.uni0328_4;
position = "{1205, 0}";
}
);
layerId = "545E045A-B28D-42BD-AE6C-2FB63E8B3292";
shapes = (
{
closed = 1;
nodes = (
(453,-17,o),
(387,-2,o),
(329,30,cs),
(213,92,o),
(142,217,o),
(142,404,cs),
(142,1087,l),
(317,1087,l),
(317,418,ls),
(317,329,o),
(339,261,o),
(384,214,cs),
(429,166,o),
(490,142,o),
(569,142,cs),
(621,142,o),
(668,153,o),
(711,175,cs),
(795,219,o),
(848,310,o),
(848,443,cs),
(848,1087,l),
(1024,1087,l),
(1024,0,l),
(854,0,l),
(854,264,l),
(890,264,l),
(855,164,o),
(807,92,o),
(744,49,cs),
(681,5,o),
(609,-17,o),
(526,-17,cs)
);
}
);
width = 1166;
},
{
anchors = (
{
name = m.uni0347;
position = "{648, 0}";
},
{
name = m.uni0302_1;
position = "{634, 1087}";
},
{
name = m.uni0328_4;
position = "{1148, 0}";
}
);
layerId = "9DE19B50-AF62-41B5-96CD-C828EA777CBB";
shapes = (
{
closed = 1;
nodes = (
(480,-16,o),
(413,0,o),
(354,33,cs),
(237,97,o),
(166,217,o),
(166,368,cs),
(166,1087,l),
(212,1087,l),
(212,369,ls),
(212,268,o),
(244,186,o),
(308,124,cs),
(372,61,o),
(455,30,o),
(557,30,cs),
(626,30,o),
(688,45,o),
(743,74,cs),
(854,132,o),
(920,239,o),
(920,368,cs),
(920,1087,l),
(967,1087,l),
(967,0,l),
(921,0,l),
(921,241,l),
(933,241,l),
(909,155,o),
(862,91,o),
(791,48,cs),
(720,5,o),
(642,-16,o),
(557,-16,cs)
);
}
);
width = 1133;
}
);
leftKerningGroup = u2;
rightKerningGroup = u;
unicode = 117;
}
{
glyphname = v;
layers = (
{
anchors = (
{
name = m.uni0347;
position = "{626, 0}";
},
{
name = m.uni0302_1;
position = "{626, 1087}";
}
);
layerId = "1EC723AD-C41F-43E3-B68D-B2A779A308DC";
shapes = (
{
closed = 1;
nodes = (
(393,0,l),
(4,1087,l),
(424,1087,l),
(561,609,ls),
(602,461,o),
(636,313,o),
(672,149,c),
(592,149,l),
(627,313,o),
(660,460,o),
(700,609,cs),
(834,1087,l),
(1248,1087,l),
(858,0,l)
);
}
);
width = 1252;
},
{
anchors = (
{
name = m.uni0347;
position = "{626, 0}";
},
{
name = m.uni0302_1;
position = "{626, 1087}";
}
);
layerId = "2F0A8C87-DA84-48CB-8FDB-683796859A95";
shapes = (
{
closed = 1;
nodes = (
(425,0,l),
(22,1087,l),
(332,1087,l),
(515,534,ls),
(558,399,o),
(591,265,o),
(627,125,c),
(560,125,l),
(596,265,o),
(628,399,o),
(670,534,cs),
(851,1087,l),
(1157,1087,l),
(753,0,l)
);
}
);
width = 1179;
},
{
anchors = (
{
name = m.uni0347;
position = "{626, 0}";
},
{
name = m.uni0302_1;
position = "{626, 1087}";
}
);
layerId = "545E045A-B28D-42BD-AE6C-2FB63E8B3292";
shapes = (
{
closed = 1;
nodes = (
(460,0,l),
(42,1087,l),
(233,1087,l),
(466,452,ls),
(510,332,o),
(543,213,o),
(579,98,c),
(525,98,l),
(562,213,o),
(594,332,o),
(637,452,cs),
(869,1087,l),
(1058,1087,l),
(640,0,l)
);
}
);
width = 1100;
},
{
anchors = (
{
name = m.uni0347;
position = "{605, 0}";
},
{
name = m.uni0302_1;
position = "{605, 1087}";
}
);
layerId = "9DE19B50-AF62-41B5-96CD-C828EA777CBB";
shapes = (
{
closed = 1;
nodes = (
(500,0,l),
(68,1087,l),
(117,1087,l),
(415,337,ls),
(455,234,o),
(494,132,o),
(535,31,c),
(522,31,l),
(565,132,o),
(603,234,o),
(642,337,cs),
(941,1087,l),
(989,1087,l),
(557,0,l)
);
}
);
width = 1057;
}
);
leftKerningGroup = v2;
rightKerningGroup = v;
unicode = 118;
}
{
glyphname = w;
layers = (
{
anchors = (
{
name = m.uni0347;
position = "{892, 0}";
},
{
name = m.uni0302_1;
position = "{896, 1087}";
}
);
layerId = "1EC723AD-C41F-43E3-B68D-B2A779A308DC";
shapes = (
{
closed = 1;
nodes = (
(321,0,l),
(-3,1087,l),
(418,1087,l),
(482,768,ls),
(515,609,o),
(551,432,o),
(580,244,c),
(536,244,l),
(569,433,o),
(613,611,o),
(649,768,cs),
(723,1087,l),
(1071,1087,l),
(1143,768,ls),
(1180,609,o),
(1224,433,o),
(1257,244,c),
(1215,244,l),
(1243,433,o),
(1275,608,o),
(1307,768,cs),
(1370,1087,l),
(1797,1087,l),
(1473,0,l),
(1060,0,l),
(953,368,ls),
(943,404,o),
(933,444,o),
(923,489,cs),
(903,577,o),
(885,672,o),
(864,749,c),
(929,749,l),
(920,711,o),
(910,669,o),
(900,624,cs),
(880,532,o),
(861,440,o),
(840,368,cs),
(732,0,l)
);
}
);
width = 1794;
},
{
anchors = (
{
name = m.uni0347;
position = "{892, 0}";
},
{
name = m.uni0302_1;
position = "{896, 1087}";
}
);
layerId = "2F0A8C87-DA84-48CB-8FDB-683796859A95";
shapes = (
{
closed = 1;
nodes = (
(351,0,l),
(22,1087,l),
(330,1087,l),
(428,693,ls),
(464,544,o),
(502,375,o),
(536,192,c),
(500,192,l),
(536,374,o),
(578,543,o),
(616,693,cs),
(719,1087,l),
(987,1087,l),
(1087,693,ls),
(1126,543,o),
(1167,375,o),
(1203,192,c),
(1167,192,l),
(1202,374,o),
(1238,542,o),
(1274,693,cs),
(1372,1087,l),
(1682,1087,l),
(1354,0,l),
(1053,0,l),
(929,428,l),
(918,471,o),
(906,516,o),
(894,564,cs),
(871,659,o),
(849,759,o),
(825,850,c),
(880,850,l),
(869,805,o),
(857,758,o),
(845,709,cs),
(822,611,o),
(799,513,o),
(775,428,cs),
(649,0,l)
);
}
);
width = 1705;
},
{
anchors = (
{
name = m.uni0347;
position = "{892, 0}";
},
{
name = m.uni0302_1;
position = "{896, 1087}";
}
);
layerId = "545E045A-B28D-42BD-AE6C-2FB63E8B3292";
shapes = (
{
closed = 1;
nodes = (
(384,0,l),
(50,1087,l),
(235,1087,l),
(369,611,ls),
(409,474,o),
(449,314,o),
(489,135,c),
(462,135,l),
(501,310,o),
(541,470,o),
(581,611,cs),
(715,1087,l),
(895,1087,l),
(1027,611,ls),
(1067,471,o),
(1106,312,o),
(1145,135,c),
(1116,135,l),
(1157,311,o),
(1198,470,o),
(1238,611,cs),
(1374,1087,l),
(1558,1087,l),
(1225,0,l),
(1046,0,l),
(904,493,ls),
(890,543,o),
(876,594,o),
(863,645,cs),
(836,748,o),
(811,853,o),
(783,960,c),
(826,960,l),
(813,907,o),
(799,855,o),
(786,802,cs),
(759,696,o),
(732,592,o),
(704,493,cs),
(560,0,l)
);
}
);
width = 1608;
},
{
anchors = (
{
name = m.uni0347;
position = "{872, 0}";
},
{
name = m.uni0302_1;
position = "{876, 1087}";
}
);
layerId = "9DE19B50-AF62-41B5-96CD-C828EA777CBB";
shapes = (
{
closed = 1;
nodes = (
(380,0,l),
(62,1087,l),
(110,1087,l),
(342,288,l),
(370,199,o),
(393,111,o),
(418,20,c),
(405,20,l),
(433,112,o),
(461,199,o),
(490,288,cs),
(752,1087,l),
(813,1087,l),
(1075,288,l),
(1106,199,o),
(1132,112,o),
(1160,20,c),
(1148,20,l),
(1173,112,o),
(1198,197,o),
(1223,288,cs),
(1456,1087,l),
(1503,1087,l),
(1186,0,l),
(1122,0,l),
(839,864,l),
(832,888,o),
(824,911,o),
(817,934,c),
(802,978,o),
(789,1023,o),
(773,1070,c),
(792,1070,l),
(785,1047,o),
(778,1024,o),
(771,1001,cs),
(756,956,o),
(742,912,o),
(727,864,cs),
(443,0,l)
);
}
);
width = 1565;
}
);
leftKerningGroup = w2;
rightKerningGroup = w;
unicode = 119;
}
{
glyphname = x;
layers = (
{
anchors = (
{
name = m.uni0347;
position = "{600, 0}";
},
{
name = m.uni0302_1;
position = "{600, 1087}";
}
);
layerId = "1EC723AD-C41F-43E3-B68D-B2A779A308DC";
shapes = (
{
closed = 1;
nodes = (
(10,0,l),
(429,671,l),
(424,448,l),
(35,1087,l),
(458,1087,l),
(518,969,ls),
(571,861,o),
(617,754,o),
(662,653,c),
(545,653,l),
(594,754,o),
(640,861,o),
(697,969,cs),
(759,1087,l),
(1176,1087,l),
(772,449,l),
(777,671,l),
(1191,0,l),
(768,0,l),
(697,137,ls),
(640,244,o),
(594,350,o),
(546,450,c),
(650,450,l),
(603,350,o),
(558,244,o),
(501,137,cs),
(430,0,l)
);
}
);
width = 1200;
},
{
anchors = (
{
name = m.uni0347;
position = "{600, 0}";
},
{
name = m.uni0302_1;
position = "{600, 1087}";
}
);
layerId = "2F0A8C87-DA84-48CB-8FDB-683796859A95";
shapes = (
{
closed = 1;
nodes = (
(28,0,l),
(458,648,l),
(455,468,l),
(52,1087,l),
(371,1087,l),
(470,924,l),
(528,821,o),
(576,723,o),
(626,629,c),
(523,629,l),
(576,723,o),
(622,821,o),
(683,924,c),
(784,1087,l),
(1098,1087,l),
(687,466,l),
(689,646,l),
(1114,0,l),
(796,0,l),
(680,189,ls),
(619,291,o),
(572,386,o),
(521,478,c),
(618,478,l),
(567,386,o),
(522,291,o),
(462,189,c),
(344,0,l)
);
}
);
width = 1141;
},
{
anchors = (
{
name = m.uni0347;
position = "{600, 0}";
},
{
name = m.uni0302_1;
position = "{600, 1087}";
}
);
layerId = "545E045A-B28D-42BD-AE6C-2FB63E8B3292";
shapes = (
{
closed = 1;
nodes = (
(48,0,l),
(489,624,l),
(488,489,l),
(71,1087,l),
(276,1087,l),
(417,875,ls),
(481,778,o),
(532,689,o),
(588,602,c),
(499,602,l),
(556,689,o),
(603,778,o),
(668,875,cs),
(811,1087,l),
(1013,1087,l),
(594,485,l),
(594,618,l),
(1031,0,l),
(827,0,l),
(661,246,ls),
(597,341,o),
(549,425,o),
(494,509,c),
(584,509,l),
(529,425,o),
(483,341,o),
(419,246,cs),
(251,0,l)
);
}
);
width = 1078;
},
{
anchors = (
{
name = m.uni0347;
position = "{561, 0}";
},
{
name = m.uni0302_1;
position = "{561, 1087}";
}
);
layerId = "9DE19B50-AF62-41B5-96CD-C828EA777CBB";
shapes = (
{
closed = 1;
nodes = (
(48,0,l),
(483,574,l),
(483,539,l),
(67,1087,l),
(125,1087,l),
(348,793,ls),
(403,721,o),
(457,647,o),
(512,575,c),
(488,575,l),
(543,647,o),
(597,721,o),
(652,793,cs),
(875,1087,l),
(933,1087,l),
(517,539,l),
(517,574,l),
(952,0,l),
(895,0,l),
(640,337,ls),
(588,405,o),
(540,470,o),
(488,538,c),
(512,538,l),
(461,470,o),
(412,405,o),
(360,337,cs),
(106,0,l)
);
}
);
width = 999;
}
);
leftKerningGroup = x2;
rightKerningGroup = x;
unicode = 120;
}
{
glyphname = y;
layers = (
{
anchors = (
{
name = m.uni0347;
position = "{1009, 0}";
},
{
name = m.uni0302_1;
position = "{614, 1087}";
},
{
name = m.uni0328_4;
position = "{840, 0}";
}
);
layerId = "1EC723AD-C41F-43E3-B68D-B2A779A308DC";
shapes = (
{
closed = 1;
nodes = (
(159,-107,l),
(266,-115,l),
(300,-120,o),
(328,-120,o),
(351,-115,cs),
(395,-104,o),
(417,-72,o),
(417,-24,c),
(414,0,l),
(4,1087,l),
(424,1087,l),
(563,609,ls),
(604,461,o),
(631,314,o),
(667,149,c),
(574,149,l),
(609,314,o),
(644,462,o),
(688,609,cs),
(837,1087,l),
(1252,1087,l),
(798,-117,ls),
(774,-182,o),
(744,-237,o),
(709,-282,cs),
(637,-373,o),
(533,-422,o),
(376,-422,cs),
(287,-422,o),
(191,-415,o),
(115,-402,c)
);
}
);
width = 1256;
},
{
anchors = (
{
name = m.uni0347;
position = "{1009, 0}";
},
{
name = m.uni0302_1;
position = "{614, 1087}";
},
{
name = m.uni0328_4;
position = "{840, 0}";
}
);
layerId = "2F0A8C87-DA84-48CB-8FDB-683796859A95";
shapes = (
{
closed = 1;
nodes = (
(159,-179,l),
(245,-185,l),
(276,-190,o),
(304,-190,o),
(327,-184,cs),
(372,-172,o),
(402,-135,o),
(416,-70,c),
(436,1,l),
(22,1087,l),
(332,1087,l),
(516,534,ls),
(559,399,o),
(589,266,o),
(625,125,c),
(550,125,l),
(585,266,o),
(620,400,o),
(664,534,cs),
(852,1087,l),
(1159,1087,l),
(688,-148,ls),
(666,-207,o),
(638,-257,o),
(605,-298,cs),
(539,-379,o),
(446,-422,o),
(318,-422,cs),
(248,-422,o),
(178,-415,o),
(126,-406,c)
);
}
);
width = 1181;
},
{
anchors = (
{
name = m.uni0347;
position = "{1009, 0}";
},
{
name = m.uni0302_1;
position = "{614, 1087}";
},
{
name = m.uni0328_4;
position = "{840, 0}";
}
);
layerId = "545E045A-B28D-42BD-AE6C-2FB63E8B3292";
shapes = (
{
closed = 1;
nodes = (
(160,-258,l),
(222,-261,l),
(251,-266,o),
(278,-265,o),
(301,-258,cs),
(348,-245,o),
(386,-203,o),
(415,-120,cs),
(460,2,l),
(42,1087,l),
(233,1087,l),
(466,452,ls),
(510,332,o),
(543,213,o),
(579,98,c),
(524,98,l),
(560,213,o),
(594,332,o),
(637,452,cs),
(869,1087,l),
(1058,1087,l),
(569,-181,ls),
(548,-234,o),
(523,-279,o),
(493,-315,cs),
(432,-386,o),
(352,-422,o),
(255,-422,cs),
(206,-422,o),
(164,-416,o),
(137,-411,c)
);
}
);
width = 1100;
},
{
anchors = (
{
name = m.uni0347;
position = "{893, 0}";
},
{
name = m.uni0302_1;
position = "{592, 1087}";
},
{
name = m.uni0328_4;
position = "{762, 0}";
}
);
layerId = "9DE19B50-AF62-41B5-96CD-C828EA777CBB";
shapes = (
{
closed = 1;
nodes = (
(134,-364,l),
(183,-367,l),
(224,-376,o),
(259,-376,o),
(289,-369,c),
(348,-353,o),
(392,-298,o),
(432,-195,cs),
(505,-10,l),
(68,1087,l),
(118,1087,l),
(416,337,ls),
(457,233,o),
(496,128,o),
(535,24,c),
(522,24,l),
(562,128,o),
(602,232,o),
(642,337,cs),
(940,1087,l),
(989,1087,l),
(475,-211,ls),
(455,-262,o),
(434,-303,o),
(411,-334,cs),
(366,-396,o),
(310,-422,o),
(231,-422,cs),
(194,-422,o),
(165,-418,o),
(125,-407,c)
);
}
);
width = 1057;
}
);
leftKerningGroup = v2;
rightKerningGroup = v;
unicode = 121;
}
{
glyphname = z;
layers = (
{
anchors = (
{
name = m.uni0347;
position = "{592, 0}";
},
{
name = m.uni0302_1;
position = "{590, 1087}";
}
);
layerId = "1EC723AD-C41F-43E3-B68D-B2A779A308DC";
shapes = (
{
closed = 1;
nodes = (
(106,0,l),
(106,239,l),
(589,778,l),
(589,783,l),
(114,783,l),
(114,1087,l),
(1059,1087,l),
(1059,829,l),
(604,308,l),
(604,305,l),
(1073,305,l),
(1073,0,l)
);
}
);
width = 1179;
},
{
anchors = (
{
name = m.uni0347;
position = "{592, 0}";
},
{
name = m.uni0302_1;
position = "{590, 1087}";
}
);
layerId = "2F0A8C87-DA84-48CB-8FDB-683796859A95";
shapes = (
{
closed = 1;
nodes = (
(108,0,l),
(108,188,l),
(649,846,l),
(649,853,l),
(117,853,l),
(117,1087,l),
(999,1087,l),
(999,886,l),
(479,240,l),
(479,235,l),
(1012,235,l),
(1012,0,l)
);
}
);
width = 1120;
},
{
anchors = (
{
name = m.uni0347;
position = "{592, 0}";
},
{
name = m.uni0302_1;
position = "{590, 1087}";
}
);
layerId = "545E045A-B28D-42BD-AE6C-2FB63E8B3292";
shapes = (
{
closed = 1;
nodes = (
(110,0,l),
(110,132,l),
(713,920,l),
(713,928,l),
(120,928,l),
(120,1087,l),
(934,1087,l),
(934,948,l),
(343,167,l),
(343,160,l),
(946,160,l),
(946,0,l)
);
}
);
width = 1056;
},
{
anchors = (
{
name = m.uni0347;
position = "{554, 0}";
},
{
name = m.uni0302_1;
position = "{558, 1087}";
}
);
layerId = "9DE19B50-AF62-41B5-96CD-C828EA777CBB";
shapes = (
{
closed = 1;
nodes = (
(119,0,l),
(119,46,l),
(801,1038,l),
(801,1042,l),
(145,1042,l),
(145,1087,l),
(857,1087,l),
(857,1040,l),
(176,50,l),
(176,47,l),
(875,47,l),
(875,0,l)
);
}
);
width = 994;
}
);
leftKerningGroup = z2;
rightKerningGroup = z;
unicode = 122;
}
{
glyphname = braceleft.tf;
layers = (
{
layerId = "30DB1A31-A6FD-462E-A165-656579CC7601";
shapes = (
{
closed = 1;
nodes = (
(-4,818,l),
(72,818,o),
(125,835,o),
(155,869,cs),
(185,902,o),
(200,955,o),
(200,1026,cs),
(200,1154,ls),
(200,1259,o),
(215,1340,o),
(244,1398,cs),
(273,1455,o),
(312,1496,o),
(363,1521,cs),
(413,1546,o),
(470,1561,o),
(533,1566,cs),
(596,1571,o),
(662,1574,o),
(729,1574,c),
(729,1280,l),
(654,1280,o),
(605,1267,o),
(580,1240,cs),
(555,1213,o),
(543,1167,o),
(543,1102,cs),
(543,934,ls),
(543,862,o),
(521,782,o),
(444,719,cs),
(367,655,o),
(228,612,o),
(-4,612,c)
);
},
{
closed = 1;
nodes = (
(729,-286,l),
(662,-286,o),
(596,-283,o),
(533,-278,cs),
(470,-273,o),
(413,-258,o),
(363,-233,cs),
(312,-208,o),
(273,-167,o),
(244,-110,cs),
(215,-52,o),
(200,29,o),
(200,134,cs),
(200,262,ls),
(200,333,o),
(185,386,o),
(155,420,cs),
(125,453,o),
(72,470,o),
(-4,470,c),
(-4,676,l),
(228,676,o),
(367,633,o),
(444,570,cs),
(521,506,o),
(543,426,o),
(543,354,cs),
(543,186,ls),
(543,121,o),
(555,75,o),
(580,48,cs),
(605,21,o),
(654,8,o),
(729,8,c)
);
},
{
closed = 1;
nodes = (
(-4,470,l),
(-4,818,l),
(311,818,l),
(311,470,l)
);
}
);
width = 800;
},
{
layerId = "9958C6BA-7FC1-41C8-B3E0-9B3AF71AFF69";
shapes = (
{
closed = 1;
nodes = (
(48,777,l),
(126,777,o),
(181,794,o),
(212,828,cs),
(243,861,o),
(259,915,o),
(259,990,cs),
(259,1168,ls),
(259,1255,o),
(270,1325,o),
(291,1379,cs),
(312,1432,o),
(343,1473,o),
(384,1501,cs),
(424,1529,o),
(473,1549,o),
(529,1559,cs),
(585,1569,o),
(649,1574,o),
(717,1574,c),
(717,1350,l),
(638,1350,o),
(585,1334,o),
(557,1301,cs),
(530,1269,o),
(516,1215,o),
(516,1140,cs),
(516,914,ls),
(516,840,o),
(497,767,o),
(430,711,cs),
(363,655,o),
(245,619,o),
(48,619,c)
);
},
{
closed = 1;
nodes = (
(717,-286,l),
(649,-286,o),
(585,-281,o),
(529,-271,cs),
(473,-261,o),
(424,-242,o),
(384,-214,cs),
(343,-185,o),
(312,-144,o),
(291,-91,cs),
(270,-38,o),
(259,33,o),
(259,120,cs),
(259,297,ls),
(259,371,o),
(243,426,o),
(212,461,c),
(181,494,o),
(126,511,o),
(48,511,c),
(48,668,l),
(245,668,o),
(363,632,o),
(430,576,cs),
(497,519,o),
(516,446,o),
(516,373,cs),
(516,148,ls),
(516,73,o),
(530,19,o),
(557,-14,cs),
(585,-47,o),
(638,-63,o),
(717,-63,c)
);
},
{
closed = 1;
nodes = (
(48,511,l),
(48,777,l),
(296,777,l),
(296,511,l)
);
}
);
width = 800;
},
{
layerId = "1B8D64CA-D7DF-4852-939C-A0B9329902C0";
shapes = (
{
closed = 1;
nodes = (
(104,732,l),
(185,732,o),
(242,749,o),
(274,783,cs),
(306,816,o),
(322,872,o),
(322,951,cs),
(322,1183,ls),
(322,1250,o),
(329,1309,o),
(342,1358,cs),
(355,1407,o),
(376,1448,o),
(406,1480,cs),
(436,1511,o),
(476,1535,o),
(525,1551,cs),
(574,1566,o),
(634,1574,o),
(705,1574,c),
(705,1425,l),
(620,1426,o),
(563,1407,o),
(533,1368,cs),
(502,1329,o),
(487,1267,o),
(487,1182,cs),
(487,893,ls),
(487,817,o),
(470,751,o),
(415,703,cs),
(359,655,o),
(263,627,o),
(104,627,c)
);
},
{
closed = 1;
nodes = (
(705,-286,l),
(634,-286,o),
(574,-278,o),
(525,-263,cs),
(476,-248,o),
(436,-224,o),
(406,-193,cs),
(376,-161,o),
(355,-120,o),
(342,-71,cs),
(329,-22,o),
(322,37,o),
(322,104,cs),
(322,334,ls),
(322,413,o),
(306,470,o),
(274,505,cs),
(242,539,o),
(185,556,o),
(104,556,c),
(104,660,l),
(263,660,o),
(359,631,o),
(415,583,cs),
(470,534,o),
(487,468,o),
(487,393,cs),
(487,106,ls),
(487,21,o),
(502,-42,o),
(533,-81,cs),
(563,-120,o),
(620,-139,o),
(705,-139,c)
);
},
{
closed = 1;
nodes = (
(104,555,l),
(104,733,l),
(280,733,l),
(280,555,l)
);
}
);
width = 800;
},
{
layerId = "B109C6DD-98CC-498D-964F-904F22F997F9";
shapes = (
{
closed = 1;
nodes = (
(163,668,l),
(247,668,o),
(304,683,o),
(334,713,cs),
(364,743,o),
(379,799,o),
(379,882,cs),
(379,1264,ls),
(379,1317,o),
(384,1363,o),
(395,1402,cs),
(405,1441,o),
(421,1473,o),
(443,1499,cs),
(465,1524,o),
(493,1543,o),
(526,1556,cs),
(559,1569,o),
(598,1575,o),
(643,1575,c),
(643,1529,l),
(567,1529,o),
(512,1508,o),
(477,1467,cs),
(442,1425,o),
(425,1357,o),
(425,1264,cs),
(425,882,ls),
(425,786,o),
(407,721,o),
(366,681,cs),
(325,640,o),
(259,622,o),
(163,622,c)
);
},
{
closed = 1;
nodes = (
(643,-287,l),
(598,-287,o),
(559,-281,o),
(526,-268,cs),
(493,-255,o),
(465,-236,o),
(443,-211,cs),
(421,-185,o),
(405,-153,o),
(395,-114,cs),
(384,-75,o),
(379,-29,o),
(379,24,cs),
(379,406,ls),
(379,489,o),
(364,546,o),
(334,577,cs),
(304,607,o),
(247,622,o),
(163,622,c),
(163,668,l),
(259,668,o),
(325,650,o),
(366,609,cs),
(407,568,o),
(425,502,o),
(425,406,cs),
(425,24,ls),
(425,-69,o),
(442,-136,o),
(477,-178,cs),
(512,-220,o),
(567,-241,o),
(643,-241,c)
);
},
{
closed = 1;
nodes = (
(163,622,l),
(163,668,l),
(314,668,l),
(314,622,l)
);
}
);
width = 800;
}
);
unicode = (123,61002);
}
{
glyphname = bar;
layers = (
{
layerId = "1EC723AD-C41F-43E3-B68D-B2A779A308DC";
shapes = (
{
closed = 1;
nodes = (
(603,1970,l),
(603,-480,l),
(210,-480,l),
(210,1970,l)
);
}
);
width = 815;
},
{
layerId = "2F0A8C87-DA84-48CB-8FDB-683796859A95";
shapes = (
{
closed = 1;
nodes = (
(505,1970,l),
(505,-480,l),
(227,-480,l),
(227,1970,l)
);
}
);
width = 733;
},
{
layerId = "545E045A-B28D-42BD-AE6C-2FB63E8B3292";
shapes = (
{
closed = 1;
nodes = (
(398,1970,l),
(398,-480,l),
(246,-480,l),
(246,1970,l)
);
}
);
width = 644;
},
{
layerId = "9DE19B50-AF62-41B5-96CD-C828EA777CBB";
shapes = (
{
closed = 1;
nodes = (
(271,1970,l),
(271,-480,l),
(224,-480,l),
(224,1970,l)
);
}
);
width = 495;
}
);
leftKerningGroup = B2;
rightKerningGroup = H;
unicode = 124;
}
{
glyphname = braceright.tf;
layers = (
{
layerId = "30DB1A31-A6FD-462E-A165-656579CC7601";
shapes = (
{
closed = 1;
nodes = (
(805,612,l),
(572,612,o),
(433,655,o),
(357,719,cs),
(281,782,o),
(258,862,o),
(258,934,cs),
(258,1102,ls),
(258,1167,o),
(246,1213,o),
(221,1240,cs),
(196,1267,o),
(147,1280,o),
(73,1280,c),
(73,1574,l),
(140,1574,o),
(206,1571,o),
(269,1566,cs),
(332,1561,o),
(388,1546,o),
(439,1521,cs),
(489,1496,o),
(529,1455,o),
(558,1398,cs),
(587,1340,o),
(601,1259,o),
(601,1154,cs),
(601,1026,ls),
(601,955,o),
(616,902,o),
(646,869,cs),
(676,835,o),
(729,818,o),
(805,818,c)
);
},
{
closed = 1;
nodes = (
(73,8,l),
(147,8,o),
(196,21,o),
(221,48,cs),
(246,75,o),
(258,121,o),
(258,186,cs),
(258,354,ls),
(258,426,o),
(281,506,o),
(357,570,cs),
(433,633,o),
(572,676,o),
(805,676,c),
(805,470,l),
(729,470,o),
(676,453,o),
(646,420,cs),
(616,386,o),
(601,333,o),
(601,262,cs),
(601,134,ls),
(601,29,o),
(587,-52,o),
(558,-110,cs),
(529,-167,o),
(489,-208,o),
(439,-233,cs),
(388,-258,o),
(332,-273,o),
(269,-278,cs),
(206,-283,o),
(140,-286,o),
(73,-286,c)
);
},
{
closed = 1;
nodes = (
(805,470,l),
(490,470,l),
(490,818,l),
(805,818,l)
);
}
);
width = 800;
},
{
layerId = "9958C6BA-7FC1-41C8-B3E0-9B3AF71AFF69";
shapes = (
{
closed = 1;
nodes = (
(753,619,l),
(555,619,o),
(437,655,o),
(371,711,cs),
(305,767,o),
(285,840,o),
(285,914,cs),
(285,1140,ls),
(285,1215,o),
(271,1268,o),
(244,1301,cs),
(216,1334,o),
(163,1350,o),
(84,1350,c),
(84,1574,l),
(153,1574,o),
(216,1569,o),
(272,1559,cs),
(329,1549,o),
(376,1529,o),
(417,1501,cs),
(458,1473,o),
(489,1432,o),
(510,1379,cs),
(532,1325,o),
(542,1255,o),
(542,1168,cs),
(542,990,ls),
(542,915,o),
(557,861,o),
(589,828,c),
(620,794,o),
(675,777,o),
(753,777,c)
);
},
{
closed = 1;
nodes = (
(84,-63,l),
(163,-63,o),
(216,-47,o),
(244,-14,cs),
(271,19,o),
(285,73,o),
(285,148,cs),
(285,373,ls),
(285,446,o),
(305,519,o),
(371,576,cs),
(437,632,o),
(555,668,o),
(753,668,c),
(753,511,l),
(675,511,o),
(620,494,o),
(589,460,cs),
(557,426,o),
(542,371,o),
(542,297,cs),
(542,120,ls),
(542,33,o),
(532,-38,o),
(510,-91,cs),
(489,-144,o),
(458,-185,o),
(417,-214,cs),
(376,-242,o),
(329,-261,o),
(272,-271,cs),
(216,-281,o),
(153,-286,o),
(84,-286,c)
);
},
{
closed = 1;
nodes = (
(753,511,l),
(504,511,l),
(504,777,l),
(753,777,l)
);
}
);
width = 800;
},
{
layerId = "1B8D64CA-D7DF-4852-939C-A0B9329902C0";
shapes = (
{
closed = 1;
nodes = (
(697,627,l),
(537,627,o),
(441,655,o),
(386,703,cs),
(331,751,o),
(314,817,o),
(314,893,cs),
(314,1182,ls),
(314,1267,o),
(299,1328,o),
(269,1367,cs),
(238,1406,o),
(181,1425,o),
(96,1425,c),
(96,1574,l),
(167,1574,o),
(227,1566,o),
(276,1551,cs),
(325,1535,o),
(364,1511,o),
(394,1480,cs),
(424,1448,o),
(446,1407,o),
(459,1358,cs),
(472,1309,o),
(478,1250,o),
(478,1183,cs),
(478,951,ls),
(478,872,o),
(494,816,o),
(527,783,c),
(559,749,o),
(616,732,o),
(697,732,c)
);
},
{
closed = 1;
nodes = (
(96,-139,l),
(181,-139,o),
(238,-120,o),
(269,-81,cs),
(299,-42,o),
(314,21,o),
(314,106,cs),
(314,393,ls),
(314,468,o),
(331,534,o),
(386,583,cs),
(441,631,o),
(537,660,o),
(697,660,c),
(697,556,l),
(616,555,o),
(559,538,o),
(527,504,cs),
(494,470,o),
(478,413,o),
(478,334,cs),
(478,104,ls),
(478,37,o),
(472,-22,o),
(459,-71,cs),
(446,-120,o),
(424,-161,o),
(394,-193,cs),
(364,-224,o),
(325,-248,o),
(276,-263,cs),
(227,-278,o),
(167,-286,o),
(96,-286,c)
);
},
{
closed = 1;
nodes = (
(697,556,l),
(520,555,l),
(520,733,l),
(697,732,l)
);
}
);
width = 800;
},
{
layerId = "B109C6DD-98CC-498D-964F-904F22F997F9";
shapes = (
{
closed = 1;
nodes = (
(639,622,l),
(540,622,o),
(475,640,o),
(435,681,cs),
(395,721,o),
(377,786,o),
(377,882,cs),
(377,1264,ls),
(377,1357,o),
(360,1425,o),
(325,1467,cs),
(290,1508,o),
(234,1529,o),
(159,1529,c),
(159,1575,l),
(204,1575,o),
(243,1569,o),
(276,1556,cs),
(309,1543,o),
(336,1524,o),
(358,1499,cs),
(380,1473,o),
(396,1441,o),
(407,1402,cs),
(417,1363,o),
(422,1317,o),
(422,1264,cs),
(422,882,ls),
(422,799,o),
(437,743,o),
(467,713,cs),
(497,683,o),
(554,668,o),
(639,668,c)
);
},
{
closed = 1;
nodes = (
(159,-241,l),
(234,-241,o),
(290,-220,o),
(325,-178,cs),
(360,-136,o),
(377,-69,o),
(377,24,cs),
(377,406,ls),
(377,502,o),
(395,568,o),
(435,609,cs),
(475,650,o),
(540,668,o),
(639,668,c),
(639,622,l),
(555,622,o),
(498,607,o),
(468,577,cs),
(437,546,o),
(422,489,o),
(422,406,cs),
(422,24,ls),
(422,-29,o),
(417,-75,o),
(407,-114,cs),
(396,-153,o),
(380,-185,o),
(358,-211,cs),
(336,-236,o),
(309,-255,o),
(276,-268,cs),
(243,-281,o),
(204,-287,o),
(159,-287,c)
);
},
{
closed = 1;
nodes = (
(639,622,l),
(487,622,l),
(487,668,l),
(639,668,l)
);
}
);
width = 800;
}
);
unicode = (125,61003);
}
{
glyphname = exclamdown;
layers = (
{
layerId = "1EC723AD-C41F-43E3-B68D-B2A779A308DC";
shapes = (
{
closed = 1;
nodes = (
(122,-394,l),
(155,621,l),
(512,621,l),
(546,-394,l)
);
},
{
closed = 1;
nodes = (
(272,705,o),
(222,724,o),
(182,762,cs),
(142,800,o),
(122,849,o),
(122,908,cs),
(122,967,o),
(142,1016,o),
(182,1054,cs),
(222,1092,o),
(272,1111,o),
(333,1111,cs),
(394,1111,o),
(445,1092,o),
(485,1054,cs),
(525,1016,o),
(545,967,o),
(545,908,cs),
(545,849,o),
(525,800,o),
(485,762,cs),
(445,724,o),
(394,705,o),
(333,705,cs)
);
}
);
width = 667;
},
{
layerId = "2F0A8C87-DA84-48CB-8FDB-683796859A95";
shapes = (
{
closed = 1;
nodes = (
(142,-392,l),
(165,636,l),
(435,636,l),
(459,-392,l)
);
},
{
closed = 1;
nodes = (
(250,773,o),
(209,789,o),
(176,821,cs),
(142,853,o),
(126,894,o),
(126,942,cs),
(126,990,o),
(142,1031,o),
(176,1063,cs),
(209,1095,o),
(250,1111,o),
(299,1111,cs),
(348,1111,o),
(390,1095,o),
(424,1063,cs),
(457,1031,o),
(473,990,o),
(473,942,cs),
(473,894,o),
(457,853,o),
(424,821,cs),
(390,789,o),
(348,773,o),
(299,773,cs)
);
}
);
width = 599;
},
{
layerId = "545E045A-B28D-42BD-AE6C-2FB63E8B3292";
shapes = (
{
closed = 1;
nodes = (
(163,-389,l),
(176,652,l),
(351,652,l),
(364,-389,l)
);
},
{
closed = 1;
nodes = (
(226,846,o),
(195,859,o),
(169,885,cs),
(143,911,o),
(130,942,o),
(130,978,cs),
(130,1015,o),
(143,1047,o),
(169,1073,cs),
(195,1098,o),
(226,1111,o),
(262,1111,cs),
(299,1111,o),
(330,1098,o),
(357,1073,c),
(383,1047,o),
(396,1015,o),
(396,978,cs),
(396,942,o),
(383,911,o),
(357,885,cs),
(330,859,o),
(299,846,o),
(262,846,cs)
);
}
);
width = 526;
},
{
layerId = "9DE19B50-AF62-41B5-96CD-C828EA777CBB";
shapes = (
{
closed = 1;
nodes = (
(216,-391,l),
(216,707,l),
(262,707,l),
(262,-391,l)
);
},
{
closed = 1;
nodes = (
(224,997,o),
(212,1002,o),
(201,1013,cs),
(190,1023,o),
(185,1035,o),
(185,1050,cs),
(185,1065,o),
(190,1078,o),
(201,1088,cs),
(212,1098,o),
(224,1103,o),
(238,1103,cs),
(253,1103,o),
(266,1098,o),
(277,1088,cs),
(288,1078,o),
(293,1065,o),
(293,1050,cs),
(293,1035,o),
(288,1023,o),
(277,1013,cs),
(266,1002,o),
(253,997,o),
(238,997,cs)
);
}
);
width = 478;
}
);
unicode = 161;
}
{
glyphname = cent;
layers = (
{
anchors = (
{
name = m.uni0347;
position = "{626, 204}";
},
{
name = m.uni0302_1;
position = "{626, 1291}";
},
{
name = m.uni0327_3;
position = "{626, 204}";
}
);
layerId = "30DB1A31-A6FD-462E-A165-656579CC7601";
shapes = (
{
closed = 1;
nodes = (
(574,0,l),
(574,1490,l),
(686,1490,l),
(686,0,l)
);
},
{
closed = 1;
nodes = (
(509,182,o),
(407,206,o),
(322,253,cs),
(237,300,o),
(171,366,o),
(124,451,cs),
(77,536,o),
(54,634,o),
(54,746,cs),
(54,859,o),
(77,957,o),
(124,1042,cs),
(171,1126,o),
(237,1192,o),
(322,1239,cs),
(407,1286,o),
(509,1310,o),
(626,1310,cs),
(779,1310,o),
(910,1267,o),
(1004,1189,cs),
(1098,1111,o),
(1154,999,o),
(1163,867,c),
(787,839,l),
(782,891,o),
(765,933,o),
(738,962,cs),
(711,990,o),
(676,1005,o),
(633,1005,cs),
(597,1005,o),
(566,995,o),
(541,976,cs),
(490,936,o),
(462,859,o),
(462,747,cs),
(462,692,o),
(469,645,o),
(483,606,cs),
(510,529,o),
(562,487,o),
(633,487,cs),
(676,487,o),
(711,503,o),
(738,532,cs),
(765,561,o),
(782,603,o),
(787,658,c),
(1163,631,l),
(1156,496,o),
(1102,385,o),
(1008,306,cs),
(914,226,o),
(782,182,o),
(626,182,cs)
);
}
);
width = 1215;
},
{
anchors = (
{
name = m.uni0347;
position = "{626, 204}";
},
{
name = m.uni0302_1;
position = "{626, 1291}";
},
{
name = m.uni0327_3;
position = "{626, 204}";
}
);
layerId = "9958C6BA-7FC1-41C8-B3E0-9B3AF71AFF69";
shapes = (
{
closed = 1;
nodes = (
(545,0,l),
(545,1490,l),
(667,1490,l),
(667,0,l)
);
},
{
closed = 1;
nodes = (
(499,181,o),
(405,205,o),
(324,252,cs),
(244,299,o),
(182,365,o),
(137,450,cs),
(92,535,o),
(70,633,o),
(70,744,cs),
(70,857,o),
(92,956,o),
(137,1041,cs),
(182,1125,o),
(244,1191,o),
(324,1239,cs),
(405,1286,o),
(499,1310,o),
(608,1310,cs),
(742,1310,o),
(858,1271,o),
(945,1202,cs),
(1032,1133,o),
(1087,1034,o),
(1103,917,c),
(824,890,l),
(815,946,o),
(791,993,o),
(754,1025,cs),
(718,1057,o),
(670,1076,o),
(611,1076,cs),
(559,1076,o),
(514,1062,o),
(479,1035,cs),
(406,979,o),
(368,878,o),
(368,745,cs),
(368,679,o),
(377,622,o),
(397,572,cs),
(434,474,o),
(507,415,o),
(611,415,cs),
(670,415,o),
(718,433,o),
(754,466,cs),
(790,499,o),
(814,546,o),
(824,605,c),
(1103,579,l),
(1089,460,o),
(1035,361,o),
(948,291,cs),
(861,220,o),
(743,181,o),
(608,181,cs)
);
}
);
width = 1170;
},
{
anchors = (
{
name = m.uni0347;
position = "{626, 204}";
},
{
name = m.uni0302_1;
position = "{626, 1291}";
},
{
name = m.uni0327_3;
position = "{626, 204}";
}
);
layerId = "1B8D64CA-D7DF-4852-939C-A0B9329902C0";
shapes = (
{
closed = 1;
nodes = (
(514,0,l),
(514,1490,l),
(646,1490,l),
(646,0,l)
);
},
{
closed = 1;
nodes = (
(489,179,o),
(402,203,o),
(327,251,cs),
(252,298,o),
(193,364,o),
(151,449,cs),
(109,534,o),
(88,631,o),
(88,742,cs),
(88,855,o),
(109,954,o),
(151,1039,cs),
(193,1124,o),
(252,1190,o),
(327,1238,cs),
(402,1285,o),
(489,1309,o),
(588,1309,cs),
(701,1309,o),
(802,1276,o),
(881,1217,cs),
(960,1157,o),
(1014,1072,o),
(1037,971,c),
(864,946,l),
(851,1006,o),
(819,1057,o),
(772,1094,cs),
(725,1130,o),
(664,1152,o),
(588,1152,cs),
(517,1152,o),
(458,1134,o),
(411,1098,cs),
(315,1026,o),
(266,898,o),
(266,742,cs),
(266,665,o),
(278,597,o),
(303,536,cs),
(351,414,o),
(447,337,o),
(588,337,cs),
(664,337,o),
(726,358,o),
(772,395,cs),
(818,432,o),
(849,484,o),
(865,547,c),
(1039,522,l),
(1016,421,o),
(962,335,o),
(883,275,cs),
(803,214,o),
(701,179,o),
(588,179,cs)
);
}
);
width = 1121;
},
{
anchors = (
{
name = m.uni0347;
position = "{601, 205}";
},
{
name = m.uni0302_1;
position = "{601, 1292}";
},
{
name = m.uni0327_3;
position = "{601, 205}";
}
);
layerId = "B109C6DD-98CC-498D-964F-904F22F997F9";
shapes = (
{
closed = 1;
nodes = (
(532,0,l),
(532,1490,l),
(578,1490,l),
(578,0,l)
);
},
{
closed = 1;
nodes = (
(474,188,o),
(394,212,o),
(324,261,cs),
(254,310,o),
(199,376,o),
(159,461,cs),
(118,545,o),
(98,640,o),
(98,747,cs),
(98,855,o),
(118,951,o),
(159,1035,cs),
(199,1119,o),
(254,1185,o),
(324,1234,cs),
(394,1283,o),
(474,1307,o),
(563,1307,cs),
(678,1307,o),
(771,1265,o),
(839,1203,cs),
(907,1141,o),
(949,1067,o),
(962,1010,c),
(918,998,l),
(906,1050,o),
(868,1115,o),
(808,1169,cs),
(747,1223,o),
(666,1261,o),
(563,1261,cs),
(482,1261,o),
(411,1239,o),
(348,1195,cs),
(223,1107,o),
(145,948,o),
(145,747,cs),
(145,647,o),
(163,559,o),
(200,482,cs),
(272,328,o),
(403,234,o),
(563,234,cs),
(664,234,o),
(748,273,o),
(809,327,cs),
(869,381,o),
(908,445,o),
(920,497,c),
(964,486,l),
(951,427,o),
(909,354,o),
(841,293,cs),
(772,232,o),
(678,188,o),
(563,188,cs)
);
}
);
width = 1057;
}
);
leftKerningGroup = c;
rightKerningGroup = b;
unicode = 162;
}
{
glyphname = currency;
layers = (
{
layerId = "30DB1A31-A6FD-462E-A165-656579CC7601";
shapes = (
{
closed = 1;
nodes = (
(634,-20,o),
(480,48,o),
(365,161,cs),
(250,274,o),
(182,431,o),
(183,608,cs),
(182,785,o),
(250,941,o),
(365,1054,cs),
(480,1167,o),
(635,1234,o),
(806,1234,cs),
(975,1234,o),
(1130,1167,o),
(1246,1054,cs),
(1361,941,o),
(1430,785,o),
(1431,608,cs),
(1430,431,o),
(1361,275,o),
(1246,161,cs),
(1130,47,o),
(975,-20,o),
(806,-20,cs)
);
},
{
closed = 1;
nodes = (
(883,190,o),
(954,208,o),
(1018,245,cs),
(1082,281,o),
(1133,331,o),
(1171,395,cs),
(1209,458,o),
(1228,529,o),
(1228,608,cs),
(1228,689,o),
(1209,760,o),
(1171,823,cs),
(1133,886,o),
(1082,935,o),
(1018,972,cs),
(954,1008,o),
(883,1026,o),
(806,1026,cs),
(727,1026,o),
(655,1008,o),
(592,972,cs),
(528,936,o),
(478,887,o),
(441,824,cs),
(404,761,o),
(385,689,o),
(385,608,cs),
(385,529,o),
(403,458,o),
(440,395,cs),
(477,331,o),
(527,281,o),
(591,245,cs),
(655,208,o),
(727,190,o),
(806,190,cs)
);
},
{
closed = 1;
nodes = (
(1264,909,l),
(1110,1065,l),
(1318,1273,l),
(1476,1115,l)
);
},
{
closed = 1;
nodes = (
(1318,-31,l),
(1110,175,l),
(1264,329,l),
(1476,127,l)
);
},
{
closed = 1;
nodes = (
(294,-31,l),
(140,127,l),
(350,329,l),
(506,175,l)
);
},
{
closed = 1;
nodes = (
(350,909,l),
(140,1115,l),
(294,1273,l),
(506,1065,l)
);
}
);
width = 1608;
},
{
layerId = "9958C6BA-7FC1-41C8-B3E0-9B3AF71AFF69";
shapes = (
{
closed = 1;
nodes = (
(597,-20,o),
(446,48,o),
(334,161,cs),
(222,275,o),
(156,431,o),
(156,608,cs),
(156,785,o),
(222,941,o),
(334,1054,cs),
(446,1167,o),
(598,1234,o),
(765,1234,cs),
(932,1234,o),
(1084,1167,o),
(1197,1054,cs),
(1309,941,o),
(1376,785,o),
(1377,608,cs),
(1376,431,o),
(1309,275,o),
(1197,161,cs),
(1084,47,o),
(932,-20,o),
(765,-20,cs)
);
},
{
closed = 1;
nodes = (
(844,166,o),
(916,186,o),
(980,226,cs),
(1045,265,o),
(1096,318,o),
(1134,385,cs),
(1172,452,o),
(1191,526,o),
(1191,608,cs),
(1191,691,o),
(1172,766,o),
(1134,833,cs),
(1096,900,o),
(1045,952,o),
(980,992,cs),
(916,1030,o),
(844,1050,o),
(765,1050,cs),
(686,1050,o),
(614,1030,o),
(550,992,cs),
(485,953,o),
(434,900,o),
(396,834,cs),
(358,767,o),
(338,692,o),
(338,608,cs),
(338,526,o),
(357,452,o),
(395,385,cs),
(433,318,o),
(484,265,o),
(549,226,cs),
(614,186,o),
(686,166,o),
(765,166,cs)
);
},
{
closed = 1;
nodes = (
(1206,917,l),
(1070,1057,l),
(1274,1264,l),
(1415,1123,l)
);
},
{
closed = 1;
nodes = (
(1274,-23,l),
(1070,183,l),
(1206,321,l),
(1415,118,l)
);
},
{
closed = 1;
nodes = (
(259,-23,l),
(123,118,l),
(328,321,l),
(467,183,l)
);
},
{
closed = 1;
nodes = (
(328,917,l),
(123,1123,l),
(259,1264,l),
(467,1057,l)
);
}
);
width = 1532;
},
{
layerId = "1B8D64CA-D7DF-4852-939C-A0B9329902C0";
shapes = (
{
closed = 1;
nodes = (
(556,-20,o),
(409,48,o),
(301,162,cs),
(192,276,o),
(127,431,o),
(127,608,cs),
(127,785,o),
(192,941,o),
(301,1054,cs),
(409,1167,o),
(557,1234,o),
(721,1234,cs),
(885,1234,o),
(1034,1167,o),
(1143,1054,cs),
(1252,941,o),
(1318,785,o),
(1318,608,cs),
(1318,431,o),
(1252,275,o),
(1143,161,cs),
(1034,47,o),
(885,-20,o),
(721,-20,cs)
);
},
{
closed = 1;
nodes = (
(801,141,o),
(874,162,o),
(939,205,cs),
(1004,247,o),
(1055,304,o),
(1094,375,cs),
(1132,446,o),
(1151,523,o),
(1151,608,cs),
(1151,694,o),
(1132,773,o),
(1094,844,cs),
(1055,915,o),
(1004,971,o),
(939,1013,cs),
(874,1054,o),
(801,1075,o),
(721,1075,cs),
(642,1075,o),
(569,1054,o),
(504,1013,cs),
(438,971,o),
(386,915,o),
(347,844,cs),
(308,773,o),
(288,695,o),
(288,608,cs),
(288,523,o),
(308,446,o),
(347,375,cs),
(386,304,o),
(438,247,o),
(504,205,cs),
(569,162,o),
(642,141,o),
(721,141,cs)
);
},
{
closed = 1;
nodes = (
(1144,926,l),
(1027,1049,l),
(1227,1255,l),
(1348,1132,l)
);
},
{
closed = 1;
nodes = (
(1227,-14,l),
(1027,192,l),
(1144,313,l),
(1348,109,l)
);
},
{
closed = 1;
nodes = (
(221,-14,l),
(104,109,l),
(304,313,l),
(425,192,l)
);
},
{
closed = 1;
nodes = (
(304,926,l),
(104,1132,l),
(221,1255,l),
(425,1049,l)
);
}
);
width = 1450;
},
{
layerId = "B109C6DD-98CC-498D-964F-904F22F997F9";
shapes = (
{
closed = 1;
nodes = (
(499,-20,o),
(357,48,o),
(252,161,cs),
(147,274,o),
(85,431,o),
(85,608,cs),
(85,785,o),
(147,941,o),
(252,1054,cs),
(357,1167,o),
(501,1234,o),
(662,1234,cs),
(826,1234,o),
(972,1167,o),
(1077,1054,cs),
(1181,941,o),
(1243,785,o),
(1243,608,cs),
(1243,431,o),
(1181,275,o),
(1077,161,cs),
(972,47,o),
(826,-20,o),
(662,-20,cs)
);
},
{
closed = 1;
nodes = (
(763,26,o),
(853,52,o),
(934,103,cs),
(1014,154,o),
(1078,224,o),
(1125,313,cs),
(1172,401,o),
(1195,499,o),
(1196,608,c),
(1196,718,o),
(1172,817,o),
(1125,904,cs),
(1078,991,o),
(1014,1060,o),
(933,1111,cs),
(852,1161,o),
(762,1186,o),
(662,1186,cs),
(563,1186,o),
(474,1161,o),
(394,1111,cs),
(313,1061,o),
(249,992,o),
(202,905,cs),
(155,818,o),
(131,719,o),
(131,608,cs),
(131,499,o),
(155,401,o),
(202,313,cs),
(249,224,o),
(312,154,o),
(393,103,cs),
(473,52,o),
(563,26,o),
(662,26,cs)
);
},
{
closed = 1;
nodes = (
(1078,1005,l),
(1048,1039,l),
(1222,1219,l),
(1252,1185,l)
);
},
{
closed = 1;
nodes = (
(1222,1,l),
(1048,181,l),
(1078,215,l),
(1252,35,l)
);
},
{
closed = 1;
nodes = (
(104,1,l),
(72,35,l),
(248,215,l),
(278,181,l)
);
},
{
closed = 1;
nodes = (
(248,1005,l),
(72,1185,l),
(104,1219,l),
(278,1039,l)
);
}
);
width = 1330;
}
);
unicode = 164;
}
{
glyphname = yen;
layers = (
{
layerId = "30DB1A31-A6FD-462E-A165-656579CC7601";
shapes = (
{
closed = 1;
nodes = (
(427,1490,l),
(684,792,l),
(422,562,l),
(22,1490,l)
);
},
{
closed = 1;
nodes = (
(510,802,l),
(762,1490,l),
(1168,1490,l),
(763,562,l)
);
},
{
closed = 1;
nodes = (
(786,786,l),
(786,0,l),
(389,0,l),
(389,786,l)
);
},
{
closed = 1;
nodes = (
(1060,786,l),
(1060,574,l),
(77,574,l),
(77,786,l)
);
},
{
closed = 1;
nodes = (
(1060,498,l),
(1060,286,l),
(77,286,l),
(77,498,l)
);
}
);
width = 1188;
},
{
layerId = "9958C6BA-7FC1-41C8-B3E0-9B3AF71AFF69";
shapes = (
{
closed = 1;
nodes = (
(327,1490,l),
(642,730,l),
(438,581,l),
(18,1490,l)
);
},
{
closed = 1;
nodes = (
(503,735,l),
(816,1490,l),
(1126,1490,l),
(703,581,l)
);
},
{
closed = 1;
nodes = (
(715,784,l),
(715,0,l),
(421,0,l),
(421,784,l)
);
},
{
closed = 1;
nodes = (
(1014,765,l),
(1014,591,l),
(102,591,l),
(102,765,l)
);
},
{
closed = 1;
nodes = (
(1014,477,l),
(1014,303,l),
(102,303,l),
(102,477,l)
);
}
);
width = 1142;
},
{
layerId = "1B8D64CA-D7DF-4852-939C-A0B9329902C0";
shapes = (
{
closed = 1;
nodes = (
(219,1490,l),
(596,663,l),
(455,601,l),
(14,1490,l)
);
},
{
closed = 1;
nodes = (
(496,663,l),
(875,1490,l),
(1080,1490,l),
(639,601,l)
);
},
{
closed = 1;
nodes = (
(639,782,l),
(639,0,l),
(455,0,l),
(455,782,l)
);
},
{
closed = 1;
nodes = (
(964,743,l),
(964,609,l),
(129,609,l),
(129,743,l)
);
},
{
closed = 1;
nodes = (
(964,455,l),
(964,321,l),
(129,321,l),
(129,455,l)
);
}
);
width = 1092;
},
{
layerId = "B109C6DD-98CC-498D-964F-904F22F997F9";
shapes = (
{
closed = 1;
nodes = (
(65,1490,l),
(526,642,l),
(474,642,l),
(12,1490,l)
);
},
{
closed = 1;
nodes = (
(480,642,l),
(942,1490,l),
(994,1490,l),
(533,642,l)
);
},
{
closed = 1;
nodes = (
(526,692,l),
(526,0,l),
(481,0,l),
(481,692,l)
);
},
{
closed = 1;
nodes = (
(876,666,l),
(876,620,l),
(131,620,l),
(131,666,l)
);
},
{
closed = 1;
nodes = (
(876,488,l),
(876,442,l),
(131,442,l),
(131,488,l)
);
}
);
width = 1006;
}
);
leftKerningGroup = yen;
unicode = 165;
}
{
glyphname = brokenbar;
layers = (
{
layerId = "1EC723AD-C41F-43E3-B68D-B2A779A308DC";
shapes = (
{
closed = 1;
nodes = (
(222,425,l),
(577,425,l),
(577,-280,l),
(222,-280,l)
);
},
{
closed = 1;
nodes = (
(577,1490,l),
(577,789,l),
(222,789,l),
(222,1490,l)
);
}
);
width = 799;
},
{
layerId = "2F0A8C87-DA84-48CB-8FDB-683796859A95";
shapes = (
{
closed = 1;
nodes = (
(200,414,l),
(464,414,l),
(464,-280,l),
(200,-280,l)
);
},
{
closed = 1;
nodes = (
(464,1490,l),
(464,800,l),
(200,800,l),
(200,1490,l)
);
}
);
width = 664;
},
{
layerId = "545E045A-B28D-42BD-AE6C-2FB63E8B3292";
shapes = (
{
closed = 1;
nodes = (
(176,403,l),
(341,403,l),
(341,-280,l),
(176,-280,l)
);
},
{
closed = 1;
nodes = (
(341,1490,l),
(341,812,l),
(176,812,l),
(176,1490,l)
);
}
);
width = 517;
},
{
layerId = "9DE19B50-AF62-41B5-96CD-C828EA777CBB";
shapes = (
{
closed = 1;
nodes = (
(136,387,l),
(183,387,l),
(183,-280,l),
(136,-280,l)
);
},
{
closed = 1;
nodes = (
(183,1490,l),
(183,827,l),
(136,827,l),
(136,1490,l)
);
}
);
width = 319;
}
);
unicode = 166;
}
{
glyphname = section;
layers = (
{
layerId = "30DB1A31-A6FD-462E-A165-656579CC7601";
shapes = (
{
closed = 1;
nodes = (
(734,1109,l),
(733,1130,o),
(723,1147,o),
(702,1161,cs),
(681,1175,o),
(651,1182,o),
(612,1182,cs),
(599,1182,o),
(583,1181,o),
(565,1179,cs),
(528,1175,o),
(499,1159,o),
(499,1114,cs),
(499,1095,o),
(506,1078,o),
(520,1063,cs),
(548,1034,o),
(592,1015,o),
(624,1006,c),
(901,903,l),
(938,888,o),
(1005,860,o),
(1062,806,cs),
(1119,752,o),
(1157,672,o),
(1142,556,cs),
(1137,513,o),
(1122,481,o),
(1099,458,cs),
(1076,435,o),
(1052,419,o),
(1028,411,cs),
(1003,402,o),
(985,396,o),
(972,392,cs),
(966,390,l),
(1012,351,o),
(1047,307,o),
(1071,260,cs),
(1094,213,o),
(1106,158,o),
(1106,96,cs),
(1106,17,o),
(1086,-52,o),
(1046,-112,cs),
(966,-232,o),
(822,-300,o),
(635,-300,cs),
(536,-300,o),
(450,-283,o),
(377,-248,cs),
(230,-178,o),
(145,-51,o),
(145,116,c),
(487,116,l),
(487,88,o),
(500,66,o),
(526,50,cs),
(552,33,o),
(590,27,o),
(641,32,c),
(667,33,o),
(693,39,o),
(719,48,cs),
(745,57,o),
(758,73,o),
(759,96,c),
(758,114,o),
(751,130,o),
(737,144,cs),
(708,172,o),
(668,192,o),
(639,204,c),
(363,307,l),
(322,320,o),
(255,350,o),
(199,403,cs),
(142,456,o),
(102,537,o),
(118,654,cs),
(124,699,o),
(138,733,o),
(159,755,cs),
(180,777,o),
(204,792,o),
(229,801,cs),
(254,809,o),
(273,815,o),
(288,818,c),
(288,819,l),
(207,898,o),
(153,990,o),
(153,1114,cs),
(153,1191,o),
(172,1259,o),
(211,1319,cs),
(288,1438,o),
(431,1510,o),
(612,1510,cs),
(704,1510,o),
(785,1493,o),
(855,1458,cs),
(994,1388,o),
(1077,1261,o),
(1078,1109,c)
);
},
{
closed = 1;
nodes = (
(828,539,o),
(828,548,o),
(823,559,cs),
(818,570,o),
(807,581,o),
(791,592,cs),
(774,603,o),
(751,613,o),
(721,622,c),
(504,697,l),
(490,701,o),
(478,703,o),
(469,703,cs),
(450,703,o),
(438,696,o),
(433,680,c),
(426,669,o),
(430,654,o),
(447,637,c),
(463,619,o),
(493,603,o),
(537,588,cs),
(761,513,ls),
(772,509,o),
(781,507,o),
(789,507,cs),
(797,507,o),
(804,509,o),
(810,513,cs),
(815,516,o),
(820,522,o),
(824,531,cs)
);
}
);
width = 1257;
},
{
layerId = "9958C6BA-7FC1-41C8-B3E0-9B3AF71AFF69";
shapes = (
{
closed = 1;
nodes = (
(738,1123,l),
(737,1164,o),
(724,1197,o),
(699,1224,c),
(673,1250,o),
(633,1264,o),
(581,1264,cs),
(553,1264,o),
(528,1259,o),
(505,1251,c),
(459,1233,o),
(432,1200,o),
(432,1153,cs),
(432,1130,o),
(439,1108,o),
(455,1088,cs),
(485,1049,o),
(534,1020,o),
(572,1002,cs),
(852,870,ls),
(889,852,o),
(949,820,o),
(1001,766,cs),
(1053,713,o),
(1088,637,o),
(1079,532,cs),
(1076,493,o),
(1063,460,o),
(1042,431,cs),
(1021,402,o),
(997,380,o),
(970,363,cs),
(943,345,o),
(917,333,o),
(893,325,c),
(890,323,l),
(930,288,o),
(961,248,o),
(982,205,cs),
(1002,162,o),
(1012,112,o),
(1012,57,cs),
(1012,-19,o),
(993,-83,o),
(956,-137,cs),
(881,-244,o),
(749,-301,o),
(588,-301,cs),
(500,-301,o),
(423,-285,o),
(356,-252,cs),
(222,-187,o),
(144,-66,o),
(144,95,c),
(404,95,l),
(404,48,o),
(421,10,o),
(455,-16,cs),
(489,-43,o),
(534,-55,o),
(592,-52,c),
(631,-52,o),
(667,-43,o),
(700,-25,cs),
(733,-8,o),
(749,19,o),
(750,57,c),
(749,84,o),
(742,106,o),
(727,126,c),
(696,163,o),
(651,189,o),
(613,208,c),
(334,340,l),
(291,358,o),
(231,392,o),
(181,445,cs),
(130,498,o),
(95,573,o),
(104,675,cs),
(107,715,o),
(119,750,o),
(138,779,cs),
(157,808,o),
(181,831,o),
(209,849,cs),
(237,867,o),
(263,879,o),
(289,886,c),
(289,889,l),
(218,960,o),
(170,1044,o),
(170,1153,cs),
(170,1223,o),
(187,1284,o),
(223,1338,cs),
(292,1445,o),
(420,1510,o),
(581,1510,cs),
(665,1510,o),
(737,1493,o),
(800,1460,cs),
(925,1393,o),
(998,1272,o),
(999,1123,c)
);
},
{
closed = 1;
nodes = (
(837,539,o),
(834,557,o),
(825,573,c),
(817,590,o),
(803,606,o),
(785,621,cs),
(766,636,o),
(743,649,o),
(717,659,c),
(467,777,ls),
(450,785,o),
(432,786,o),
(415,780,c),
(378,769,o),
(349,737,o),
(346,690,c),
(342,662,o),
(351,635,o),
(374,612,c),
(396,588,o),
(427,567,o),
(467,550,c),
(713,437,l),
(728,429,o),
(745,428,o),
(763,433,cs),
(781,438,o),
(797,449,o),
(811,465,cs),
(825,480,o),
(833,499,o),
(835,522,cs)
);
}
);
width = 1181;
},
{
layerId = "1B8D64CA-D7DF-4852-939C-A0B9329902C0";
shapes = (
{
closed = 1;
nodes = (
(743,1138,l),
(742,1200,o),
(726,1251,o),
(695,1292,cs),
(664,1332,o),
(614,1352,o),
(547,1352,cs),
(504,1352,o),
(469,1344,o),
(441,1328,cs),
(385,1296,o),
(359,1245,o),
(359,1196,cs),
(359,1167,o),
(367,1141,o),
(384,1116,cs),
(417,1066,o),
(471,1026,o),
(516,998,c),
(798,834,ls),
(835,813,o),
(889,776,o),
(935,723,cs),
(981,670,o),
(1013,599,o),
(1010,506,cs),
(1009,471,o),
(1000,437,o),
(981,402,cs),
(962,367,o),
(937,337,o),
(907,311,cs),
(877,284,o),
(844,265,o),
(807,253,c),
(807,251,l),
(842,220,o),
(868,185,o),
(885,146,cs),
(902,106,o),
(910,62,o),
(910,14,cs),
(910,-58,o),
(893,-117,o),
(858,-164,cs),
(788,-257,o),
(669,-302,o),
(538,-302,cs),
(461,-302,o),
(393,-287,o),
(334,-257,cs),
(214,-196,o),
(142,-82,o),
(142,73,c),
(314,73,l),
(314,4,o),
(335,-50,o),
(378,-88,cs),
(420,-125,o),
(473,-144,o),
(538,-144,cs),
(591,-144,o),
(638,-131,o),
(679,-105,cs),
(720,-79,o),
(740,-39,o),
(740,14,cs),
(740,51,o),
(732,81,o),
(716,106,c),
(683,154,o),
(632,185,o),
(585,212,cs),
(303,375,ls),
(258,400,o),
(205,438,o),
(162,491,cs),
(118,543,o),
(88,612,o),
(88,697,c),
(89,733,o),
(98,769,o),
(115,805,cs),
(132,841,o),
(156,873,o),
(187,901,cs),
(218,929,o),
(252,948,o),
(291,959,c),
(291,965,l),
(230,1028,o),
(189,1103,o),
(189,1196,cs),
(189,1257,o),
(204,1312,o),
(235,1359,cs),
(296,1453,o),
(408,1510,o),
(547,1510,cs),
(622,1510,o),
(686,1494,o),
(741,1463,cs),
(850,1399,o),
(913,1283,o),
(913,1138,c)
);
},
{
closed = 1;
nodes = (
(847,540,o),
(841,566,o),
(828,589,cs),
(815,612,o),
(799,633,o),
(778,652,cs),
(757,671,o),
(735,687,o),
(712,700,cs),
(427,863,ls),
(407,875,o),
(383,875,o),
(356,864,cs),
(301,841,o),
(253,782,o),
(252,701,cs),
(251,654,o),
(265,615,o),
(294,585,cs),
(323,555,o),
(355,529,o),
(391,508,cs),
(660,354,ls),
(681,342,o),
(706,342,o),
(735,353,cs),
(764,364,o),
(790,384,o),
(813,413,cs),
(836,441,o),
(847,474,o),
(847,513,cs)
);
}
);
width = 1099;
},
{
layerId = "B109C6DD-98CC-498D-964F-904F22F997F9";
shapes = (
{
closed = 1;
nodes = (
(788,1191,l),
(784,1266,o),
(758,1331,o),
(711,1384,cs),
(664,1437,o),
(597,1464,o),
(512,1464,cs),
(457,1464,o),
(409,1452,o),
(368,1428,cs),
(284,1380,o),
(237,1295,o),
(237,1198,cs),
(237,1151,o),
(247,1111,o),
(268,1080,cs),
(309,1017,o),
(382,975,o),
(462,926,cs),
(585,853,ls),
(664,805,o),
(748,759,o),
(813,704,cs),
(878,648,o),
(920,583,o),
(920,498,c),
(921,455,o),
(909,417,o),
(886,383,cs),
(862,348,o),
(831,322,o),
(793,303,cs),
(754,284,o),
(711,275,o),
(664,274,c),
(664,270,l),
(743,218,o),
(795,172,o),
(822,133,cs),
(849,93,o),
(862,49,o),
(862,0,cs),
(862,-61,o),
(847,-115,o),
(817,-160,cs),
(756,-251,o),
(647,-302,o),
(511,-302,cs),
(442,-302,o),
(381,-288,o),
(328,-261,cs),
(220,-206,o),
(155,-107,o),
(147,24,c),
(193,24,l),
(199,-59,o),
(231,-126,o),
(288,-178,cs),
(345,-230,o),
(419,-256,o),
(511,-256,cs),
(596,-256,o),
(668,-233,o),
(727,-188,cs),
(786,-143,o),
(815,-80,o),
(815,0,cs),
(815,33,o),
(808,62,o),
(795,89,cs),
(768,142,o),
(703,197,o),
(571,274,cs),
(447,347,ls),
(322,419,o),
(236,477,o),
(181,531,cs),
(126,585,o),
(102,639,o),
(102,704,c),
(103,749,o),
(113,790,o),
(133,826,cs),
(153,862,o),
(182,890,o),
(219,910,cs),
(256,930,o),
(301,938,o),
(352,934,c),
(352,941,l),
(251,1010,o),
(191,1083,o),
(191,1198,cs),
(191,1256,o),
(205,1309,o),
(232,1356,cs),
(286,1451,o),
(387,1510,o),
(512,1510,cs),
(575,1510,o),
(630,1496,o),
(677,1469,cs),
(770,1414,o),
(827,1314,o),
(834,1191,c)
);
},
{
closed = 1;
nodes = (
(873,546,o),
(858,587,o),
(827,624,cs),
(796,660,o),
(757,693,o),
(710,723,cs),
(663,752,o),
(616,781,o),
(569,808,cs),
(416,899,l),
(356,903,o),
(306,897,o),
(267,881,cs),
(187,849,o),
(148,787,o),
(149,710,c),
(148,651,o),
(173,598,o),
(224,553,cs),
(275,508,o),
(354,453,o),
(463,390,cs),
(595,315,l),
(643,312,o),
(688,316,o),
(731,329,cs),
(773,342,o),
(807,362,o),
(834,391,cs),
(860,419,o),
(873,455,o),
(872,499,c)
);
}
);
width = 1023;
}
);
unicode = 167;
}
{
glyphname = copyright;
layers = (
{
layerId = "1EC723AD-C41F-43E3-B68D-B2A779A308DC";
shapes = (
{
closed = 1;
nodes = (
(538,817,o),
(556,884,o),
(591,944,cs),
(626,1003,o),
(674,1051,o),
(735,1087,cs),
(795,1122,o),
(861,1140,o),
(934,1140,cs),
(999,1140,o),
(1058,1126,o),
(1113,1097,cs),
(1221,1040,o),
(1296,938,o),
(1308,814,c),
(1066,814,l),
(1060,842,o),
(1045,865,o),
(1020,882,cs),
(995,899,o),
(966,908,o),
(934,908,cs),
(904,908,o),
(877,901,o),
(852,887,cs),
(803,858,o),
(770,806,o),
(770,746,cs),
(770,716,o),
(778,689,o),
(793,664,cs),
(808,639,o),
(827,620,o),
(852,605,cs),
(877,590,o),
(904,582,o),
(934,582,cs),
(966,582,o),
(995,591,o),
(1020,608,cs),
(1045,625,o),
(1060,647,o),
(1066,674,c),
(1308,674,l),
(1302,613,o),
(1282,558,o),
(1247,509,cs),
(1177,411,o),
(1063,350,o),
(934,350,cs),
(861,350,o),
(795,368,o),
(735,404,cs),
(674,439,o),
(626,487,o),
(591,547,cs),
(556,606,o),
(538,672,o),
(538,744,cs)
);
},
{
closed = 1;
nodes = (
(716,-23,o),
(526,61,o),
(385,202,cs),
(244,343,o),
(160,533,o),
(160,745,cs),
(160,957,o),
(244,1147,o),
(385,1288,cs),
(526,1429,o),
(716,1513,o),
(928,1513,cs),
(1140,1513,o),
(1330,1429,o),
(1471,1288,cs),
(1612,1147,o),
(1696,957,o),
(1696,745,cs),
(1696,533,o),
(1612,343,o),
(1471,202,cs),
(1330,61,o),
(1140,-23,o),
(928,-23,cs)
);
},
{
closed = 1;
nodes = (
(1060,267,o),
(1178,320,o),
(1266,408,cs),
(1354,495,o),
(1406,613,o),
(1406,745,cs),
(1406,877,o),
(1354,995,o),
(1266,1083,cs),
(1178,1171,o),
(1060,1223,o),
(928,1223,cs),
(796,1223,o),
(678,1171,o),
(591,1083,cs),
(503,995,o),
(450,877,o),
(450,745,cs),
(450,613,o),
(503,495,o),
(591,408,cs),
(678,320,o),
(796,267,o),
(928,267,cs)
);
}
);
width = 1856;
},
{
layerId = "2F0A8C87-DA84-48CB-8FDB-683796859A95";
shapes = (
{
closed = 1;
nodes = (
(518,820,o),
(536,890,o),
(573,953,cs),
(610,1015,o),
(660,1064,o),
(723,1102,cs),
(786,1139,o),
(855,1157,o),
(931,1157,cs),
(998,1157,o),
(1059,1143,o),
(1116,1114,cs),
(1228,1055,o),
(1306,952,o),
(1321,826,c),
(1111,826,l),
(1103,864,o),
(1082,895,o),
(1048,919,cs),
(1014,944,o),
(975,956,o),
(931,956,cs),
(892,956,o),
(857,947,o),
(825,928,cs),
(761,890,o),
(719,823,o),
(719,745,cs),
(719,706,o),
(729,671,o),
(748,640,cs),
(768,607,o),
(793,582,o),
(825,563,cs),
(857,544,o),
(892,534,o),
(931,534,cs),
(975,534,o),
(1013,546,o),
(1044,571,c),
(1076,594,o),
(1096,625,o),
(1103,663,c),
(1314,663,l),
(1306,601,o),
(1285,544,o),
(1250,494,cs),
(1179,394,o),
(1065,332,o),
(931,332,cs),
(855,332,o),
(786,351,o),
(723,388,cs),
(660,425,o),
(610,475,o),
(573,537,cs),
(536,599,o),
(518,669,o),
(518,744,cs)
);
},
{
closed = 1;
nodes = (
(712,-23,o),
(522,61,o),
(381,202,cs),
(240,343,o),
(156,533,o),
(156,745,cs),
(156,957,o),
(240,1147,o),
(381,1288,cs),
(522,1429,o),
(712,1513,o),
(924,1513,cs),
(1136,1513,o),
(1326,1429,o),
(1467,1288,cs),
(1608,1147,o),
(1692,957,o),
(1692,745,cs),
(1692,533,o),
(1608,343,o),
(1467,202,cs),
(1326,61,o),
(1136,-23,o),
(924,-23,cs)
);
},
{
closed = 1;
nodes = (
(1072,210,o),
(1204,269,o),
(1303,367,cs),
(1402,465,o),
(1459,597,o),
(1459,745,cs),
(1459,893,o),
(1402,1025,o),
(1303,1124,cs),
(1204,1222,o),
(1072,1280,o),
(924,1280,cs),
(776,1280,o),
(644,1222,o),
(546,1124,cs),
(448,1025,o),
(389,893,o),
(389,745,cs),
(389,597,o),
(448,465,o),
(546,367,cs),
(644,269,o),
(776,210,o),
(924,210,cs)
);
}
);
width = 1848;
},
{
layerId = "545E045A-B28D-42BD-AE6C-2FB63E8B3292";
shapes = (
{
closed = 1;
nodes = (
(496,824,o),
(515,897,o),
(554,962,cs),
(593,1027,o),
(645,1079,o),
(711,1118,cs),
(776,1157,o),
(849,1176,o),
(928,1176,cs),
(997,1176,o),
(1061,1161,o),
(1120,1132,cs),
(1236,1072,o),
(1317,967,o),
(1336,838,c),
(1160,838,l),
(1150,887,o),
(1123,928,o),
(1079,960,cs),
(1034,992,o),
(984,1008,o),
(928,1008,cs),
(880,1008,o),
(836,996,o),
(796,973,cs),
(716,925,o),
(664,841,o),
(664,744,cs),
(664,696,o),
(676,652,o),
(700,613,cs),
(724,573,o),
(756,541,o),
(796,518,cs),
(836,494,o),
(880,482,o),
(928,482,cs),
(984,482,o),
(1032,498,o),
(1071,530,cs),
(1110,561,o),
(1134,602,o),
(1144,652,c),
(1320,652,l),
(1311,587,o),
(1289,529,o),
(1253,478,cs),
(1181,375,o),
(1067,312,o),
(928,312,cs),
(849,312,o),
(776,332,o),
(711,371,cs),
(645,410,o),
(593,462,o),
(554,527,cs),
(515,592,o),
(496,665,o),
(496,744,cs)
);
},
{
closed = 1;
nodes = (
(708,-23,o),
(518,61,o),
(377,202,cs),
(236,343,o),
(152,533,o),
(152,745,cs),
(152,957,o),
(236,1147,o),
(377,1288,cs),
(518,1429,o),
(708,1513,o),
(920,1513,cs),
(1132,1513,o),
(1322,1429,o),
(1463,1288,cs),
(1604,1147,o),
(1688,957,o),
(1688,745,cs),
(1688,533,o),
(1604,343,o),
(1463,202,cs),
(1322,61,o),
(1132,-23,o),
(920,-23,cs)
);
},
{
closed = 1;
nodes = (
(1085,148,o),
(1233,214,o),
(1343,323,cs),
(1453,432,o),
(1517,580,o),
(1517,745,cs),
(1517,910,o),
(1453,1058,o),
(1343,1168,cs),
(1233,1278,o),
(1085,1342,o),
(920,1342,cs),
(755,1342,o),
(607,1278,o),
(498,1168,cs),
(389,1058,o),
(323,910,o),
(323,745,cs),
(323,580,o),
(389,432,o),
(498,323,cs),
(607,214,o),
(755,148,o),
(920,148,cs)
);
}
);
width = 1840;
},
{
layerId = "9DE19B50-AF62-41B5-96CD-C828EA777CBB";
shapes = (
{
closed = 1;
nodes = (
(494,824,o),
(513,897,o),
(552,962,cs),
(591,1027,o),
(643,1079,o),
(709,1118,cs),
(774,1157,o),
(847,1176,o),
(926,1176,cs),
(983,1176,o),
(1036,1166,o),
(1083,1145,cs),
(1178,1104,o),
(1250,1027,o),
(1286,930,c),
(1234,930,l),
(1209,990,o),
(1169,1038,o),
(1116,1075,cs),
(1062,1112,o),
(999,1130,o),
(926,1130,cs),
(855,1130,o),
(791,1113,o),
(732,1079,cs),
(615,1010,o),
(540,888,o),
(540,744,cs),
(540,673,o),
(557,609,o),
(592,551,cs),
(627,493,o),
(673,447,o),
(732,412,cs),
(791,377,o),
(855,360,o),
(926,360,cs),
(999,360,o),
(1062,378,o),
(1116,415,cs),
(1169,451,o),
(1209,499,o),
(1234,558,c),
(1286,558,l),
(1268,510,o),
(1242,468,o),
(1207,431,cs),
(1137,357,o),
(1041,312,o),
(926,312,cs),
(847,312,o),
(774,332,o),
(709,371,cs),
(643,410,o),
(591,462,o),
(552,527,cs),
(513,592,o),
(494,665,o),
(494,744,cs)
);
},
{
closed = 1;
nodes = (
(692,-23,o),
(502,61,o),
(361,202,cs),
(220,343,o),
(136,533,o),
(136,745,cs),
(136,957,o),
(220,1147,o),
(361,1288,cs),
(502,1429,o),
(692,1513,o),
(904,1513,cs),
(1116,1513,o),
(1306,1429,o),
(1447,1288,cs),
(1588,1147,o),
(1672,957,o),
(1672,745,cs),
(1672,533,o),
(1588,343,o),
(1447,202,cs),
(1306,61,o),
(1116,-23,o),
(904,-23,cs)
);
},
{
closed = 1;
nodes = (
(1104,23,o),
(1282,102,o),
(1415,235,cs),
(1548,367,o),
(1626,545,o),
(1626,745,cs),
(1626,945,o),
(1548,1123,o),
(1415,1256,cs),
(1282,1389,o),
(1104,1467,o),
(904,1467,cs),
(704,1467,o),
(526,1389,o),
(394,1256,cs),
(261,1123,o),
(182,945,o),
(182,745,cs),
(182,545,o),
(261,367,o),
(394,235,cs),
(526,102,o),
(704,23,o),
(904,23,cs)
);
}
);
width = 1808;
}
);
leftKerningGroup = C2;
rightKerningGroup = D;
unicode = 169;
}
{
glyphname = ordfeminine;
layers = (
{
anchors = (
{
name = bottom;
position = "{472, 660}";
},
{
name = ogonek;
position = "{877, 660}";
},
{
name = top;
position = "{478, 1502}";
}
);
layerId = "30DB1A31-A6FD-462E-A165-656579CC7601";
shapes = (
{
closed = 1;
nodes = (
(454,646,o),
(535,685,o),
(587,779,c),
(592,779,l),
(592,660,l),
(877,660,l),
(877,1230,ls),
(877,1406,o),
(722,1517,o),
(479,1517,cs),
(235,1517,o),
(97,1407,o),
(74,1243,c),
(346,1229,l),
(356,1280,o),
(400,1309,o),
(471,1309,cs),
(539,1309,o),
(581,1282,o),
(581,1238,cs),
(581,1234,ls),
(581,1186,o),
(525,1171,o),
(371,1160,cs),
(189,1147,o),
(44,1078,o),
(44,893,cs),
(44,726,o),
(165,646,o),
(335,646,cs)
);
},
{
closed = 1;
nodes = (
(369,835,o),
(325,862,o),
(325,910,cs),
(325,955,o),
(365,987,o),
(441,999,cs),
(500,1008,o),
(552,1018,o),
(584,1031,c),
(584,959,ls),
(584,881,o),
(511,835,o),
(429,835,cs)
);
}
);
width = 957;
},
{
anchors = (
{
name = bottom;
position = "{456, 660}";
},
{
name = ogonek;
position = "{835, 660}";
},
{
name = top;
position = "{460, 1502}";
}
);
layerId = "9958C6BA-7FC1-41C8-B3E0-9B3AF71AFF69";
shapes = (
{
closed = 1;
nodes = (
(480,645,o),
(559,697,o),
(602,778,c),
(608,778,l),
(608,660,l),
(835,660,l),
(835,1229,ls),
(835,1418,o),
(674,1516,o),
(464,1516,cs),
(250,1516,o),
(109,1417,o),
(80,1257,c),
(299,1241,l),
(312,1300,o),
(369,1342,o),
(460,1342,cs),
(549,1342,o),
(601,1301,o),
(601,1236,cs),
(601,1232,ls),
(601,1177,o),
(542,1170,o),
(387,1156,cs),
(211,1140,o),
(54,1084,o),
(54,896,cs),
(54,729,o),
(178,645,o),
(348,645,cs)
);
},
{
closed = 1;
nodes = (
(334,807,o),
(279,842,o),
(279,903,cs),
(279,967,o),
(340,1000,o),
(426,1012,cs),
(493,1022,o),
(575,1034,o),
(603,1051,c),
(603,964,ls),
(603,875,o),
(527,807,o),
(413,807,cs)
);
}
);
width = 928;
},
{
anchors = (
{
name = bottom;
position = "{439, 659}";
},
{
name = ogonek;
position = "{789, 659}";
},
{
name = top;
position = "{440, 1501}";
}
);
layerId = "1B8D64CA-D7DF-4852-939C-A0B9329902C0";
shapes = (
{
closed = 1;
nodes = (
(508,644,o),
(584,710,o),
(619,777,c),
(625,777,l),
(625,659,l),
(789,659,l),
(789,1228,ls),
(789,1432,o),
(622,1514,o),
(448,1514,cs),
(267,1514,o),
(122,1428,o),
(87,1272,c),
(248,1253,l),
(264,1321,o),
(335,1378,o),
(448,1378,cs),
(560,1378,o),
(622,1322,o),
(622,1234,cs),
(622,1229,ls),
(622,1168,o),
(561,1169,o),
(404,1151,cs),
(234,1132,o),
(64,1090,o),
(64,899,cs),
(64,732,o),
(193,644,o),
(362,644,cs)
);
},
{
closed = 1;
nodes = (
(297,777,o),
(229,820,o),
(229,896,cs),
(229,981,o),
(312,1014,o),
(409,1027,cs),
(486,1037,o),
(599,1051,o),
(623,1072,c),
(623,969,ls),
(623,868,o),
(545,777,o),
(396,777,cs)
);
}
);
width = 897;
},
{
anchors = (
{
name = bottom;
position = "{411, 652}";
},
{
name = ogonek;
position = "{706, 652}";
},
{
name = top;
position = "{408, 1494}";
}
);
layerId = "B109C6DD-98CC-498D-964F-904F22F997F9";
shapes = (
{
closed = 1;
nodes = (
(494,637,o),
(607,710,o),
(657,819,c),
(661,819,l),
(661,652,l),
(706,652,l),
(706,1246,ls),
(706,1400,o),
(580,1506,o),
(405,1506,cs),
(245,1506,o),
(119,1416,o),
(96,1287,c),
(140,1279,l),
(159,1387,o),
(267,1463,o),
(405,1463,cs),
(555,1463,o),
(661,1373,o),
(661,1247,cs),
(661,1214,ls),
(661,1146,o),
(555,1132,o),
(415,1115,cs),
(158,1084,o),
(72,1010,o),
(72,878,cs),
(72,719,o),
(205,637,o),
(354,637,cs)
);
},
{
closed = 1;
nodes = (
(223,681,o),
(118,754,o),
(118,877,cs),
(118,987,o),
(197,1044,o),
(422,1072,cs),
(541,1087,o),
(618,1101,o),
(661,1135,c),
(661,1002,ls),
(661,802,o),
(525,681,o),
(356,681,cs)
);
}
);
width = 837;
}
);
leftKerningGroup = dagger2;
rightKerningGroup = dagger;
unicode = 170;
}
{
glyphname = logicalnot;
layers = (
{
layerId = "1EC723AD-C41F-43E3-B68D-B2A779A308DC";
shapes = (
{
closed = 1;
nodes = (
(846,287,l),
(846,505,l),
(208,505,l),
(208,814,l),
(1172,814,l),
(1172,287,l)
);
}
);
width = 1405;
},
{
layerId = "2F0A8C87-DA84-48CB-8FDB-683796859A95";
shapes = (
{
closed = 1;
nodes = (
(866,300,l),
(866,545,l),
(212,545,l),
(212,781,l),
(1114,781,l),
(1114,300,l)
);
}
);
width = 1365;
},
{
layerId = "545E045A-B28D-42BD-AE6C-2FB63E8B3292";
shapes = (
{
closed = 1;
nodes = (
(887,315,l),
(887,588,l),
(216,588,l),
(216,745,l),
(1052,745,l),
(1052,315,l)
);
}
);
width = 1321;
},
{
layerId = "9DE19B50-AF62-41B5-96CD-C828EA777CBB";
shapes = (
{
closed = 1;
nodes = (
(911,315,l),
(911,644,l),
(232,644,l),
(232,689,l),
(956,689,l),
(956,315,l)
);
}
);
width = 1241;
}
);
unicode = 172;
}
